<?xml version="1.0" encoding="utf-8"?>
<!-- Generator: Adobe Illustrator 26.5.0, SVG Export Plug-In . SVG Version: 6.00 Build 0)  -->
<svg version="1.1" id="Layer_3" xmlns="http://www.w3.org/2000/svg" xmlns:xlink="http://www.w3.org/1999/xlink" x="0px" y="0px"
	 viewBox="0 0 60.7 59" style="enable-background:new 0 0 60.7 59;" xml:space="preserve">
<style type="text/css">
	.st0{fill:#FFFFFF;stroke:#FFFFFF;stroke-width:0.4;stroke-miterlimit:10;}
</style>
<path class="st0" d="M17.6,16.4c-0.1,0-0.2,0-0.3,0c-0.5-1.2-1.8-1.8-3-1.4c-0.5,0.2-1,0.6-1.2,1c-0.1,0-0.3,0-0.4,0
	c-1,0-1.8,0.8-1.8,1.8c0,1,0.8,1.8,1.8,1.8c0,0,0,0,0,0h5c0.9,0,1.6-0.7,1.6-1.6C19.2,17.1,18.5,16.4,17.6,16.4z M17.6,19.1h-5
	c-0.7,0-1.3-0.6-1.3-1.3c0-0.7,0.6-1.3,1.3-1.3c0.1,0,0.3,0,0.4,0.1l0.2,0.1l0.1-0.2c0.4-0.9,1.5-1.3,2.4-0.9c0.5,0.2,0.9,0.7,1,1.2
	l0.1,0.3l0.3-0.1c0.1-0.1,0.3-0.1,0.4-0.1c0.6,0,1.1,0.5,1.1,1.1C18.7,18.6,18.2,19.1,17.6,19.1C17.6,19.1,17.6,19.1,17.6,19.1
	L17.6,19.1z M59.2,29.4c0-5.8-1.8-11.5-5.1-16.3c2.3-1.8,2.7-5.1,0.9-7.4C53.3,3.4,50,3,47.7,4.8C47.3,5,47,5.3,46.8,5.7
	C33.7-3.4,15.7-0.2,6.6,12.9S0.7,44,13.8,53.1c3.9,2.7,8.4,4.4,13.1,5v0.1h0.5c0.9,0.1,1.9,0.1,2.8,0.1c0.9,0,1.9,0,2.8-0.1h0.1v0
	c6.9-0.7,13.3-3.8,18-8.8h0.1v-0.1c1.1-1.2,2.2-2.5,3.1-3.8h0v0c0.4-0.6,0.8-1.2,1.1-1.8h0v0c0.5-0.8,0.9-1.7,1.3-2.5l0.1,0
	c0,0,0-0.1,0-0.1C58.4,37.3,59.2,33.4,59.2,29.4z M57.3,37.9h-1.9v-2.4H58C57.8,36.3,57.6,37.1,57.3,37.9z M53.3,35v-2.8h-0.7
	c0.4-0.6,0.4-1.4,0-2h4.6c-0.7,0.6-1.1,1.4-1.2,2.3c0,0.1,0,0.1,0,0.2h0V35H53.3z M54.9,35.5v2.4h-0.2v0.1c-0.4-0.3-0.9-0.5-1.5-0.6
	v-1.9L54.9,35.5z M58.1,35h-1.5v-1.7h1.8C58.3,33.9,58.2,34.4,58.1,35z M58.4,32.8h-1.8c0-0.1,0-0.1,0-0.2c0-1,1-2.3,1.9-2.3
	c0.1,0,0.1,0,0.1,0C58.6,31.1,58.5,31.9,58.4,32.8z M58.6,29.4c0,0.1,0,0.2,0,0.3H52c-0.3-0.2-0.7-0.3-1-0.3c-0.1,0-0.1,0-0.2,0
	c-0.1-0.4-0.1-0.8-0.1-1.2c0-3.5,2.8-7.7,6-9C58,22.4,58.6,25.9,58.6,29.4L58.6,29.4z M52.3,31.3c0,0.4-0.1,0.7-0.4,0.9h-1.8
	c-0.5-0.5-0.5-1.3,0-1.9c0.5-0.5,1.3-0.5,1.9,0C52.2,30.6,52.3,30.9,52.3,31.3L52.3,31.3z M50.9,4.2c2.6,0,4.7,2.1,4.7,4.7
	c0,1.9-1.1,3.5-2.8,4.3c0,0,0-0.1,0-0.1c0-1.5-1.2-2.8-2.8-2.8c-0.2,0-0.5,0-0.7,0.1c-0.6-1.2-1.8-1.9-3.1-1.9
	C46.5,6,48.5,4.2,50.9,4.2L50.9,4.2z M52.3,13.1c0,1.2-1,2.2-2.2,2.2H42c-1.1,0-2-0.9-2-2c0-1.1,0.9-1.9,2-2c0.2,0,0.5,0,0.7,0.1
	l0.3,0.1l0.1-0.3c0.4-1.7,2.1-2.7,3.7-2.3c0.9,0.2,1.7,0.9,2.1,1.8l0.1,0.2l0.2-0.1c1.2-0.4,2.5,0.2,2.9,1.4
	C52.2,12.6,52.3,12.8,52.3,13.1z M2,29.4c0-3.5,0.7-7,2-10.3c3.2,1.3,6.1,5.5,6.1,9.1c0,0.4,0,0.8-0.1,1.2c-0.1,0-0.1,0-0.2,0
	c-0.4,0-0.7,0.1-1,0.3H2C2,29.6,2,29.5,2,29.4z M11.1,31.3c0,0.4-0.1,0.7-0.4,0.9H8.8c-0.5-0.5-0.5-1.3,0-1.9c0.5-0.5,1.3-0.5,1.9,0
	C10.9,30.6,11.1,30.9,11.1,31.3z M8.2,32.2H7.5V35H4.7v-2.2h0c0-0.1,0-0.1,0-0.2c0-0.9-0.5-1.7-1.2-2.3h4.6
	C7.8,30.8,7.8,31.6,8.2,32.2z M5.8,37.9v-2.4h1.6v1.9c-0.5,0.1-1,0.3-1.5,0.6v-0.1L5.8,37.9z M2,30.3c0.1,0,0.2-0.1,0.3-0.1
	c0.8,0,1.9,1.3,1.9,2.3c0,0.1,0,0.1,0,0.2h-2C2.1,32,2,31.1,2,30.3L2,30.3z M2.2,33.3h2V35H2.5C2.4,34.4,2.3,33.9,2.2,33.3L2.2,33.3
	z M2.6,35.5h2.7v2.4h-2C3,37.1,2.8,36.3,2.6,35.5L2.6,35.5z M4.2,40.4c-0.3-0.6-0.5-1.2-0.7-1.9h2.1c-0.5,0.5-1,1.1-1.3,1.8
	C4.2,40.3,4.2,40.3,4.2,40.4z M9.5,48.6c-0.9-1-1.8-2.1-2.6-3.2h2.6V48.6z M9.5,44.9H6.6C6.3,44.4,6,44,5.8,43.6h3.7L9.5,44.9z
	 M9.5,43h-4c-0.4-0.6-0.7-1.3-1-2c0.1-0.2,0.1-0.4,0.2-0.6C5.4,39,6.7,38,7.8,38c0.6,0,1.2,0.3,1.7,0.8V43z M9.5,36.7V38
	c-0.4-0.3-0.9-0.5-1.4-0.6V35h0v-2.2h3.4v4L9.5,36.7z M15.4,38.6L15.4,38.6l0,15c-2-1.2-3.8-2.7-5.4-4.3V37.3h5.4V38.6z M12,36.7v-2
	h1.4v2L12,36.7z M22.4,56.6c-1-0.3-2-0.7-3-1.1V53c0-0.3,0.2-0.5,0.4-0.5l0.6-0.1l-0.4-0.4c-0.2-0.2-0.4-0.6-0.4-0.9
	c0.1-0.7,0.6-1.2,1.3-1.4c0.7,0.2,1.2,0.7,1.3,1.4c0,0.3-0.1,0.7-0.4,0.9l-0.4,0.4l0.6,0.1c0.3,0,0.4,0.2,0.4,0.5L22.4,56.6z
	 M29.8,52.8v5c-0.8,0-1.5-0.1-2.3-0.1v-4.8c0,0,0,0,0,0c0-0.2,0.1-0.4,0.3-0.6c0,0,0.1,0,0.1-0.1c0.1-0.1,0.1-0.1,0.2-0.1
	c0,0,0,0,0.1,0c0.1,0,0.2-0.1,0.3-0.1h0.4C29.4,51.8,29.8,52.2,29.8,52.8L29.8,52.8z M30.1,51.9c-0.3-0.4-0.7-0.6-1.2-0.6h-0.4
	c-0.4-0.4-0.6-0.9-0.6-1.5c0-1.2,1.6-2.4,2.2-2.4s2.2,1.2,2.2,2.4c0,0.6-0.2,1.1-0.6,1.5h-0.4C30.8,51.3,30.4,51.5,30.1,51.9z
	 M32.6,57.6c-0.8,0.1-1.5,0.1-2.3,0.1v-5l0,0c0-0.5,0.4-0.9,0.9-0.9h0.4c0.1,0,0.2,0,0.3,0.1c0,0,0,0,0.1,0c0.1,0,0.1,0.1,0.2,0.1
	c0,0,0.1,0,0.1,0.1c0,0.1,0.1,0.1,0.1,0.2c0,0,0,0.1,0.1,0.1c0,0.1,0.1,0.2,0.1,0.3c0,0,0,0,0,0L32.6,57.6z M34.7,57.4
	c-0.5,0.1-1,0.1-1.5,0.2v-4.8c0-0.1,0-0.3-0.1-0.4c0,0,0-0.1,0-0.1c0-0.1-0.1-0.2-0.1-0.3c0,0,0,0,0,0c-0.1-0.1-0.1-0.2-0.2-0.3
	c0,0-0.1-0.1-0.1-0.1c-0.1-0.1-0.1-0.1-0.2-0.1c0,0-0.1,0-0.1-0.1c0.3-0.5,0.5-1,0.5-1.6c0-1.6-1.9-3-2.8-3c-0.9,0-2.8,1.4-2.8,3
	c0,0.6,0.2,1.2,0.5,1.6c0,0-0.1,0-0.1,0.1c-0.1,0-0.1,0.1-0.2,0.1c0,0-0.1,0-0.1,0.1c-0.1,0.1-0.2,0.2-0.2,0.3c0,0,0,0,0,0
	c-0.1,0.1-0.1,0.2-0.1,0.3c0,0,0,0.1,0,0.1c0,0.1-0.1,0.3-0.1,0.4v4.8c-0.5-0.1-1-0.1-1.5-0.2v-4.5c0-0.6,0.2-1.1,0.5-1.6l0.1-0.1
	l0-0.1c-0.1-0.4-0.2-0.8-0.2-1.2c0-2.5,2.6-4.5,4.3-4.5s4.3,2,4.3,4.5c0,0.4-0.1,0.8-0.2,1.2l0,0.1l0.1,0.1c0.3,0.5,0.5,1,0.5,1.6
	L34.7,57.4z M40.8,55.7c-1,0.4-2,0.7-3,1V53c0-0.3,0.2-0.5,0.4-0.5l0.6-0.1l-0.4-0.4c-0.2-0.2-0.4-0.6-0.4-0.9
	c0.1-0.7,0.6-1.2,1.3-1.4c0.7,0.2,1.2,0.7,1.3,1.4c0,0.3-0.1,0.7-0.4,0.9l-0.4,0.4l0.6,0.1c0.3,0,0.4,0.2,0.4,0.5L40.8,55.7z
	 M44.8,53.8c-1.1,0.7-2.2,1.2-3.4,1.7V53c0-0.4-0.2-0.7-0.5-0.9c0.2-0.3,0.3-0.6,0.3-1c-0.1-1-0.9-1.8-1.8-2c-1,0.2-1.7,1-1.8,2
	c0,0.4,0.1,0.7,0.3,1c-0.3,0.2-0.5,0.5-0.5,0.9v3.9c-0.7,0.2-1.3,0.3-2,0.4v-4.5c0-0.6-0.2-1.3-0.5-1.8c0.1-0.4,0.1-0.8,0.1-1.2
	c0-2.8-2.9-5-4.8-5c-1.9,0-4.8,2.2-4.8,5c0,0.4,0,0.8,0.1,1.2c-0.3,0.5-0.5,1.2-0.5,1.8v4.4c-0.7-0.1-1.3-0.3-2-0.5V53
	c0-0.4-0.2-0.7-0.5-0.9c0.2-0.3,0.3-0.6,0.3-1c-0.1-1-0.9-1.8-1.8-2c-1,0.2-1.7,1-1.8,2c0,0.4,0.1,0.7,0.3,1
	c-0.3,0.2-0.5,0.5-0.5,0.9v2.3c-1-0.4-1.9-0.9-2.8-1.4V39.1h28.8L44.8,53.8z M19.7,37.3v1.3h-1.8v-1.3L19.7,37.3z M17.8,36.6
	c0-0.7,0.7-1.6,1.3-1.6c0.2,0,0.4,0.1,0.5,0.2v1.5h-1.8C17.9,36.7,17.8,36.6,17.8,36.6L17.8,36.6z M37.4,36.1v-1.6h3.2v1.6
	L37.4,36.1z M40.5,36.6v2h-1.3v-2L40.5,36.6z M38.7,36.6v2h-1.3v-2L38.7,36.6z M40.5,33.9h-3.1v-1.1h0c0.1-0.4,0.1-0.7,0.1-1.1
	c0-0.1,0-0.2,0-0.4c0.3-0.3,0.6-0.4,1-0.4c1,0,2.1,1.4,2.1,2.6C40.5,33.6,40.5,33.7,40.5,33.9L40.5,33.9z M23.9,35.1v-1.9h12.9v1.9
	L23.9,35.1z M36.8,35.7v2.9h-1.7v-2.9H36.8z M34.6,35.7v2.9h-1.7v-2.9H34.6z M32.3,35.7v2.9h-1.7v-2.9H32.3z M30.1,35.7v2.9h-1.7
	v-2.9H30.1z M27.9,35.7v2.9h-1.7v-2.9H27.9z M25.6,35.7v2.9h-1.7v-2.9H25.6z M36.8,32.7H24c-0.1-0.4-0.1-0.7-0.1-1.1
	c0-1.3,0.4-2.6,1-3.7h0v-0.1c1.3-2.3,3.5-4.1,5.4-4.1c2,0,4.1,1.8,5.4,4.1V28h0c0.6,1.1,1,2.4,1,3.7C36.9,32,36.8,32.4,36.8,32.7
	L36.8,32.7z M36.5,28h2.2v2.4c-0.1,0-0.2,0-0.3,0c-0.4,0-0.7,0.1-1.1,0.4C37.2,29.7,36.9,28.8,36.5,28z M38.7,27.5h-2.5
	c-0.3-0.6-0.7-1.1-1.2-1.7h3.7L38.7,27.5z M38.5,25.3h-4c-1-1.1-2.3-1.8-3.8-2v-2.7h-0.5v2.7c-1.5,0.2-2.8,0.9-3.8,2h-4
	c-0.1-0.5-0.1-1-0.1-1.5c0-4.6,4.5-10,8.3-10c3.8,0,8.3,5.4,8.3,10C38.6,24.3,38.6,24.8,38.5,25.3L38.5,25.3z M25.8,25.8
	c-0.5,0.5-0.9,1.1-1.2,1.7h-2.5v-1.7H25.8z M24.3,28c-0.4,0.8-0.7,1.7-0.9,2.7c-0.3-0.2-0.7-0.3-1.1-0.4c-0.1,0-0.2,0-0.3,0V28H24.3
	z M22.4,30.9c0.4,0,0.7,0.2,1,0.4c0,0.1,0,0.2,0,0.4c0,0.4,0,0.7,0.1,1.1h0v1.1h-3.1c0-0.1,0-0.2-0.1-0.4
	C20.2,32.3,21.4,30.9,22.4,30.9L22.4,30.9z M23.4,34.4v1.6h-3.2v-1.6L23.4,34.4z M23.4,36.6v2h-1.3v-2L23.4,36.6z M21.5,36.6v2h-1.3
	v-2L21.5,36.6z M42.9,37.3v1.3h-1.8v-1.3L42.9,37.3z M41.1,36.7v-1.5c0.2-0.1,0.3-0.2,0.5-0.2c0.6,0,1.3,0.9,1.3,1.6
	c0,0.1,0,0.1,0,0.2L41.1,36.7z M44.8,38.6h-1.3v-1.9h0c0-0.1,0-0.1,0-0.2c0-1.1-0.8-2-1.8-2.1c-0.2,0-0.4,0-0.5,0.1v-0.7h0
	c0-0.1,0-0.2,0-0.4c-0.1-1.2-0.8-2.3-1.9-2.9h0V28h0v-2.7H39c0.1-0.5,0.1-1,0.1-1.5c0-4.8-4.5-10.3-8.5-10.5V8.7h-0.5v4.6
	c-4,0.2-8.5,5.7-8.5,10.5c0,0.5,0,1,0.1,1.5h-0.2V28h0v2.6h0c-1.1,0.6-1.8,1.7-1.9,2.9c0,0.1,0,0.3,0,0.4h0v0.7
	c-0.2-0.1-0.4-0.1-0.5-0.1c-1,0.2-1.8,1.1-1.8,2.1c0,0.1,0,0.1,0,0.2h0v1.9H16v-1.9h-2v-2.5h-2v-2h-0.7c0.5-0.9,0.3-2-0.6-2.5
	c-0.1-0.1-0.2-0.1-0.3-0.1c0.1-0.5,0.1-0.9,0.1-1.4c0-3.7-3.1-8.3-6.5-9.6c6-14.5,22.5-21.3,37-15.4C43,4,44.8,5,46.5,6.1
	c-0.4,0.7-0.7,1.5-0.8,2.3c-1.4,0.2-2.6,1.1-3.1,2.5c-0.2-0.1-0.4-0.1-0.6-0.1c-1.4,0-2.5,1.1-2.5,2.5c0,1.4,1.1,2.5,2.5,2.5H50
	c1.3,0,2.3-0.8,2.7-2.1c0.3-0.1,0.6-0.3,0.9-0.5c1.1,1.6,2.1,3.4,2.9,5.3c-3.3,1.4-6.3,5.8-6.3,9.5c0,0.5,0,0.9,0.1,1.4
	c-0.9,0.4-1.4,1.4-1,2.4c0,0.1,0.1,0.2,0.1,0.3h-0.7v2h-2v2.5h-2L44.8,38.6z M48.7,34.7v2h-1.4v-2L48.7,34.7z M50.7,43v6
	c-1.6,1.7-3.4,3.2-5.4,4.4V37.3h5.4V43z M49.3,36.7v-4h3.4V35h0v2.5c-0.5,0.1-1,0.3-1.4,0.6v-1.3L49.3,36.7z M51.3,48.5v-3h2.4
	C52.9,46.5,52.1,47.5,51.3,48.5L51.3,48.5z M54,44.9h-2.8v-1.3h3.6C54.6,44,54.3,44.4,54,44.9L54,44.9z M55.1,43h-3.9v-4.3
	c0.5-0.4,1.1-0.7,1.7-0.8c1.1,0,2.4,1.1,3.1,2.5c0.1,0.1,0.1,0.3,0.2,0.4C55.9,41.6,55.5,42.3,55.1,43L55.1,43z M56.5,40.2
	c-0.3-0.6-0.8-1.2-1.3-1.7h1.9C56.9,39.1,56.7,39.6,56.5,40.2L56.5,40.2z"/>
</svg>
