<svg id="dubai" xmlns="http://www.w3.org/2000/svg" width="60.719" height="59" viewBox="0 0 60.719 59">
  <path id="Path_1609" data-name="Path 1609" d="M28.4,48h9.1V46a33.662,33.662,0,0,0-.3-4.4Z" fill="none"/>
  <path id="Path_1610" data-name="Path 1610" d="M27.1,41.1l.4,6.3,8.6-6.3Z" fill="none"/>
  <path id="Path_1611" data-name="Path 1611" d="M26.5,50.1H38.4a53.2,53.2,0,0,1-.7,6.2c.4-.1.8-.3,1.1-.4a57.469,57.469,0,0,0,.8-9.9,41.181,41.181,0,0,0-5.3-19.5,4.869,4.869,0,0,1-1.2.1c.4.7.8,1.5,1.2,2.3H23.7l.1,28.6a29.093,29.093,0,0,0,3.1.4ZM25.5,30h9.4a39.636,39.636,0,0,1,3,9H26ZM26,40H38a38.331,38.331,0,0,1,.5,6c0,1.1,0,2.1-.1,3.1h-12Z" fill="none"/>
  <path id="Path_1612" data-name="Path 1612" d="M37.3,51.7l-8.5,6.2a28.876,28.876,0,0,0,7.8-1.2C36.9,55,37.1,53.4,37.3,51.7Z" fill="none"/>
  <path id="Path_1613" data-name="Path 1613" d="M34.4,31.6l-6.6,6.3h8.7A38.8,38.8,0,0,0,34.4,31.6Z" fill="none"/>
  <path id="Path_1614" data-name="Path 1614" d="M28,57.2l8.3-6.1H27.6Z" fill="none"/>
  <path id="Path_1615" data-name="Path 1615" d="M26.6,31l.3,6.3L33.5,31Z" fill="none"/>
  <path id="Path_1616" data-name="Path 1616" d="M9.4,40.1a1.69,1.69,0,0,0-.5-.2H8.7a1.085,1.085,0,0,0-.8.8.959.959,0,0,0,.2.9.909.909,0,0,0,.8.4h6.4a1.76,1.76,0,0,0,1.3-.6,1.575,1.575,0,0,0,.4-1.3,1.814,1.814,0,0,0-1.4-1.5,1.729,1.729,0,0,0-1,.1c-.1.1-.3,0-.4-.1a2.332,2.332,0,0,0-2.1-1.3,2.263,2.263,0,0,0-2.3,2.3c0,.1-.1.2-.1.3C9.5,40.1,9.4,40.1,9.4,40.1Z" fill="none"/>
  <path id="Path_1617" data-name="Path 1617" d="M28.5,3.3a24.329,24.329,0,0,0-3.8.3v9.2A54.043,54.043,0,0,1,33.4,23a5.922,5.922,0,0,0,.4.6h1.9a1,1,0,0,1,1,1,2.008,2.008,0,0,1-1.3,1.7,41.414,41.414,0,0,1,5.3,19.8,52.238,52.238,0,0,1-.7,9.4A27.437,27.437,0,0,0,55.8,30.7a25.054,25.054,0,0,0-.6-5.5H47.6a2.814,2.814,0,0,1-2.1-1,3.1,3.1,0,0,1-.6-2.3A2.811,2.811,0,0,1,47,19.8c.2,0,.4-.1.6-.1h.3a4.586,4.586,0,0,1,3.7-3.6A27.123,27.123,0,0,0,28.5,3.3Z" fill="none"/>
  <path id="Path_1618" data-name="Path 1618" d="M1.2,30.6A27.343,27.343,0,0,0,19.9,56.5V28.9h-.6a1.8,1.8,0,1,1,0-3.6h.6v-1a1.482,1.482,0,0,1,.8-1.2V13.2a1.482,1.482,0,0,1,.8-1.2V4.2A27.185,27.185,0,0,0,1.2,30.6Zm13.5,7.2a1.7,1.7,0,0,1,1,0,2.551,2.551,0,0,1,2.2,2.3,2.829,2.829,0,0,1-.7,2.1,2.518,2.518,0,0,1-2,.9H8.9a2.36,2.36,0,0,1-1.6-.7,2.09,2.09,0,0,1-.4-1.7A2.045,2.045,0,0,1,8.4,39c.2,0,.3-.1.5,0a3.421,3.421,0,0,1,3.2-2.5A3.317,3.317,0,0,1,14.7,37.8Z" fill="none"/>
  <path id="Path_1619" data-name="Path 1619" d="M22.8,41.5V28.9H20.9V56.8c.6.2,1.2.3,1.9.5Z" fill="none"/>
  <path id="Path_1620" data-name="Path 1620" d="M25.3,25.3l-.5-9.7a51.1,51.1,0,0,1,6.4,7.8h1.3a52.707,52.707,0,0,0-8.8-10.3V25.3Z" fill="none"/>
  <path id="Path_1621" data-name="Path 1621" d="M26.6,26.4H19.3a.7.7,0,0,0,0,1.4h7.3a.7.7,0,0,0,0-1.4Z" fill="none"/>
  <path id="Path_1622" data-name="Path 1622" d="M22.8,13H22a.215.215,0,0,0-.2.2V23h1Z" fill="none"/>
  <path id="Path_1623" data-name="Path 1623" d="M22.8,24.1H21.1a.215.215,0,0,0-.2.2v1h1.9V24.1Z" fill="none"/>
  <path id="Path_1624" data-name="Path 1624" d="M35.6,24.5h-5c0,.6,1.1,1,2.5,1S35.6,25.1,35.6,24.5Z" fill="none"/>
  <path id="Path_1625" data-name="Path 1625" d="M29.5,24.5a1.05,1.05,0,0,1,.5-.9,41.057,41.057,0,0,0-4.1-5.2l.4,6.8v.1h.3a1.793,1.793,0,0,1,1.8,1.8,1.445,1.445,0,0,1-.2.7h4.4c-.1-.2-.5-.9-.7-1.4C30.4,26.2,29.5,25.5,29.5,24.5Z" fill="none"/>
  <path id="Path_1626" data-name="Path 1626" d="M57.5,18.7a2.733,2.733,0,0,0-1.6.2c-.1,0-.2,0-.2-.1A3.412,3.412,0,0,0,53.6,17a5.019,5.019,0,0,0-1.2-.2h-.3a3.614,3.614,0,0,0-3.4,3.6h0a.215.215,0,0,1-.2.2,1.907,1.907,0,0,0-1.3-.2,1.825,1.825,0,0,0-1.4,1.4A1.855,1.855,0,0,0,47.6,24H57a2.74,2.74,0,0,0,2.7-3.1A2.538,2.538,0,0,0,57.5,18.7Z" fill="none"/>
  <path id="Path_1627" data-name="Path 1627" d="M24.5,12.5Z" fill="none"/>
  <path id="Path_1628" data-name="Path 1628" d="M23.7,3.7V1.9L22.6,1V11.9h1.1Z" fill="none"/>
  <path id="Path_1629" data-name="Path 1629" d="M1.2,30.6A27.273,27.273,0,0,1,21.6,4.2V3a28.484,28.484,0,0,0-1.7,54.8V56.6A27.531,27.531,0,0,1,1.2,30.6Z" fill="#fff"/>
  <path id="Path_1630" data-name="Path 1630" d="M20.9,56.8V58c.6.2,1.2.3,1.9.5V57.3A13.321,13.321,0,0,1,20.9,56.8Z" fill="#fff"/>
  <path id="Path_1631" data-name="Path 1631" d="M37.7,56.3a5.853,5.853,0,0,0-.2,1.3c.4-.1.8-.3,1.2-.4a5.853,5.853,0,0,0,.2-1.3C38.5,56,38.1,56.2,37.7,56.3Z" fill="#fff"/>
  <path id="Path_1632" data-name="Path 1632" d="M23.9,57.5v1.2a16.551,16.551,0,0,0,3.2.3L27,57.8A15.526,15.526,0,0,1,23.9,57.5Z" fill="#fff"/>
  <path id="Path_1633" data-name="Path 1633" d="M28.8,57.9l-.2.1h7.7c.1-.4.2-.9.3-1.3A25.436,25.436,0,0,1,28.8,57.9Z" fill="#fff"/>
  <path id="Path_1634" data-name="Path 1634" d="M34.9,30H25.5l.5,9H37.9A45.253,45.253,0,0,0,34.9,30Zm-8.3,1h6.9l-6.6,6.3Zm7.8.6a38.8,38.8,0,0,1,2.1,6.3H27.8Z" fill="#fff"/>
  <path id="Path_1635" data-name="Path 1635" d="M38.6,46a39.379,39.379,0,0,0-.5-6H26l.5,9h12C38.5,48.1,38.6,47,38.6,46ZM27.1,41.1h9l-8.7,6.3ZM37.5,48H28.4l8.8-6.4a33.662,33.662,0,0,1,.3,4.4Z" fill="#fff"/>
  <path id="Path_1636" data-name="Path 1636" d="M38.4,50.1H26.5l.4,7.8L27,59h1.5a31.655,31.655,0,0,0,7.6-1H28.6l.2-.1,8.5-6.2c-.2,1.6-.4,3.2-.7,4.9-.1.4-.2.8-.3,1.3a3.582,3.582,0,0,0,1.1-.4,5.853,5.853,0,0,0,.2-1.3A29.019,29.019,0,0,0,38.4,50.1ZM28,57.2l-.3-6.1h8.7Z" fill="#fff"/>
  <path id="Path_1637" data-name="Path 1637" d="M40.7,46a41.414,41.414,0,0,0-5.3-19.8,2.008,2.008,0,0,0,1.3-1.7,1,1,0,0,0-1-1H33.8a2.877,2.877,0,0,0-.4-.6,47.573,47.573,0,0,0-8.7-10.2V1.9a.909.909,0,0,0-.4-.8l-1-.8a1.08,1.08,0,0,0-.7-.3.9.9,0,0,0-.5.1.961.961,0,0,0-.6.9V12.1a1.206,1.206,0,0,0-.8,1.2v9.8a1.206,1.206,0,0,0-.8,1.2v1h-.6a1.8,1.8,0,1,0,0,3.6h.6V57.7c.3.1.7.2,1,.3V28.9h1.9V58.5c.3.1.7.1,1,.2V57.5l-.1-28.6H34.3c-.4-.8-.8-1.6-1.2-2.3a4.869,4.869,0,0,0,1.2-.1A39.761,39.761,0,0,1,39.6,46a57.469,57.469,0,0,1-.8,9.9,5.853,5.853,0,0,0-.2,1.3,6.117,6.117,0,0,0,1.2-.5,6.753,6.753,0,0,0,.2-1.4A60.9,60.9,0,0,0,40.7,46ZM24.6,12.6h0C24.5,12.5,24.6,12.5,24.6,12.6Zm7.9,10.9H31.2a56.7,56.7,0,0,0-6.4-7.8l.5,9.7H23.8V13.2A50.5,50.5,0,0,1,32.5,23.5ZM22.6,3.9V1l1,.8v10h-1Zm-.8,9.3A.215.215,0,0,1,22,13h.8V23h-1Zm-.9,11.1a.215.215,0,0,1,.2-.2h1.7v1.3H20.9V24.3Zm5.7,3.6H19.3a.7.7,0,1,1,0-1.4h7.3a.684.684,0,0,1,.7.7A.751.751,0,0,1,26.6,27.9Zm1.6,0a1.854,1.854,0,0,0,.2-.7,1.793,1.793,0,0,0-1.8-1.8h-.3v-.1L26,18.5c1.2,1.4,2.6,3.1,4.1,5.2a1.05,1.05,0,0,0-.5.9c0,1,.9,1.7,2.3,2,.3.5.6,1.2.7,1.4H28.2Zm4.9-2.3c-1.4,0-2.5-.5-2.5-1h5C35.6,25.1,34.5,25.6,33.1,25.6Z" fill="#fff"/>
  <path id="Path_1638" data-name="Path 1638" d="M55.8,30.6A27.437,27.437,0,0,1,40,55.4a6.753,6.753,0,0,0-.2,1.4A28.631,28.631,0,0,0,57,30.6a33.082,33.082,0,0,0-.5-5.5H55.3A32.126,32.126,0,0,1,55.8,30.6Z" fill="#fff"/>
  <path id="Path_1639" data-name="Path 1639" d="M28.5,3.3A27.493,27.493,0,0,1,51.6,16c.3,0,.5-.1.8-.1h.5A28.475,28.475,0,0,0,28.5,2.1a24.329,24.329,0,0,0-3.8.3V3.6A23.4,23.4,0,0,1,28.5,3.3Z" fill="#fff"/>
  <path id="Path_1640" data-name="Path 1640" d="M60.7,21a3.715,3.715,0,0,0-3-3.2h-.6a3.751,3.751,0,0,0-1,.1A4.177,4.177,0,0,0,52.9,16h-.5a2.2,2.2,0,0,0-.8.1,4.715,4.715,0,0,0-3.7,3.6h-.3a1.268,1.268,0,0,0-.6.1,2.811,2.811,0,0,0-2.1,2.1,2.439,2.439,0,0,0,.6,2.3,2.814,2.814,0,0,0,2.1,1H57A3.571,3.571,0,0,0,59.7,24,3.924,3.924,0,0,0,60.7,21Zm-3.6,3.2H47.6A1.855,1.855,0,0,1,45.8,22a1.7,1.7,0,0,1,1.4-1.4,1.907,1.907,0,0,1,1.3.2c.1.1.2-.1.2-.2h0A3.614,3.614,0,0,1,52.1,17h.3a5.019,5.019,0,0,1,1.2.2A3.748,3.748,0,0,1,55.7,19c0,.1.2.1.2.1a2.851,2.851,0,0,1,1.6-.2,2.757,2.757,0,0,1,2.3,2.4A2.675,2.675,0,0,1,57.1,24.2Z" fill="#fff"/>
  <path id="Path_1641" data-name="Path 1641" d="M8.9,39H8.4a1.913,1.913,0,0,0-1.5,1.6,2.09,2.09,0,0,0,.4,1.7,1.99,1.99,0,0,0,1.6.7h6.4a2.665,2.665,0,0,0,2-.9A3.139,3.139,0,0,0,18,40a2.551,2.551,0,0,0-2.2-2.3,3.352,3.352,0,0,0-1,0,3.317,3.317,0,0,0-2.6-1.3A3.538,3.538,0,0,0,8.9,39Zm3.2-1.6a2.332,2.332,0,0,1,2.1,1.3c.1.1.2.2.4.1a1.183,1.183,0,0,1,1-.1A1.7,1.7,0,0,1,17,40.2a1.479,1.479,0,0,1-.4,1.3,1.612,1.612,0,0,1-1.3.6H8.9a.909.909,0,0,1-.8-.4,1.02,1.02,0,0,1-.2-.9,1.085,1.085,0,0,1,.8-.8h.2a.9.9,0,0,1,.5.1h.2c.1-.1.2-.2.1-.3A2.5,2.5,0,0,1,12.1,37.4Z" fill="#fff"/>
</svg>
