<svg xmlns="http://www.w3.org/2000/svg" width="54.491" height="43.528" viewBox="0 0 54.491 43.528">
  <g id="guest" transform="translate(1.004 1.125)">
    <g id="Group_123" data-name="Group 123" transform="translate(-115.42 -330.782)">
      <path id="Path_129" data-name="Path 129" d="M157.418,355.446a4.025,4.025,0,0,1-.944-2.235" fill="none" stroke="#313131" stroke-linecap="round" stroke-linejoin="round" stroke-width="2"/>
      <path id="Path_130" data-name="Path 130" d="M146.193,352.906a5.244,5.244,0,0,1-.881,2.54" fill="none" stroke="#313131" stroke-linecap="round" stroke-linejoin="round" stroke-width="2"/>
      <path id="Path_131" data-name="Path 131" d="M143.705,346.32a15.842,15.842,0,0,0,3.625,7.649c.65.65,2.281.977,3.923.984h.121c1.642-.007,3.273-.334,3.922-.984a15.85,15.85,0,0,0,3.626-7.649" fill="none" stroke="#313131" stroke-linecap="round" stroke-linejoin="round" stroke-width="2" fill-rule="evenodd"/>
      <path id="Path_132" data-name="Path 132" d="M156.748,333.123c-5.246-5.052-13.9-1.6-13.84,7.223a19.383,19.383,0,0,0,.8,5.974c-.08-1.433.319-6.611,1.354-6.691.352-.027.589.309,1.132.588a5.443,5.443,0,0,0,2.968,1.19,13.615,13.615,0,0,0,8.409-1.778c1.035.08,1.433,5.258,1.354,6.691a23.858,23.858,0,0,0,.844-5.556C159.921,337.391,160.2,334.611,156.748,333.123Z" fill="none" stroke="#313131" stroke-linecap="round" stroke-linejoin="round" stroke-width="2"/>
    </g>
    <path id="Path_133" data-name="Path 133" d="M167.243,361.584c-.914-3.558-9.825-6.138-9.825-6.138s.1,4.173-6.053,4.173-6.053-4.173-6.053-4.173-8.911,2.58-9.825,6.138a28.761,28.761,0,0,0-.571,7.964s5.48,2.637,16.449,2.637,16.45-2.637,16.45-2.637A28.781,28.781,0,0,0,167.243,361.584Z" transform="translate(-115.42 -330.782)" fill="none" stroke="#313131" stroke-linecap="round" stroke-linejoin="round" stroke-width="2"/>
    <g id="Group_125" data-name="Group 125" transform="translate(-115.42 -330.782)">
      <g id="Group_124" data-name="Group 124">
        <path id="Path_134" data-name="Path 134" d="M136.875,348.105c-1.809-.185-3.1-4.581-3.1-4.581-.923.638-4.523,5.061-10.5,3.588" fill="none" stroke="#313131" stroke-linecap="round" stroke-linejoin="round" stroke-width="2"/>
        <path id="Path_135" data-name="Path 135" d="M139.226,354.542a11.4,11.4,0,0,1,0-2.95c1.468-11.663-4.133-13.929-5.459-13.974-.743-.8-2.683-1.642-5.321-1.311-7.42.93-9.776,9.8-8.1,15.8a8.991,8.991,0,0,1-1.874,7.953" fill="none" stroke="#313131" stroke-linecap="round" stroke-linejoin="round" stroke-width="2"/>
        <path id="Path_136" data-name="Path 136" d="M133.92,356.929c-.109-.93-.127-1.65-.127-1.65" fill="none" stroke="#313131" stroke-linecap="round" stroke-linejoin="round" stroke-width="2"/>
        <path id="Path_137" data-name="Path 137" d="M134.086,358.035" fill="none" stroke="#313131" stroke-linecap="round" stroke-linejoin="round" stroke-width="2"/>
        <path id="Path_138" data-name="Path 138" d="M126.273,354.961a5.292,5.292,0,0,1,.01,2.181" fill="none" stroke="#313131" stroke-linecap="round" stroke-linejoin="round" stroke-width="2"/>
        <path id="Path_139" data-name="Path 139" d="M135.727,357.608c-1.058-.3-1.772-.466-1.772-.466s1.3,4.406-3.723,4.406-3.949-4.406-3.949-4.406-9.486,2.289-10.347,5.478a18.833,18.833,0,0,0-.514,4.581s4.929,2.372,14.794,2.372q.729,0,1.423-.017" fill="none" stroke="#313131" stroke-linecap="round" stroke-linejoin="round" stroke-width="2"/>
        <path id="Path_140" data-name="Path 140" d="M123.265,347.111c.022,4.645,2.41,9.345,6.926,9.345a5.5,5.5,0,0,0,4.915-2.783,17.138,17.138,0,0,0,1.769-5.568" fill="none" stroke="#313131" stroke-linecap="round" stroke-linejoin="round" stroke-width="2"/>
      </g>
    </g>
  </g>
</svg>
