<svg id="petersburg" xmlns="http://www.w3.org/2000/svg" width="59.352" height="64.9" viewBox="0 0 59.352 64.9">
  <path id="Path_1642" data-name="Path 1642" d="M21.8,30.7a.3.3,0,1,0,.3-.3A.319.319,0,0,0,21.8,30.7Z" fill="none"/>
  <path id="Path_1643" data-name="Path 1643" d="M30.2,12V9.8L29.3,11Z" fill="none"/>
  <path id="Path_1644" data-name="Path 1644" d="M18.7,53.8a.3.3,0,1,0,.3.3A.265.265,0,0,0,18.7,53.8Z" fill="none"/>
  <path id="Path_1645" data-name="Path 1645" d="M35.2,57.5v-.3H32.1v6.3a15.469,15.469,0,0,0,3.1-.6V57.5Z" fill="none"/>
  <path id="Path_1646" data-name="Path 1646" d="M21.4,60.6V58.1c-.2,0-.6-.1-1.2-.2-.6-.2-1-.7-1.2-1.7a5.755,5.755,0,0,1-.2-1h0a6.2,6.2,0,0,0,.2,3.5A4.271,4.271,0,0,0,21.4,60.6Z" fill="none"/>
  <path id="Path_1647" data-name="Path 1647" d="M25.5,57.2H22.4V63c1,.2,2.1.4,3.1.5Z" fill="none"/>
  <path id="Path_1648" data-name="Path 1648" d="M38.7,53.8a.3.3,0,1,0,.3.3A.265.265,0,0,0,38.7,53.8Z" fill="none"/>
  <path id="Path_1649" data-name="Path 1649" d="M27.2,13.5H26V15h5.5V13.5H27.2Z" fill="none"/>
  <path id="Path_1650" data-name="Path 1650" d="M28.8,11.6,28,12.7h1.8Z" fill="none"/>
  <path id="Path_1651" data-name="Path 1651" d="M37.2,57.8c-.6.2-.9.2-1.2.3v2.5a3.942,3.942,0,0,0,2.5-1.9,5.615,5.615,0,0,0,.3-3.5h0C38.6,55.8,38.3,57.5,37.2,57.8Z" fill="none"/>
  <path id="Path_1652" data-name="Path 1652" d="M1.2,36.4A27.273,27.273,0,0,0,21.6,62.8V61.4A5.493,5.493,0,0,1,18.3,59a6.754,6.754,0,0,1-.3-4.1.908.908,0,0,1-.3-.7,1,1,0,0,1,2,0,.908.908,0,0,1-.3.7h0c0,.6.3,2,1,2.2a2.8,2.8,0,0,0,1.1.2v-.5a.43.43,0,0,1,.4-.4h2V54a.43.43,0,0,1,.4-.4h.3L25,38a5.24,5.24,0,0,1-3.3-2.4,6.754,6.754,0,0,1-.3-4.1,1.234,1.234,0,0,1-.4-.8,1,1,0,0,1,2,0,.908.908,0,0,1-.3.7h0c.1.6.4,2.1,1,2.3a3.227,3.227,0,0,0,1.2.2H25l.4-16L23.1,17c-.1-.1-.3-.2-.3-.4V15.4c0-.2.3-.4.5-.4h2V13.1a.43.43,0,0,1,.4-.4h1V9.1A27.412,27.412,0,0,0,1.2,36.4Zm10.7,3.3A3.317,3.317,0,0,1,14.5,41a1.7,1.7,0,0,1,1,0,2.551,2.551,0,0,1,2.2,2.3,2.829,2.829,0,0,1-.7,2.1,2.518,2.518,0,0,1-2,.9H8.7a2.36,2.36,0,0,1-1.6-.7,2.09,2.09,0,0,1-.4-1.7,2.212,2.212,0,0,1,1.5-1.6c.2,0,.3-.1.5,0A3.4,3.4,0,0,1,11.9,39.7Z" fill="none"/>
  <path id="Path_1653" data-name="Path 1653" d="M24.9,37.2V34.7a6.882,6.882,0,0,1-1.3-.2c-1.1-.3-1.4-2-1.5-2.7h0a5.616,5.616,0,0,0,.3,3.5A3.81,3.81,0,0,0,24.9,37.2Z" fill="none"/>
  <path id="Path_1654" data-name="Path 1654" d="M33.3,2.2Z" fill="none"/>
  <path id="Path_1655" data-name="Path 1655" d="M28.6,5.1a2.485,2.485,0,0,1,.1.8,1.014,1.014,0,0,0,.6-.7,3.087,3.087,0,0,1,.5-1,1.268,1.268,0,0,1,.9-.4,2.2,2.2,0,0,1,.8.1,4.1,4.1,0,0,0,1.1.1,2.878,2.878,0,0,0,2.1-.9A1.7,1.7,0,0,0,34.9.9c-.1.1-.1.2-.2.4a1.421,1.421,0,0,1-1.5,1,6.882,6.882,0,0,1-1.3-.2,4.253,4.253,0,0,0-1.1-.2,2.318,2.318,0,0,0-2,1.1A5.6,5.6,0,0,0,28.6,5.1Z" fill="none"/>
  <path id="Path_1656" data-name="Path 1656" d="M28.2,6.8Z" fill="none"/>
  <path id="Path_1657" data-name="Path 1657" d="M30.7,3.9h0Z" fill="none"/>
  <path id="Path_1658" data-name="Path 1658" d="M35,.1Z" fill="none"/>
  <path id="Path_1659" data-name="Path 1659" d="M31.9,12.7a.43.43,0,0,1,.4.4V15h1.8c.2,0,.3.2.3.4v1.2a.52.52,0,0,1-.2.4l-2.2.9L32.4,34a2.8,2.8,0,0,0,1.1-.2c.6-.2,1-1.6,1.1-2.2a1.08,1.08,0,0,1-.3-.7,1,1,0,0,1,1-1,1.075,1.075,0,0,1,1,1,.908.908,0,0,1-.3.7,6.754,6.754,0,0,1-.3,4.1,5.494,5.494,0,0,1-3.2,2.4l.4,15.6h.3a.43.43,0,0,1,.4.4v2.5h2a.43.43,0,0,1,.4.4v.5a5.755,5.755,0,0,0,1-.2c.6-.2.9-1.6,1-2.2a1.08,1.08,0,0,1-.3-.7,1,1,0,0,1,2,0,.908.908,0,0,1-.3.7,6.326,6.326,0,0,1-.3,4.2,5.092,5.092,0,0,1-3.2,2.4V63A27.505,27.505,0,0,0,55.8,36.7a28.817,28.817,0,0,0-1.1-7.8H46.3a2.814,2.814,0,0,1-2.1-1,3.1,3.1,0,0,1-.6-2.3,2.811,2.811,0,0,1,2.1-2.1c.2,0,.4-.1.6-.1h.3a4.616,4.616,0,0,1,3.5-3.6A27.062,27.062,0,0,0,31,9.2v3.5Z" fill="none"/>
  <path id="Path_1660" data-name="Path 1660" d="M32.6,4.7Z" fill="none"/>
  <path id="Path_1661" data-name="Path 1661" d="M30.9,1.2Z" fill="none"/>
  <path id="Path_1662" data-name="Path 1662" d="M7.6,44a.959.959,0,0,0,.2.9.909.909,0,0,0,.8.4H15a1.76,1.76,0,0,0,1.3-.6,1.575,1.575,0,0,0,.4-1.3,1.814,1.814,0,0,0-1.4-1.5,1.729,1.729,0,0,0-1,.1c-.1.1-.3,0-.4-.1a2.332,2.332,0,0,0-2.1-1.3,2.263,2.263,0,0,0-2.3,2.3c0,.1-.1.2-.1.3H9.2a.878.878,0,0,0-.7-.1A1.182,1.182,0,0,0,7.6,44Z" fill="none"/>
  <path id="Path_1663" data-name="Path 1663" d="M25,38.1l-.3,15.5h0Z" fill="none"/>
  <path id="Path_1664" data-name="Path 1664" d="M27.1,46.6A1.617,1.617,0,0,0,28.7,48h0a1.617,1.617,0,0,0,1.6-1.4,3.263,3.263,0,0,1-1.1-1.2,3.494,3.494,0,0,1-.5-1.3,4.284,4.284,0,0,1-.5,1.3A3.263,3.263,0,0,1,27.1,46.6Z" fill="none"/>
  <path id="Path_1665" data-name="Path 1665" d="M27.3,7.7h0v.2h0v.6l.4.5.4.5.1.1.6.7.5-.7.1-.1.3-.5.5-.6V8h0V7.7H27.3Z" fill="none"/>
  <rect id="Rectangle_420" data-name="Rectangle 420" width="1.7" height="2.1" transform="translate(27.9 54.3)" fill="none"/>
  <path id="Path_1666" data-name="Path 1666" d="M30,53.6h2.2L31.8,38c0-.1-.1-.1-.1-.2V34.3L31.3,18H26.2l-.9,35.6H30ZM26.6,23.2a2.46,2.46,0,0,0,1-1,4.072,4.072,0,0,0,.5-1.8.908.908,0,0,1-.3-.7,1,1,0,0,1,1-1,.945.945,0,0,1,1,1,1.234,1.234,0,0,1-.4.8,3.458,3.458,0,0,0,.5,1.7,2.46,2.46,0,0,0,1,1c.2,0,.3.2.3.4A2.433,2.433,0,0,1,28.8,26h0a2.433,2.433,0,0,1-2.4-2.4C26.4,23.4,26.5,23.2,26.6,23.2Zm1.5,9.4a.4.4,0,0,1,0-.8h.3v-.2a.4.4,0,0,1,.8,0v.2h.3a.4.4,0,0,1,0,.8h-.3v1.8a.752.752,0,0,0,.5-.7.4.4,0,1,1,.8,0,1.6,1.6,0,0,1-3.2,0,.4.4,0,1,1,.8,0,.752.752,0,0,0,.5.7V32.6ZM26.4,46.4c0-.2.1-.3.3-.4a2.46,2.46,0,0,0,1-1,4.072,4.072,0,0,0,.5-1.8.908.908,0,0,1-.3-.7,1,1,0,0,1,2,0,1.235,1.235,0,0,1-.4.8A3.458,3.458,0,0,0,30,45a2.46,2.46,0,0,0,1,1c.2,0,.3.2.3.4a2.433,2.433,0,0,1-2.4,2.4h0A2.455,2.455,0,0,1,26.4,46.4Z" fill="none"/>
  <path id="Path_1667" data-name="Path 1667" d="M31.3,63.6V57.4H26.2v6.2a16.95,16.95,0,0,0,2.3.1A26.2,26.2,0,0,0,31.3,63.6Z" fill="none"/>
  <path id="Path_1668" data-name="Path 1668" d="M58.4,24.7a2.791,2.791,0,0,0-3.9-2.2c-.1,0-.2,0-.2-.1a3.412,3.412,0,0,0-2.1-1.8,5.019,5.019,0,0,0-1.2-.2h-.4A3.675,3.675,0,0,0,47.3,24h0a.215.215,0,0,1-.2.2,1.907,1.907,0,0,0-1.3-.2,1.825,1.825,0,0,0-1.4,1.4,1.855,1.855,0,0,0,1.8,2.2h9.4A2.6,2.6,0,0,0,58.4,24.7Z" fill="none"/>
  <rect id="Rectangle_421" data-name="Rectangle 421" width="2.4" height="2.1" transform="translate(30.4 54.3)" fill="none"/>
  <rect id="Rectangle_422" data-name="Rectangle 422" width="2.4" height="2.1" transform="translate(24.7 54.3)" fill="none"/>
  <path id="Path_1669" data-name="Path 1669" d="M35.1,30.7a.3.3,0,1,0,.3-.3Q35.1,30.55,35.1,30.7Z" fill="none"/>
  <path id="Path_1670" data-name="Path 1670" d="M27.1,23.8a1.617,1.617,0,0,0,1.6,1.4h0a1.617,1.617,0,0,0,1.6-1.4,3.263,3.263,0,0,1-1.1-1.2,3.494,3.494,0,0,1-.5-1.3,4.284,4.284,0,0,1-.5,1.3A2.606,2.606,0,0,1,27.1,23.8Z" fill="none"/>
  <path id="Path_1671" data-name="Path 1671" d="M28.8,19.9a.2.2,0,1,0-.2-.2A.215.215,0,0,0,28.8,19.9Z" fill="none"/>
  <path id="Path_1672" data-name="Path 1672" d="M33.8,34.4a3.691,3.691,0,0,1-1.3.2l.1,2.5a4.05,4.05,0,0,0,2.5-1.9,5.615,5.615,0,0,0,.3-3.5h0C35.2,32.4,34.9,34.1,33.8,34.4Z" fill="none"/>
  <path id="Path_1673" data-name="Path 1673" d="M27.3,9.8v2.6l1-1.4Z" fill="none"/>
  <path id="Path_1674" data-name="Path 1674" d="M31.5,17.3l2.2-.9v-.6H29c-.1,0-.1,0-.2-.1-.1,0-.1.1-.2.1h-5v.6l2.3.9Z" fill="none"/>
  <path id="Path_1675" data-name="Path 1675" d="M28.6,42.5a.2.2,0,1,0,.2-.2A.215.215,0,0,0,28.6,42.5Z" fill="none"/>
  <path id="Path_1676" data-name="Path 1676" d="M8.2,42.2a1.913,1.913,0,0,0-1.5,1.6,2.09,2.09,0,0,0,.4,1.7,1.99,1.99,0,0,0,1.6.7h6.4a2.665,2.665,0,0,0,2-.9,3.139,3.139,0,0,0,.7-2.1,2.551,2.551,0,0,0-2.2-2.3,3.352,3.352,0,0,0-1,0,3.279,3.279,0,0,0-5.8,1.2A1.268,1.268,0,0,1,8.2,42.2Zm1,1.1c.1,0,.2.1.2,0,.1-.1.2-.2.1-.3a2.263,2.263,0,0,1,2.3-2.3A2.332,2.332,0,0,1,13.9,42c.1.1.2.2.4.1a1.183,1.183,0,0,1,1-.1,1.7,1.7,0,0,1,1.4,1.5,1.479,1.479,0,0,1-.4,1.3,1.612,1.612,0,0,1-1.3.6H8.7a.909.909,0,0,1-.8-.4,1.02,1.02,0,0,1-.2-.9,1.085,1.085,0,0,1,.8-.8C8.7,43.1,8.9,43.1,9.2,43.3Z" fill="#fff"/>
  <line id="Line_71" data-name="Line 71" transform="translate(18.5 55.7)" fill="none" stroke="#fff" stroke-linecap="round" stroke-linejoin="round" stroke-width="1"/>
  <path id="Path_1677" data-name="Path 1677" d="M27.9,33.7a.4.4,0,1,0-.8,0,1.6,1.6,0,0,0,3.2,0,.4.4,0,1,0-.8,0,.752.752,0,0,1-.5.7V32.6h.3a.4.4,0,0,0,0-.8H29v-.2a.4.4,0,0,0-.8,0v.2h-.3a.4.4,0,0,0,0,.8h.3v1.8A1.143,1.143,0,0,1,27.9,33.7Z" fill="#fff"/>
  <path id="Path_1678" data-name="Path 1678" d="M28.7,25.9h0a2.456,2.456,0,0,0,2.5-2.4c0-.2-.1-.3-.3-.4a2.46,2.46,0,0,1-1-1,3.458,3.458,0,0,1-.5-1.7,1.234,1.234,0,0,0,.4-.8,1,1,0,0,0-1-1,.945.945,0,0,0-1,1,.908.908,0,0,0,.3.7,4.072,4.072,0,0,1-.5,1.8,2.46,2.46,0,0,1-1,1c-.2,0-.3.2-.3.4A2.5,2.5,0,0,0,28.7,25.9Zm.1-6.4a.2.2,0,1,1-.2.2A.215.215,0,0,1,28.8,19.5Zm0,1.9a4.284,4.284,0,0,0,.5,1.3,3.263,3.263,0,0,0,1.1,1.2,1.617,1.617,0,0,1-1.6,1.4h0a1.617,1.617,0,0,1-1.6-1.4,3.263,3.263,0,0,0,1.1-1.2C28.5,22.2,28.7,21.7,28.8,21.4Z" fill="#fff"/>
  <path id="Path_1679" data-name="Path 1679" d="M28.8,48.7h0a2.433,2.433,0,0,0,2.4-2.4c0-.2-.1-.3-.3-.4a2.46,2.46,0,0,1-1-1,3.458,3.458,0,0,1-.5-1.7,1.234,1.234,0,0,0,.4-.8,1,1,0,0,0-2,0,.908.908,0,0,0,.3.7,4.072,4.072,0,0,1-.5,1.8,2.46,2.46,0,0,1-1,1c-.2,0-.3.2-.3.4a2.454,2.454,0,0,0,2.5,2.4Zm.2-6.2a.2.2,0,1,1-.2-.2A.215.215,0,0,1,29,42.5Zm-.2,1.7a4.284,4.284,0,0,0,.5,1.3,3.263,3.263,0,0,0,1.1,1.2,1.617,1.617,0,0,1-1.6,1.4h0a1.617,1.617,0,0,1-1.6-1.4,3.263,3.263,0,0,0,1.1-1.2A11.215,11.215,0,0,0,28.8,44.2Z" fill="#fff"/>
  <path id="Path_1680" data-name="Path 1680" d="M36,61.4A5.222,5.222,0,0,0,39.2,59a6.326,6.326,0,0,0,.3-4.2.908.908,0,0,0,.3-.7,1,1,0,0,0-2,0,.779.779,0,0,0,.3.7c-.1.7-.4,2-1,2.2a8.376,8.376,0,0,1-1,.2v-.5a.43.43,0,0,0-.4-.4h-2V54a.43.43,0,0,0-.4-.4H33L32.5,38a4.978,4.978,0,0,0,3.2-2.4,6.044,6.044,0,0,0,.3-4.1.908.908,0,0,0,.3-.7,1,1,0,0,0-1-1,1.075,1.075,0,0,0-1,1,.779.779,0,0,0,.3.7c-.1.7-.4,2-1.1,2.2a2.8,2.8,0,0,1-1.1.2l-.4-16,2.2-.9a.52.52,0,0,0,.2-.4V15.4c0-.2-.1-.4-.3-.4H32.3V13.1a.43.43,0,0,0-.4-.4h-1V7.2a.43.43,0,0,0-.4-.4H26.9a.43.43,0,0,0-.4.4v5.6h-1a.43.43,0,0,0-.4.4V15h-2c-.2,0-.5.2-.5.4v1.2c0,.2.1.3.3.4l2.4.9-.4,16h-.1a3.519,3.519,0,0,1-1.2-.2c-.6-.2-.9-1.6-1-2.3h0a.908.908,0,0,0,.3-.7,1,1,0,0,0-2,0,1.136,1.136,0,0,0,.3.8,6.754,6.754,0,0,0,.3,4.1A4.887,4.887,0,0,0,24.8,38l-.4,15.5h-.3a.43.43,0,0,0-.4.4v2.5h-2a.43.43,0,0,0-.4.4v.5a2.8,2.8,0,0,1-1.1-.2c-.6-.2-.9-1.6-1-2.2h0a.908.908,0,0,0,.3-.7,1,1,0,0,0-2,0,.908.908,0,0,0,.3.7,6.044,6.044,0,0,0,.3,4.1,5.1,5.1,0,0,0,3.3,2.4V64h.1a22.114,22.114,0,0,0,2.5.5h0a.6.6,0,0,1,.4.1,25.953,25.953,0,0,0,4,.3,26.929,26.929,0,0,0,4-.3.6.6,0,0,0,.4-.1c1-.2,2.1-.4,3-.6h.1V61.4Zm-.8,1.5a16.96,16.96,0,0,1-3.1.6V57.2h3.1v5.7ZM18.5,55.7Zm.2-.6h0a6.213,6.213,0,0,1,.3,1,2.588,2.588,0,0,0,1.2,1.7,3.519,3.519,0,0,0,1.2.2v2.5a4.064,4.064,0,0,1-2.7-5.4Zm0-.7a.3.3,0,1,1,.3-.3A.265.265,0,0,1,18.7,54.4Zm3.4-22.6h0c.1.7.5,2.3,1.5,2.7a3.178,3.178,0,0,0,1.3.2v2.5a3.984,3.984,0,0,1-2.5-2A4.693,4.693,0,0,1,22.1,31.8Zm.3-1.1a.3.3,0,1,1-.3-.3A.319.319,0,0,1,22.4,30.7ZM39,54.1a.3.3,0,1,1-.3-.3A.265.265,0,0,1,39,54.1Zm-.3,1h0a4.968,4.968,0,0,1-.3,3.5,4.2,4.2,0,0,1-2.5,1.9V58a7.384,7.384,0,0,0,1.2-.2c1.2-.3,1.5-2,1.6-2.7ZM22.3,57.2h3.1v6.3a28.677,28.677,0,0,1-3.1-.5ZM31.5,15H26V13.5h5.6V15Zm-2.7-3.4.9,1.1H28Zm1.4.4-.9-1,.9-1.2V12Zm0-4.1h0v.6l-.5.6-.3.5-.1.1-.5.7-.6-.7-.1-.1-.4-.5-.4-.5V7.9h0V7.7h2.9ZM27.3,9.8l1,1.2-1,1.4Zm-3.7,6h5c.1,0,.1,0,.2-.1.1,0,.1.1.2.1h4.8v.6l-2.2.9H26l-2.3-.9v-.6ZM35.7,30.7a.3.3,0,1,1-.3-.3C35.5,30.5,35.7,30.6,35.7,30.7Zm-.3,1.1h0a5.616,5.616,0,0,1-.3,3.5,4.2,4.2,0,0,1-2.5,1.9l-.1-2.5a10.5,10.5,0,0,0,1.3-.2c1.1-.4,1.4-2.1,1.6-2.7ZM26.2,18h5.1l.4,16.2v3.5a.349.349,0,0,0,.1.2l.4,15.6H25.4Zm1.7,36.3h1.7v2.1H27.9Zm-1.7,3.1h5.1v6.2a26.2,26.2,0,0,1-2.8.1,17.7,17.7,0,0,1-2.3-.1V57.4Zm6.6-1H30.4V54.3h2.4Zm-8.1-2.1h2.4v2.1H24.7ZM25,38.1l-.4,15.5h0Z" fill="#fff"/>
  <path id="Path_1681" data-name="Path 1681" d="M27.8,6.3v.3a.215.215,0,0,0,.2.2h.4c1.2-.3,1.4-.8,1.6-1.4.1-.2.1-.5.3-.7.1-.1.2-.1.4-.1a1.7,1.7,0,0,1,.7.1,4.869,4.869,0,0,0,1.2.1,3.631,3.631,0,0,0,2.6-1.1,2.6,2.6,0,0,0,0-3.6A.349.349,0,0,0,35,0h-.1c-.3,0-.6.3-.9,1a.73.73,0,0,1-.8.5,4.4,4.4,0,0,1-1-.2,6.882,6.882,0,0,0-1.3-.2,3.28,3.28,0,0,0-2.6,1.4,3.123,3.123,0,0,0-.4,2.7c.1.6,0,.9-.1,1C27.8,6.2,27.8,6.3,27.8,6.3Zm.4.5Zm5.1-4.6Zm-2.4-.3a5.16,5.16,0,0,1,1.1.2,3.178,3.178,0,0,0,1.3.2,1.551,1.551,0,0,0,1.5-.9c.1-.2.1-.3.2-.4a1.7,1.7,0,0,1-.2,2.2,3.008,3.008,0,0,1-2.2.8c-.4,0-.7-.1-1.1-.1-.3,0-.6-.1-.8-.1a1.222,1.222,0,0,0-.9.3,3.087,3.087,0,0,0-.5,1c-.1.3-.1.5-.6.7a2.2,2.2,0,0,0-.1-.8,2.79,2.79,0,0,1,.3-2.1A2.459,2.459,0,0,1,30.9,1.9Zm-.2,2Zm1.9.8ZM35,.1ZM30.9,1.2Z" fill="#fff"/>
  <path id="Path_1682" data-name="Path 1682" d="M1.2,36.4A27.4,27.4,0,0,1,26.6,9.1V8a28.448,28.448,0,0,0-5,56V62.8A27.162,27.162,0,0,1,1.2,36.4Z" fill="#fff"/>
  <path id="Path_1683" data-name="Path 1683" d="M59.3,24.6a3.715,3.715,0,0,0-3-3.2h-.6a3.751,3.751,0,0,0-1,.1,4.556,4.556,0,0,0-3.4-1.9A27.8,27.8,0,0,0,31,8V9.2A27.561,27.561,0,0,1,50.1,19.6a4.616,4.616,0,0,0-3.5,3.6h-.3a1.268,1.268,0,0,0-.6.1,2.811,2.811,0,0,0-2.1,2.1,2.439,2.439,0,0,0,.6,2.3,2.814,2.814,0,0,0,2.1,1h8.4a28.817,28.817,0,0,1,1.1,7.8A27.387,27.387,0,0,1,35.9,62.8V64a28.539,28.539,0,0,0,20-35.4,3.616,3.616,0,0,0,3.4-4Zm-3.6,3.1H46.3a1.855,1.855,0,0,1-1.8-2.2,1.7,1.7,0,0,1,1.4-1.4,1.907,1.907,0,0,1,1.3.2c.1.1.2-.1.2-.2h0a3.529,3.529,0,0,1,3.3-3.6h.4a5.019,5.019,0,0,1,1.2.2,3.748,3.748,0,0,1,2.1,1.8c0,.1.2.1.2.1a2.851,2.851,0,0,1,1.6-.2,2.757,2.757,0,0,1,2.3,2.4A2.816,2.816,0,0,1,55.7,27.7Z" fill="#fff"/>
</svg>
