<?xml version="1.0" encoding="UTF-8" standalone="no"?>
<svg width="40px" height="40px" viewBox="0 0 40 40" version="1.1" xmlns="http://www.w3.org/2000/svg" xmlns:xlink="http://www.w3.org/1999/xlink">
    <!-- Generator: Sketch 45.1 (43504) - http://www.bohemiancoding.com/sketch -->
    <title>baby</title>
    <desc>Created with Sketch.</desc>
    <defs></defs>
    <g id="Page-1" stroke="none" stroke-width="1" fill="none" fill-rule="evenodd">
        <g id="baby" stroke="#58595B">
            <g id="Page-1" transform="translate(9.000000, 8.000000)">
                <path d="M21.0996,24.5996 C20.7996,23.4996 20.4996,18.9996 20.4996,17.2006 C20.4996,13.9996 21.4996,12.7996 21.4996,10.2006 C21.4996,3.5996 16.7996,0.4996 10.9996,0.4996 C5.2006,0.4996 0.4996,3.5996 0.4996,10.2006 C0.4996,12.7996 1.4996,12.7006 1.4996,17.2006 C1.4996,19.4006 1.2996,23.7006 0.9996,24.5996" id="Stroke-1"></path>
                <path d="M11.1001,2.6001 C15.0211,2.6001 18.2001,5.7791 18.2001,9.7001 C18.2001,13.6211 15.0211,16.8001 11.1001,16.8001 C7.1791,16.8001 4.0001,13.6211 4.0001,9.7001 C4.0001,5.7791 7.1791,2.6001 11.1001,2.6001 Z" id="Stroke-3"></path>
                <path d="M14.5996,15.9004 C14.5996,15.9004 11.5996,18.0004 10.9996,19.0004" id="Stroke-5"></path>
                <path d="M6.8999,15.4004 C6.9999,15.5004 12.9999,19.7994 15.5999,24.5994" id="Stroke-7"></path>
                <path d="M14,8 C14.718,8 15.3,8.627 15.3,9.4 C15.3,10.173 14.718,10.8 14,10.8 C13.282,10.8 12.7,10.173 12.7,9.4 C12.7,8.627 13.282,8 14,8 Z" id="Stroke-9"></path>
                <path d="M14.4004,8.1001 C14.6754,8.1001 14.9004,8.3241 14.9004,8.6001 C14.9004,8.8761 14.6754,9.1001 14.4004,9.1001 C14.1244,9.1001 13.9004,8.8761 13.9004,8.6001 C13.9004,8.3241 14.1244,8.1001 14.4004,8.1001 Z" id="Stroke-11"></path>
                <path d="M8.2002,8 C8.9182,8 9.5002,8.627 9.5002,9.4 C9.5002,10.173 8.9182,10.8 8.2002,10.8 C7.4822,10.8 6.9002,10.173 6.9002,9.4 C6.9002,8.627 7.4822,8 8.2002,8 Z" id="Stroke-13"></path>
                <path d="M8.7002,8.2998 C8.9762,8.2998 9.2002,8.5238 9.2002,8.7998 C9.2002,9.0758 8.9762,9.2998 8.7002,9.2998 C8.4242,9.2998 8.2002,9.0758 8.2002,8.7998 C8.2002,8.5238 8.4242,8.2998 8.7002,8.2998 Z" id="Stroke-15"></path>
                <path d="M10.2002,14.0996 C9.8002,13.7996 9.6002,13.4006 9.6002,12.8996 C9.6002,11.9996 10.3002,11.3996 11.1002,11.3996 C11.9002,11.3996 12.5992,12.0996 12.5992,12.8996 C12.5992,13.4006 12.4002,13.7996 12.0002,14.0996" id="Stroke-17"></path>
                <path d="M11.6001,12.7002 C11.7001,12.9002 11.8001,13.0992 11.9001,13.3002 C12.1001,13.9002 12.4001,14.4002 12.1001,14.7002 C12.0001,14.9002 11.7001,15.0002 11.2001,15.0002 C10.7001,15.0002 10.4001,14.9002 10.3001,14.7002 C10.1001,14.4002 10.3001,14.0002 10.5001,13.5002 C10.6001,13.2002 10.7001,13.0002 10.8001,12.7002" id="Stroke-19"></path>
                <path d="M10.8999,5.8999 L10.8999,4.4999 C10.8999,4.4999 10.9999,3.7999 11.6999,3.7999 C12.1999,3.7999 12.5999,3.8999 12.5999,4.6999 C12.5999,4.6999 12.6999,5.4999 11.3999,5.4999 C11.3999,5.4999 10.5999,5.4999 10.1999,4.7999 C9.9999,4.3999 9.9999,3.8999 10.2999,3.3999 C10.2999,3.3999 10.6999,2.7999 10.7999,2.1999 C10.7999,1.7999 10.6999,1.4999 10.6999,1.4999" id="Stroke-21"></path>
            </g>
        </g>
    </g>
</svg>