<?xml version="1.0" encoding="UTF-8" standalone="no"?>
<svg width="40px" height="40px" viewBox="0 0 40 40" version="1.1" xmlns="http://www.w3.org/2000/svg" xmlns:xlink="http://www.w3.org/1999/xlink">
    <!-- Generator: Sketch 45.1 (43504) - http://www.bohemiancoding.com/sketch -->
    <title>bath</title>
    <desc>Created with Sketch.</desc>
    <defs></defs>
    <g id="Page-1" stroke="none" stroke-width="1" fill="none" fill-rule="evenodd">
        <g id="bath" stroke="#58595B">
            <g id="Page-1" transform="translate(5.000000, 6.000000)">
                <path d="M25.9004,27.9025 L25.9004,27.9025 C25.7994,27.9025 25.0004,27.8015 24.5004,27.5025 C24.0004,27.1015 23.7004,26.5025 23.7004,26.4025" id="Stroke-1"></path>
                <path d="M6.2998,26.3019 C6.2998,26.3019 5.7998,27.1019 5.2998,27.4029 C4.7998,27.8019 3.9998,27.8019 3.8998,27.8019" id="Stroke-3"></path>
                <path d="M28.7998,18.4025 C28.7998,18.4025 27.0998,26.3015 24.9008,26.3015 L4.8998,26.3015 C2.6998,26.3015 0.9998,18.4025 0.9998,18.4025" id="Stroke-5"></path>
                <path d="M28.7002,18.4025 C29.2002,18.4025 29.4002,18.1015 29.4002,17.8015 C29.4002,17.5025 29.2002,17.2025 28.7002,17.2025 L1.2002,17.2025 C0.7002,17.2025 0.5002,17.5025 0.5002,17.8015 C0.5002,18.1015 0.7002,18.4025 1.2002,18.4025" id="Stroke-7"></path>
                <polygon id="Stroke-9" points="25.9004 2.402 23.2994 2.902 25.5004 5.102"></polygon>
                <path d="M24.7002,6.402 L24.0992,7.702" id="Stroke-11"></path>
                <path d="M23.0996,9.6022 L22.5996,10.9022" id="Stroke-13"></path>
                <path d="M22,12.6022 L21.4,13.9022" id="Stroke-15"></path>
                <path d="M22.2002,4.0021 L21.0002,4.8021" id="Stroke-17"></path>
                <path d="M19.0996,5.6022 L17.9006,6.4022" id="Stroke-19"></path>
                <path d="M15.8999,7.7023 L14.6999,8.4023" id="Stroke-21"></path>
                <path d="M20.0996,7.2023 L18.9996,8.1023" id="Stroke-23"></path>
                <path d="M17.5996,9.402 L16.4996,10.302" id="Stroke-25"></path>
                <path d="M23.2998,5.402 L22.2998,6.702" id="Stroke-27"></path>
                <path d="M21.5,8.402 L20.6,9.602" id="Stroke-29"></path>
                <path d="M19.5,11.1022 L18.6,12.3022" id="Stroke-31"></path>
                <polyline id="Stroke-33" points="28.2998 17.1017 28.2998 0.9017 25.9008 2.4017"></polyline>
            </g>
        </g>
    </g>
</svg>