<?xml version="1.0" encoding="UTF-8" standalone="no"?>
<svg width="40px" height="40px" viewBox="0 0 40 40" version="1.1" xmlns="http://www.w3.org/2000/svg" xmlns:xlink="http://www.w3.org/1999/xlink">
    <!-- Generator: Sketch 45.1 (43504) - http://www.bohemiancoding.com/sketch -->
    <title>bbq</title>
    <desc>Created with Sketch.</desc>
    <defs>
        <polygon id="path-1" points="0 26.5615 22.9 26.5615 22.9 0.0005 0 0.0005"></polygon>
    </defs>
    <g id="Page-1" stroke="none" stroke-width="1" fill="none" fill-rule="evenodd">
        <g id="bbq">
            <g id="Page-1" transform="translate(9.000000, 7.000000)">
                <path d="M12.7998,4.2617 C13.0998,5.0617 12.5998,6.0617 11.4998,6.0617 C10.4998,6.0617 9.8998,5.0617 10.2998,4.2617 C10.5998,3.4617 11.4998,1.2617 11.4998,1.2617 C11.4998,1.2617 12.4998,3.4617 12.7998,4.2617 Z" id="Stroke-1" stroke="#58595B"></path>
                <path d="M16.5996,5.5615 C16.4006,5.0615 15.9006,3.8615 15.9006,3.8615 C15.9006,3.8615 15.2006,5.0615 14.9996,5.5615 C14.7996,6.0615 15.0996,6.6615 15.7996,6.6615 C16.4006,6.5615 16.7996,6.0615 16.5996,5.5615" id="Stroke-3" stroke="#58595B"></path>
                <path d="M8,5.5615 C7.8,5.0615 7.3,3.7615 7.3,3.7615 C7.3,3.7615 6.7,5.0615 6.5,5.5615 C6.3,6.0615 6.6,6.6615 7.2,6.6615 C7.9,6.6615 8.2,6.0615 8,5.5615" id="Stroke-5" stroke="#58595B"></path>
                <path d="M2.8999,22.2617 L6.9999,15.4617" id="Stroke-7" stroke="#58595B"></path>
                <path d="M20.0996,24.2617 L2.8996,24.2617" id="Stroke-9" stroke="#58595B"></path>
                <path d="M20.0996,22.2617 L16.0996,15.5617" id="Stroke-11" stroke="#58595B"></path>
                <mask id="mask-2" fill="white">
                    <use xlink:href="#path-1"></use>
                </mask>
                <g id="Clip-14"></g>
                <polygon id="Stroke-13" stroke="#58595B" mask="url(#mask-2)" points="0.5 26.0615 2.7 26.0615 2.7 21.5615 0.5 21.5615"></polygon>
                <polygon id="Stroke-15" stroke="#58595B" mask="url(#mask-2)" points="20.2 26.0615 22.4 26.0615 22.4 21.5615 20.2 21.5615"></polygon>
                <path d="M2.1001,8.8613 C2.7001,13.4613 6.8001,16.4623 11.7001,16.4623 C16.6001,16.4623 20.6001,13.4613 21.3001,8.8613 L2.1001,8.8613 Z" id="Stroke-16" stroke="#58595B" mask="url(#mask-2)"></path>
                <polyline id="Stroke-17" stroke="#58595B" mask="url(#mask-2)" points="1.7002 9.0615 1.7002 6.9615 21.3002 6.9615 21.3002 9.0615"></polyline>
            </g>
        </g>
    </g>
</svg>