<?xml version="1.0" encoding="UTF-8" standalone="no"?>
<svg width="40px" height="40px" viewBox="0 0 40 40" version="1.1" xmlns="http://www.w3.org/2000/svg" xmlns:xlink="http://www.w3.org/1999/xlink">
    <!-- Generator: Sketch 45.1 (43504) - http://www.bohemiancoding.com/sketch -->
    <title>beach</title>
    <desc>Created with Sketch.</desc>
    <defs></defs>
    <g id="Page-1" stroke="none" stroke-width="1" fill="none" fill-rule="evenodd">
        <g id="beach" stroke="#58595B">
            <g id="Page-1" transform="translate(10.000000, 9.000000)">
                <path d="M20.2998,9.1001 C20.4008,8.6001 20.4008,8.2001 20.4008,8.2001 L20.4008,7.6001 C20.4008,5.0001 18.9008,0.5001 14.7998,0.5001 C12.1998,0.5001 11.4998,2.6001 11.4998,5.2001 C11.4998,5.6001 11.4998,6.0001 11.5998,6.4001 C11.6998,7.0001 11.7998,7.7001 11.9008,8.5001 L12.2998,11.8001 C12.2998,12.1001 12.4008,12.4001 12.4008,12.7001 C12.4008,14.6001 12.6998,19.6001 12.6998,19.6001 C12.6998,21.4001 13.9998,22.5001 15.7998,22.6001 C17.7998,22.6001 19.1998,21.4001 19.1998,19.6001 L19.7998,13.4001 C19.9008,13.3001 20.1998,10.4001 20.2998,9.1001" id="Stroke-1"></path>
                <path d="M14.5,5.2998 C14.1,5.7998 13.7,6.4998 13.4,6.8998 C12.6,8.2998 12.3,10.8998 12.3,10.8998" id="Stroke-3"></path>
                <path d="M16.2998,5.2002 C16.7998,5.6002 17.2998,6.1002 17.7998,6.7002 C19.2998,8.5002 20.0998,11.0002 20.0998,11.0002" id="Stroke-5"></path>
                <path d="M0.6001,9.1001 C0.6001,8.6001 0.5001,8.3001 0.5001,8.2001 L0.5001,7.6001 C0.5001,5.0001 2.0001,0.5001 6.1001,0.5001 C8.7001,0.5001 9.4001,2.6001 9.4001,5.2001 C9.4001,5.6001 9.4001,6.0001 9.3001,6.4001 C9.3001,7.0001 9.1001,7.7001 9.0001,8.5001 L8.6001,11.8001 C8.6001,12.1001 8.5001,12.4001 8.5001,12.7001 C8.5001,14.6001 8.2001,19.6001 8.2001,19.6001 C8.2001,21.4001 6.9001,22.5001 5.1001,22.6001 C3.1001,22.6001 1.7001,21.4001 1.7001,19.6001 L1.1001,13.4001 C1.1001,13.3001 0.8001,10.4001 0.6001,9.1001" id="Stroke-7"></path>
                <path d="M6.5,5.2998 C6.8,5.8998 7.3,6.4998 7.5,6.9998 C8.3,8.3998 8.7,10.8998 8.7,10.8998" id="Stroke-9"></path>
                <path d="M4.7002,5.2002 C4.2002,5.6002 3.7002,6.1002 3.2002,6.7002 C1.6002,8.5002 0.8002,11.0002 0.8002,11.0002" id="Stroke-11"></path>
                <path d="M5.6001,4 C6.2631,4 6.8001,4.537 6.8001,5.2 C6.8001,5.863 6.2631,6.4 5.6001,6.4 C4.9371,6.4 4.4001,5.863 4.4001,5.2 C4.4001,4.537 4.9371,4 5.6001,4 Z" id="Stroke-13"></path>
                <path d="M15.4004,4 C16.0624,4 16.5994,4.537 16.5994,5.2 C16.5994,5.863 16.0624,6.4 15.4004,6.4 C14.7374,6.4 14.2004,5.863 14.2004,5.2 C14.2004,4.537 14.7374,4 15.4004,4 Z" id="Stroke-15"></path>
            </g>
        </g>
    </g>
</svg>