<?xml version="1.0" encoding="UTF-8" standalone="no"?>
<svg width="40px" height="40px" viewBox="0 0 40 40" version="1.1" xmlns="http://www.w3.org/2000/svg" xmlns:xlink="http://www.w3.org/1999/xlink">
    <!-- Generator: Sketch 45.1 (43504) - http://www.bohemiancoding.com/sketch -->
    <title>bed</title>
    <desc>Created with Sketch.</desc>
    <defs></defs>
    <g id="Page-1" stroke="none" stroke-width="1" fill="none" fill-rule="evenodd" stroke-linecap="round" stroke-linejoin="round">
        <g id="bed" stroke="#58595B">
            <g id="Page-1" transform="translate(6.000000, 10.000000)">
                <path d="M2,7.5 L1.3,11.1" id="Stroke-1"></path>
                <path d="M23.5996,7.3999 L26.2996,7.3999" id="Stroke-3"></path>
                <path d="M4.8999,7.3999 L2.1999,7.3999" id="Stroke-4"></path>
                <g id="Group-21" transform="translate(0.000000, 0.500000)">
                    <polyline id="Stroke-5" points="0.7998 11.2998 0.7998 16.7998 0.7998 19.4998 2.3998 19.4998 2.3998 17.0998 26.5998 17.0998 26.5998 19.4998 27.6998 19.4998 27.6998 16.7998 27.6998 11.2998"></polyline>
                    <path d="M26.5996,6.6001 L26.5996,0.6001" id="Stroke-7"></path>
                    <path d="M1.8999,0.6001 L1.8999,6.6001" id="Stroke-9"></path>
                    <path d="M23.2998,7.3999 C23.2998,7.6999 23.0998,7.9999 22.6998,8.0999 C20.1998,8.3999 17.6998,8.3999 15.1998,8.0999 C14.7998,8.0999 14.5998,7.6999 14.5998,7.3999 C14.6998,5.9999 14.8998,4.6999 14.9998,3.2999 C14.9998,2.9999 15.2998,2.5999 15.5998,2.4999 C17.7998,1.7999 19.9998,1.7999 22.1998,2.4999 C22.4998,2.5999 22.7998,2.9999 22.7998,3.2999 C22.9998,4.5999 23.1998,5.9999 23.2998,7.3999 Z" id="Stroke-11"></path>
                    <path d="M13.8999,7.3999 C13.8999,7.6999 13.6999,7.9999 13.2999,8.0999 C10.7999,8.3999 8.2999,8.3999 5.7999,8.0999 C5.3999,8.0999 5.1999,7.6999 5.1999,7.3999 C5.2999,5.9999 5.4999,4.6999 5.5999,3.2999 C5.5999,2.9999 5.8999,2.5999 6.1999,2.4999 C8.3999,1.7999 10.5999,1.7999 12.7999,2.4999 C13.0999,2.5999 13.3999,2.9999 13.3999,3.2999 C13.5999,4.5999 13.6999,5.9999 13.8999,7.3999 Z" id="Stroke-13"></path>
                    <path d="M26.5,7 L27.2,10.6" id="Stroke-15"></path>
                    <path d="M0.7998,11.2998 L27.6998,11.2998" id="Stroke-17"></path>
                    <path d="M0.5,0 L27.7,0" id="Stroke-19"></path>
                </g>
            </g>
        </g>
    </g>
</svg>