<?xml version="1.0" encoding="UTF-8" standalone="no"?>
<svg width="40px" height="40px" viewBox="0 0 40 40" version="1.1" xmlns="http://www.w3.org/2000/svg" xmlns:xlink="http://www.w3.org/1999/xlink">
    <!-- Generator: Sketch 42 (36781) - http://www.bohemiancoding.com/sketch -->
    <title>breakfast</title>
    <desc>Created with Sketch.</desc>
    <defs></defs>
    <g id="Page-1" stroke="none" stroke-width="1" fill="none" fill-rule="evenodd">
        <g id="Listing-Expand" transform="translate(-288.000000, -1723.000000)">
            <g id="amenities" transform="translate(288.000000, 1406.000000)">
                <g id="breakfast" transform="translate(0.000000, 317.000000)">
                    <rect id="8" fill="#FFFFFF" x="0" y="0" width="40" height="40"></rect>
                    <path d="M15.4821,16.5938 C15.8801,15.2648 17.2421,13.2648 18.9691,13.2648 L21.0311,13.2648 C22.9351,13.2648 24.1101,14.7378 24.2441,16.2228" id="Stroke-1" stroke="#464646" stroke-linecap="round" stroke-linejoin="round"></path>
                    <path d="M23.5559,21.7169 C23.1029,22.6479 21.6039,23.4999 19.9999,23.4999 C18.5799,23.4999 17.2459,22.7729 16.4669,21.7049" id="Stroke-3" stroke="#464646" stroke-linecap="round" stroke-linejoin="round"></path>
                    <path d="M28.3828,22.0638 C27.6988,22.8848 26.5978,23.0108 25.4608,22.7668 C24.6558,22.5938 23.7888,22.1728 23.5558,21.7168" id="Stroke-5" stroke="#464646" stroke-linecap="round" stroke-linejoin="round"></path>
                    <path d="M24.2437,16.7897 C24.7907,16.4307 25.5127,16.3117 26.2327,16.5817 L27.8867,17.1997 C29.1687,17.7817 29.3587,18.6467 29.2827,19.7147" id="Stroke-7" stroke="#464646" stroke-linecap="round" stroke-linejoin="round"></path>
                    <path d="M29.2827,18.7148 C29.5337,18.5758 31.4997,19.1398 31.4997,22.3898 C31.4997,23.9958 29.0777,23.6688 28.3817,22.0628" id="Stroke-9" stroke="#464646" stroke-linecap="round" stroke-linejoin="round"></path>
                    <path d="M11.6165,22.0638 C12.3015,22.8848 13.4015,23.0108 14.5385,22.7668 C15.3435,22.5938 16.2115,22.1728 16.4435,21.7168" id="Stroke-11" stroke="#464646" stroke-linecap="round" stroke-linejoin="round"></path>
                    <path d="M15.4821,16.6369 C14.9791,16.4029 14.3721,16.3549 13.7671,16.5809 L12.1131,17.1989 C10.8311,17.7819 10.6411,18.6469 10.7171,19.7149" id="Stroke-13" stroke="#464646" stroke-linecap="round" stroke-linejoin="round"></path>
                    <path d="M10.717,18.7148 C10.465,18.5758 8.5,19.1398 8.5,22.3898 C8.5,23.9958 10.922,23.6688 11.618,22.0628" id="Stroke-15" stroke="#464646" stroke-linecap="round" stroke-linejoin="round"></path>
                    <path d="M23.6765,21.2652 L24.2435,16.7892" id="Stroke-17" stroke="#464646" stroke-linecap="round" stroke-linejoin="round"></path>
                    <path d="M29.2827,19.7148 L28.6967,21.7298" id="Stroke-19" stroke="#464646" stroke-linecap="round" stroke-linejoin="round"></path>
                    <path d="M16.2625,21.2652 L15.4825,16.6382" id="Stroke-21" stroke="#464646" stroke-linecap="round" stroke-linejoin="round"></path>
                    <path d="M10.717,19.7148 L11.304,21.8998" id="Stroke-23" stroke="#464646" stroke-linecap="round" stroke-linejoin="round"></path>
                </g>
            </g>
        </g>
    </g>
</svg>