<?xml version="1.0" encoding="UTF-8" standalone="no"?>
<svg width="40px" height="40px" viewBox="0 0 40 40" version="1.1" xmlns="http://www.w3.org/2000/svg" xmlns:xlink="http://www.w3.org/1999/xlink">
    <!-- Generator: Sketch 42 (36781) - http://www.bohemiancoding.com/sketch -->
    <title>buzzer</title>
    <desc>Created with Sketch.</desc>
    <defs></defs>
    <g id="Page-1" stroke="none" stroke-width="1" fill="none" fill-rule="evenodd">
        <g id="Listing-Expand" transform="translate(-603.000000, -1843.000000)">
            <g id="amenities" transform="translate(288.000000, 1406.000000)">
                <g id="buzzer" transform="translate(315.000000, 437.000000)">
                    <rect id="11" fill="#FFFFFF" x="0" y="0" width="40" height="40"></rect>
                    <path d="M10.5,18.6582 L10.5,20.4762 L10.507,21.2922 C10.636,23.6262 14.836,25.5002 20,25.5002 C25.247,25.5002 29.5,23.5662 29.5,21.1812 L29.5,18.7822" id="Stroke-1" stroke="#464646"></path>
                    <path d="M26.6061,15.0962 C28.3911,15.9502 29.5001,17.1462 29.5001,18.4712 C29.5001,21.0652 25.2471,23.1672 20.0001,23.1672 C14.7531,23.1672 10.5001,21.0652 10.5001,18.4712 C10.5001,17.1742 11.5631,16.0002 13.2821,15.1502" id="Stroke-3" stroke="#464646"></path>
                    <path d="M26.6231,13.6355 L26.6231,17.3935 C26.6231,19.2025 23.6571,20.6685 20.0001,20.6685 C16.3421,20.6685 13.3771,19.2025 13.3771,17.3935 L13.3771,13.6355" id="Stroke-5" stroke="#464646"></path>
                    <path d="M20,16.8787 C23.658,16.8787 26.623,15.4127 26.623,13.6047 C26.623,11.7967 23.658,10.3307 20,10.3307 C16.342,10.3307 13.377,11.7967 13.377,13.6047 C13.377,15.4127 16.342,16.8787 20,16.8787 L20,16.8787 Z" id="Stroke-7" stroke="#464646"></path>
                </g>
            </g>
        </g>
    </g>
</svg>