<?xml version="1.0" encoding="UTF-8" standalone="no"?>
<svg width="40px" height="40px" viewBox="0 0 40 40" version="1.1" xmlns="http://www.w3.org/2000/svg" xmlns:xlink="http://www.w3.org/1999/xlink">
    <!-- Generator: Sketch 45.1 (43504) - http://www.bohemiancoding.com/sketch -->
    <title>cats</title>
    <desc>Created with Sketch.</desc>
    <defs></defs>
    <g id="Page-1" stroke="none" stroke-width="1" fill="none" fill-rule="evenodd">
        <g id="cats" stroke="#58595B">
            <g id="Page-1" transform="translate(12.000000, 7.000000)">
                <path d="M14.95,3.9381 L14.95,3.9381 C14.85,3.2381 15.35,1.1381 15.35,1.1381 C15.35,0.1381 14.55,0.8381 14.55,0.8381 L13.25,2.5381 C12.85,2.3381 12.45,2.2381 11.95,2.2381 C11.45,2.2381 10.85,2.3381 10.35,2.4381 L9.05,0.7381 C9.05,0.7381 8.25,0.0381 8.25,1.0381 C8.25,1.0381 8.65,2.9381 8.65,3.7381 C8.25,4.6381 8.75,5.8381 8.95,6.7381 C8.95,6.7381 5.75,8.8381 3.95,10.4381 C2.65,11.6381 0.55,14.2381 0.55,17.4381 C0.55,17.4381 0.55,20.5381 0.65,21.4381 C0.65,21.4381 0.05,23.9381 1.25,25.0381 C2.45,26.2381 4.95,27.6381 9.55,24.4381 C9.55,24.4381 9.75,23.9381 8.85,24.2381 C7.95,24.5381 2.75,26.3381 2.95,22.5381 L10.75,22.5381 C10.75,22.5381 11.25,22.3381 10.95,21.5381 C10.85,21.1381 10.65,21.1381 10.15,21.1381 L9.35,21.1381 L11.15,19.2381 L12.25,21.2381 C12.25,21.2381 12.85,22.4381 13.05,22.5381 C13.25,22.7381 14.05,22.7381 14.35,22.5381 C14.65,22.3381 14.85,21.5381 14.75,21.2381 C14.55,20.9381 13.95,20.8381 13.95,20.8381 L12.85,14.6381 C12.85,14.6381 14.95,11.3381 14.45,7.3381 C14.35,7.2381 15.75,5.7381 14.95,3.9381 Z" id="Stroke-1"></path>
                <path d="M11.1502,4.838 C11.1502,5.038 10.7502,5.238 10.4502,5.238 C10.1502,5.238 9.8502,4.838 9.8502,4.638 C9.8502,4.438 10.2502,4.238 10.5492,4.238 C10.9502,4.238 11.1502,4.638 11.1502,4.838 Z" id="Stroke-3"></path>
                <path d="M12.5496,4.838 C12.5496,5.038 12.9496,5.238 13.2496,5.238 C13.5496,5.238 13.8506,4.838 13.8506,4.638 C13.8506,4.438 13.4496,4.238 13.1506,4.238 C12.7496,4.238 12.5496,4.638 12.5496,4.838 Z" id="Stroke-5"></path>
                <path d="M6.1502,13.1383 C6.1502,13.1383 10.4502,13.5383 11.1502,19.2383" id="Stroke-7"></path>
            </g>
        </g>
    </g>
</svg>