<?xml version="1.0" encoding="UTF-8" standalone="no"?>
<svg width="40px" height="40px" viewBox="0 0 40 40" version="1.1" xmlns="http://www.w3.org/2000/svg" xmlns:xlink="http://www.w3.org/1999/xlink">
    <!-- Generator: Sketch 45.1 (43504) - http://www.bohemiancoding.com/sketch -->
    <title>cleaning</title>
    <desc>Created with Sketch.</desc>
    <defs></defs>
    <g id="Page-1" stroke="none" stroke-width="1" fill="none" fill-rule="evenodd">
        <g id="cleaning" stroke="#58595B">
            <g id="Page-1" transform="translate(11.000000, 5.000000)">
                <path d="M4.2998,14.8999 C4.2998,14.4999 4.5998,14.1999 4.9998,14.1999 L12.7998,14.1999 C13.1998,14.1999 13.4998,14.4999 13.4998,14.8999 L13.4998,16.5999 L4.2998,16.5999 L4.2998,14.8999 Z" id="Stroke-1"></path>
                <path d="M8.8999,0 L8.8999,14" id="Stroke-3"></path>
                <path d="M4.2998,16.5996 C4.2998,21.2006 0.4998,28.9006 0.4998,28.9006 C0.4998,29.4996 0.9998,29.9996 1.5998,29.9996 L3.4998,29.9996 C5.2998,27.5996 6.6998,23.4006 6.6998,23.4006 C6.8998,26.7006 6.4998,28.7996 5.9998,29.9996 L8.2998,29.9996 C8.8998,28.7006 9.7998,27.7006 9.7998,27.7006 L9.7998,29.9996 L12.4998,29.9996 C12.2998,28.9006 12.1998,27.4006 12.2998,25.4996 C12.2998,25.4996 13.0998,27.7996 14.1998,29.9996 L15.9998,29.9996 C16.5998,29.9996 17.0998,29.4996 17.0998,28.9006 C17.0998,28.9006 13.2998,21.2006 13.2998,16.5996" id="Stroke-5"></path>
            </g>
        </g>
    </g>
</svg>