<?xml version="1.0" encoding="UTF-8" standalone="no"?>
<svg width="40px" height="40px" viewBox="0 0 40 40" version="1.1" xmlns="http://www.w3.org/2000/svg" xmlns:xlink="http://www.w3.org/1999/xlink">
    <!-- Generator: Sketch 42 (36781) - http://www.bohemiancoding.com/sketch -->
    <title>CM detector</title>
    <desc>Created with Sketch.</desc>
    <defs></defs>
    <g id="Page-1" stroke="none" stroke-width="1" fill="none" fill-rule="evenodd">
        <g id="Listing-Expand" transform="translate(-288.000000, -1923.000000)">
            <g id="amenities" transform="translate(288.000000, 1406.000000)">
                <g id="CM-detector" transform="translate(0.000000, 517.000000)">
                    <rect id="13" fill="#FFFFFF" x="0" y="0" width="40" height="40"></rect>
                    <path d="M30.5,17.8393 L30.493,14.0983 C30.349,11.9583 25.708,10.2393 20,10.2393 C14.2,10.2393 9.5,12.0133 9.5,14.2013 L9.5,17.8393" id="Stroke-1" stroke="#464646"></path>
                    <path d="M12.6985,20.8681 C10.7255,20.0851 9.4995,18.9871 9.4995,17.7721 C9.4995,15.3931 14.2005,13.4651 19.9995,13.4651 C25.7985,13.4651 30.4995,15.3931 30.4995,17.7721 C30.4995,18.9621 29.3245,20.0391 27.4245,20.8181" id="Stroke-3" stroke="#464646"></path>
                    <path d="M12.6797,23.2079 L12.6797,19.7609 C12.6797,18.1019 15.9577,16.7569 20.0007,16.7569 C24.0427,16.7569 27.3207,18.1019 27.3207,19.7609 L27.3207,23.2079" id="Stroke-5" stroke="#464646"></path>
                    <path d="M20,20.2331 C15.957,20.2331 12.68,21.5781 12.68,23.2361 C12.68,24.8951 15.957,26.2391 20,26.2391 C24.043,26.2391 27.32,24.8951 27.32,23.2361 C27.32,21.5781 24.043,20.2331 20,20.2331 L20,20.2331 Z" id="Stroke-7" stroke="#464646"></path>
                    <path d="M20,22.2564 C18.681,22.2564 17.611,22.6954 17.611,23.2364 C17.611,23.7774 18.681,24.2164 20,24.2164 C21.319,24.2164 22.389,23.7774 22.389,23.2364 C22.389,22.6954 21.319,22.2564 20,22.2564 L20,22.2564 Z" id="Stroke-9" stroke="#464646"></path>
                    <path d="M16.0601,27.8336 C16.0321,27.8526 15.3721,28.3046 15.3721,28.8316 C15.3721,29.3416 15.9901,29.7916 16.0531,29.8366 C16.0551,29.8376 16.0551,29.8386 16.0571,29.8396 C16.0621,29.8436 16.6331,30.2436 16.6331,30.6766 C16.6331,31.1036 16.0671,31.4936 16.0581,31.4996" id="Stroke-11" stroke="#464646" stroke-linecap="round"></path>
                    <path d="M20.0573,27.8336 C20.0303,27.8526 19.3703,28.3046 19.3703,28.8316 C19.3703,29.3416 19.9883,29.7916 20.0503,29.8366 C20.0523,29.8376 20.0533,29.8386 20.0543,29.8396 C20.0603,29.8436 20.6303,30.2436 20.6303,30.6766 C20.6303,31.1036 20.0663,31.4936 20.0563,31.4996" id="Stroke-13" stroke="#464646" stroke-linecap="round"></path>
                    <path d="M24.056,27.8336 C24.028,27.8526 23.369,28.3046 23.369,28.8316 C23.369,29.3416 23.986,29.7916 24.049,29.8366 C24.051,29.8376 24.052,29.8386 24.053,29.8396 C24.058,29.8436 24.628,30.2436 24.628,30.6766 C24.628,31.1036 24.064,31.4936 24.055,31.4996" id="Stroke-15" stroke="#464646" stroke-linecap="round"></path>
                </g>
            </g>
        </g>
    </g>
</svg>