<?xml version="1.0" encoding="UTF-8" standalone="no"?>
<svg width="40px" height="40px" viewBox="0 0 40 40" version="1.1" xmlns="http://www.w3.org/2000/svg" xmlns:xlink="http://www.w3.org/1999/xlink">
    <!-- Generator: Sketch 45.1 (43504) - http://www.bohemiancoding.com/sketch -->
    <title>console</title>
    <desc>Created with Sketch.</desc>
    <defs></defs>
    <g id="Page-1" stroke="none" stroke-width="1" fill="none" fill-rule="evenodd">
        <g id="console" stroke="#58595B">
            <g id="Page-1" transform="translate(7.000000, 11.000000)">
                <path d="M23.7626,4.5069 C23.7626,4.5069 22.3626,0.3069 18.6616,0.5069 C18.6616,0.5069 17.5626,0.6069 16.2626,1.1069 L13.3626,1.2069" id="Stroke-1"></path>
                <path d="M3.3622,4.5069 C3.3622,4.5069 4.7622,0.3069 8.4622,0.5069 C8.4622,0.5069 9.5622,0.6069 10.8622,1.1069 L13.7622,1.2069" id="Stroke-3"></path>
                <path d="M13.3622,13.7071 L18.1622,13.7071 C18.1622,13.7071 18.7622,13.6061 19.6622,14.3071 C19.6622,14.3071 23.2622,18.5071 24.6622,18.1061 C24.6622,18.1061 26.2622,17.3071 26.5622,15.0071 C26.8622,12.7071 26.0622,9.2071 24.5622,6.0071 C24.5622,6.0071 23.7622,3.6071 21.8622,2.6071 C21.8622,2.6071 19.0622,1.3071 17.8622,2.4071 L15.9632,4.5071 L13.3622,4.5071" id="Stroke-5"></path>
                <path d="M13.7626,13.7071 L8.9626,13.7071 C8.9626,13.7071 8.3626,13.6061 7.4626,14.3071 C7.4626,14.3071 3.8626,18.5071 2.4626,18.1061 C2.4626,18.1061 0.8626,17.3071 0.5626,15.0071 C0.2626,12.7071 1.0626,9.2071 2.5626,6.0071 C2.5626,6.0071 3.3626,3.6071 5.2626,2.6071 C5.2626,2.6071 8.0626,1.3071 9.2626,2.4071 L11.1626,4.5071 L13.7626,4.5071" id="Stroke-7"></path>
                <path d="M13.8622,1.2071 C14.6352,1.2071 15.2622,1.8331 15.2622,2.6071 C15.2622,3.3801 14.6352,4.0071 13.8622,4.0071 C13.0892,4.0071 12.4622,3.3801 12.4622,2.6071 C12.4622,1.8331 13.0892,1.2071 13.8622,1.2071 Z" id="Stroke-9"></path>
                <path d="M15.5624,6.9068 C15.6724,6.9068 15.7624,6.9968 15.7624,7.1068 C15.7624,7.2178 15.6724,7.3068 15.5624,7.3068 C15.4524,7.3068 15.3624,7.2178 15.3624,7.1068 C15.3624,6.9968 15.4524,6.9068 15.5624,6.9068 Z" id="Stroke-11"></path>
                <path d="M11.5624,6.9068 C11.6724,6.9068 11.7624,6.9968 11.7624,7.1068 C11.7624,7.2178 11.6724,7.3068 11.5624,7.3068 C11.4524,7.3068 11.3624,7.2178 11.3624,7.1068 C11.3624,6.9968 11.4524,6.9068 11.5624,6.9068 Z" id="Stroke-13"></path>
                <path d="M16.4628,9.3067 C17.2348,9.3067 17.8618,9.9337 17.8618,10.7067 C17.8618,11.4807 17.2348,12.1067 16.4628,12.1067 C15.6898,12.1067 15.0628,11.4807 15.0628,10.7067 C15.0628,9.9337 15.6898,9.3067 16.4628,9.3067 Z" id="Stroke-15"></path>
                <path d="M11.0624,9.3067 C11.8354,9.3067 12.4624,9.9337 12.4624,10.7067 C12.4624,11.4807 11.8354,12.1067 11.0624,12.1067 C10.2894,12.1067 9.6624,11.4807 9.6624,10.7067 C9.6624,9.9337 10.2894,9.3067 11.0624,9.3067 Z" id="Stroke-17"></path>
                <path d="M7.1625,4.7071 C7.9355,4.7071 8.5625,5.3331 8.5625,6.1071 C8.5625,6.8801 7.9355,7.5071 7.1625,7.5071 C6.3895,7.5071 5.7625,6.8801 5.7625,6.1071 C5.7625,5.3331 6.3895,4.7071 7.1625,4.7071 Z" id="Stroke-19"></path>
                <path d="M19.5624,4.9068 C19.6724,4.9068 19.7624,4.9968 19.7624,5.1068 C19.7624,5.2178 19.6724,5.3068 19.5624,5.3068 C19.4524,5.3068 19.3624,5.2178 19.3624,5.1068 C19.3624,4.9968 19.4524,4.9068 19.5624,4.9068 Z" id="Stroke-21"></path>
                <path d="M19.5624,6.9068 C19.6724,6.9068 19.7624,6.9968 19.7624,7.1068 C19.7624,7.2178 19.6724,7.3068 19.5624,7.3068 C19.4524,7.3068 19.3624,7.2178 19.3624,7.1068 C19.3624,6.9968 19.4524,6.9068 19.5624,6.9068 Z" id="Stroke-23"></path>
                <path d="M20.5624,5.9068 C20.6724,5.9068 20.7624,5.9968 20.7624,6.1068 C20.7624,6.2178 20.6724,6.3068 20.5624,6.3068 C20.4524,6.3068 20.3624,6.2178 20.3624,6.1068 C20.3624,5.9968 20.4524,5.9068 20.5624,5.9068 Z" id="Stroke-25"></path>
                <path d="M18.5624,5.9068 C18.6724,5.9068 18.7624,5.9968 18.7624,6.1068 C18.7624,6.2178 18.6724,6.3068 18.5624,6.3068 C18.4524,6.3068 18.3624,6.2178 18.3624,6.1068 C18.3624,5.9968 18.4524,5.9068 18.5624,5.9068 Z" id="Stroke-27"></path>
            </g>
        </g>
    </g>
</svg>