<?xml version="1.0" encoding="UTF-8" standalone="no"?>
<svg width="40px" height="40px" viewBox="0 0 40 40" version="1.1" xmlns="http://www.w3.org/2000/svg" xmlns:xlink="http://www.w3.org/1999/xlink">
    <!-- Generator: Sketch 45.1 (43504) - http://www.bohemiancoding.com/sketch -->
    <title>dishwasher</title>
    <desc>Created with Sketch.</desc>
    <defs>
        <polygon id="path-1" points="0 19.2 23 19.2 23 -3.55271368e-15 0 -3.55271368e-15"></polygon>
    </defs>
    <g id="Page-1" stroke="none" stroke-width="1" fill="none" fill-rule="evenodd">
        <g id="dishwasher">
            <g id="Page-1" transform="translate(9.000000, 10.000000)">
                <path d="M1.3999,4.7002 L1.3999,2.5002 C1.3999,1.4002 2.2999,0.5002 3.3999,0.5002 L19.6999,0.5002 C20.7999,0.5002 21.6999,1.4002 21.6999,2.5002 L21.6999,4.7002 L1.3999,4.7002 Z" id="Stroke-1" stroke="#58595B"></path>
                <path d="M15.7002,2.2002 L7.3002,2.2002 C6.4002,2.2002 5.6002,2.5002 5.6002,3.0002 L5.6002,3.1002 L17.4002,3.1002 L17.4002,3.0002 C17.4002,2.5002 16.5992,2.2002 15.7002,2.2002" id="Fill-3" fill="#58595B"></path>
                <mask id="mask-2" fill="white">
                    <use xlink:href="#path-1"></use>
                </mask>
                <g id="Clip-6"></g>
                <polygon id="Stroke-5" stroke="#58595B" mask="url(#mask-2)" points="1.4 15.5 21.7 15.5 21.7 4.8 1.4 4.8"></polygon>
                <path d="M4.3999,7 L10.4999,13" id="Stroke-7" stroke="#58595B" mask="url(#mask-2)"></path>
                <path d="M18.5996,7 L12.4996,13" id="Stroke-8" stroke="#58595B" mask="url(#mask-2)"></path>
                <path d="M22.5,16.5 C22.5,17.7 21.5,18.7 20.3,18.7 L2.7,18.7 C1.5,18.7 0.5,17.7 0.5,16.5 L0.5,15.4 L22.5,15.4 L22.5,16.5 Z" id="Stroke-9" stroke="#58595B" mask="url(#mask-2)"></path>
            </g>
        </g>
    </g>
</svg>