<?xml version="1.0" encoding="UTF-8" standalone="no"?>
<svg width="40px" height="40px" viewBox="0 0 40 40" version="1.1" xmlns="http://www.w3.org/2000/svg" xmlns:xlink="http://www.w3.org/1999/xlink">
    <!-- Generator: Sketch 45.1 (43504) - http://www.bohemiancoding.com/sketch -->
    <title>dishes</title>
    <desc>Created with Sketch.</desc>
    <defs></defs>
    <g id="Page-1" stroke="none" stroke-width="1" fill="none" fill-rule="evenodd">
        <g id="dishes" stroke="#58595B">
            <g id="Page-1" transform="translate(11.000000, 7.000000)">
                <path d="M12.7453,24.9362 L6.8453,11.6362 C7.0453,9.6362 6.2453,6.6362 5.5453,4.7362 C4.3453,1.8352 1.5453,0.2362 0.6453,0.5362 C0.6453,0.5362 1.8453,3.8352 3.0453,6.7362 C4.2453,9.6362 5.9453,13.5362 5.9453,13.5362 L10.3463,25.6352 C10.4453,25.9362 11.1453,26.0362 11.8463,25.8352 C12.4453,25.6352 12.8463,25.2362 12.7453,24.9362 Z" id="Stroke-1"></path>
                <path d="M7.1456,17.236 L3.9456,24.836 C3.8456,25.135 4.2456,25.635 4.9456,25.836 C5.6456,26.036 6.3456,25.936 6.4456,25.635 L8.2456,20.336" id="Stroke-3"></path>
                <path d="M8.2453,14.736 L10.1453,10.236 C8.2453,9.436 8.2453,7.936 9.1453,5.336 L9.1453,5.236 L15.5453,7.136 C15.5453,7.236 15.5453,7.236 15.4453,7.336 C14.4453,9.836 13.4453,10.936 11.5453,10.736 L9.3453,17.336" id="Stroke-5"></path>
                <path d="M9.1456,5.236 L10.9456,0.536" id="Stroke-7"></path>
                <path d="M11.2453,5.736 L13.0453,1.036" id="Stroke-9"></path>
                <path d="M13.3458,6.4357 L15.1458,1.8357" id="Stroke-11"></path>
                <path d="M15.5451,7.1359 L17.3461,2.4359" id="Stroke-13"></path>
            </g>
        </g>
    </g>
</svg>