<?xml version="1.0" encoding="UTF-8" standalone="no"?>
<svg width="40px" height="40px" viewBox="0 0 40 40" version="1.1" xmlns="http://www.w3.org/2000/svg" xmlns:xlink="http://www.w3.org/1999/xlink">
    <!-- Generator: Sketch 45.1 (43504) - http://www.bohemiancoding.com/sketch -->
    <title>dogs</title>
    <desc>Created with Sketch.</desc>
    <defs></defs>
    <g id="Page-1" stroke="none" stroke-width="1" fill="none" fill-rule="evenodd">
        <g id="dogs" stroke="#58595B">
            <g id="Page-1" transform="translate(5.000000, 9.000000)">
                <path d="M7.3144,18.7447 L8.2144,22.0447 C8.2144,22.0447 8.2144,22.1437 8.3144,22.2447 C8.4144,22.3447 8.5144,22.2447 8.5144,22.2447 L10.7144,22.1437 C10.6144,20.8447 9.5144,21.2447 9.5144,21.2447 L9.3144,19.0447 C11.2144,17.3447 12.0144,15.5447 12.4144,14.4447" id="Stroke-1"></path>
                <path d="M19.0146,15.2447 C20.0146,16.9447 20.0146,20.1437 20.0146,21.1437 L20.0146,21.5447 C20.1146,21.6437 20.3146,21.6437 20.3146,21.6437 L21.8146,21.8447 C22.4146,20.8447 21.0146,20.4447 21.0146,20.4447 L21.5146,16.8447" id="Stroke-3"></path>
                <path d="M29.8144,3.5445 C29.6144,3.0445 27.1144,2.6445 27.1144,2.6445 C26.3144,2.1445 26.9154,1.4445 25.3144,0.6445 C24.7144,0.3445 23.4154,0.5445 22.9154,0.9445 C22.0144,1.6445 21.5144,2.7445 21.2144,4.0445 C20.6144,6.3445 20.5144,6.9445 19.5144,7.3445 C16.4154,8.6445 13.7144,7.7445 11.2144,7.6445 C9.7144,7.6445 7.8144,8.0445 6.6144,8.8445 C6.2144,9.1445 5.9144,9.4445 5.7144,9.8445 C5.0144,10.5445 4.1144,11.4445 3.6144,11.6445 C2.8144,11.9445 1.5144,11.8445 0.9144,12.4445 C0.9144,12.4445 2.6144,13.0445 3.6144,12.6445 C4.4144,12.3445 5.3144,11.7445 5.5144,11.5445 C5.8144,13.1445 6.5144,15.6445 6.5144,15.6445 C6.4144,16.6445 5.1144,17.7445 4.5144,18.1445 C4.3144,18.2445 4.3144,18.2445 4.3144,18.3445 C4.3144,18.4445 4.2144,18.6445 4.2144,18.6445 L4.2144,22.0445 C4.2144,22.0445 4.2144,22.1445 4.3144,22.2445 C4.4144,22.3445 4.5144,22.3445 4.5144,22.3445 L6.6144,22.4445 C6.8144,21.1445 5.7144,21.3445 5.7144,21.3445 L6.1144,19.5445 C9.7144,17.5445 10.8144,14.8445 10.8144,14.8445 C10.8144,14.8445 13.1144,14.5445 14.8144,14.7445 C17.1144,15.1445 20.5144,15.3445 20.5144,15.3445 C22.1144,16.6445 22.7144,20.3445 22.9154,21.4445 C22.9154,21.5445 22.9154,21.7445 23.0144,21.8445 C23.1144,21.9445 23.4154,21.9445 23.4154,21.9445 L24.9154,21.9445 C25.3144,20.9445 23.9154,20.7445 23.9154,20.7445 L23.7144,14.0445 C24.4154,13.1445 24.7144,10.6445 24.8144,9.9445 C24.8144,9.2445 25.3144,8.9445 25.9154,7.3445 C26.5144,5.5445 27.0144,5.6445 27.0144,5.6445 C27.0144,5.6445 28.1144,5.6445 28.4154,5.5445 C29.6144,5.3445 30.0144,4.0445 29.8144,3.5445 Z" id="Stroke-5"></path>
                <path d="M23.8144,1.7447 C23.6144,1.9447 22.1144,4.2447 22.2144,4.5447 C22.3144,4.8447 24.2144,6.4447 24.6144,6.1447 C25.0144,5.8447 24.8144,4.2447 24.8144,4.2447" id="Stroke-7"></path>
                <path d="M19.7148,11.6446 C19.7148,11.7446 19.4148,12.8446 19.5148,13.2446 C19.6138,13.6446 20.8148,15.5446 20.8148,15.5446" id="Stroke-9"></path>
            </g>
        </g>
    </g>
</svg>