<?xml version="1.0" encoding="UTF-8" standalone="no"?>
<svg width="40px" height="40px" viewBox="0 0 40 40" version="1.1" xmlns="http://www.w3.org/2000/svg" xmlns:xlink="http://www.w3.org/1999/xlink">
    <!-- Generator: Sketch 42 (36781) - http://www.bohemiancoding.com/sketch -->
    <title>dryer</title>
    <desc>Created with Sketch.</desc>
    <defs></defs>
    <g id="Page-1" stroke="none" stroke-width="1" fill="none" fill-rule="evenodd">
        <g id="Listing-Expand" transform="translate(-918.000000, -1483.000000)">
            <g id="amenities" transform="translate(288.000000, 1406.000000)">
                <g id="dryer" transform="translate(630.000000, 77.000000)">
                    <rect id="2" fill="#FFFFFF" x="0" y="0" width="40" height="40"></rect>
                    <path d="M30.0375,32.4145 C30.0375,33.0135 29.5505,33.4995 28.9505,33.4995 L10.5855,33.4995 C9.9865,33.4995 9.4995,33.0135 9.4995,32.4145 L9.4995,8.5855 C9.4995,7.9865 9.9865,7.4995 10.5855,7.4995 L28.9505,7.4995 C29.5505,7.4995 30.0375,7.9865 30.0375,8.5855 L30.0375,32.4145 L30.0375,32.4145 Z" id="Stroke-1" stroke="#464646"></path>
                    <path d="M9.3505,14.486 L30.0225,14.486" id="Stroke-3" stroke="#464646"></path>
                    <path d="M26.731,11.875 C26.731,11.6 26.956,11.376 27.231,11.376 C27.506,11.376 27.73,11.6 27.73,11.875 C27.73,12.152 27.506,12.374 27.231,12.374 C26.956,12.374 26.731,12.152 26.731,11.875 L26.731,11.875 Z" id="Stroke-5" stroke="#464646"></path>
                    <path d="M23.7125,11.875 C23.7125,11.6 23.9355,11.376 24.2125,11.376 C24.4865,11.376 24.7115,11.6 24.7115,11.875 C24.7115,12.152 24.4865,12.374 24.2125,12.374 C23.9355,12.374 23.7125,12.152 23.7125,11.875 L23.7125,11.875 Z" id="Stroke-7" stroke="#464646"></path>
                    <path d="M14.786,11.875 C14.786,11.6 15.011,11.376 15.286,11.376 C15.561,11.376 15.785,11.6 15.785,11.875 C15.785,12.152 15.561,12.374 15.286,12.374 C15.011,12.374 14.786,12.152 14.786,11.875 L14.786,11.875 Z" id="Stroke-9" stroke="#464646"></path>
                    <path d="M11.7675,11.875 C11.7675,11.6 11.9905,11.376 12.2675,11.376 C12.5415,11.376 12.7665,11.6 12.7665,11.875 C12.7665,12.152 12.5415,12.374 12.2675,12.374 C11.9905,12.374 11.7675,12.152 11.7675,11.875 L11.7675,11.875 Z" id="Stroke-11" stroke="#464646"></path>
                    <path d="M18.1865,10.993 C18.1865,10.165 18.8575,9.493 19.6875,9.493 C20.5125,9.493 21.1865,10.165 21.1865,10.993 C21.1865,11.824 20.5125,12.493 19.6875,12.493 C18.8575,12.493 18.1865,11.824 18.1865,10.993 L18.1865,10.993 Z" id="Stroke-13" stroke="#464646"></path>
                    <path d="M26.165,29.8979 L16.861,29.8979 C14.935,29.8979 13.373,28.3359 13.373,26.4089 L13.373,21.7569 C13.373,19.8309 14.935,18.2689 16.861,18.2689 L26.165,18.2689 L26.165,29.8979 L26.165,29.8979 Z" id="Stroke-15" stroke="#464646"></path>
                    <path d="M15.785,22.023 L15.785,26.143" id="Stroke-17" stroke="#464646"></path>
                </g>
            </g>
        </g>
    </g>
</svg>