<?xml version="1.0" encoding="UTF-8" standalone="no"?>
<svg width="40px" height="40px" viewBox="0 0 40 40" version="1.1" xmlns="http://www.w3.org/2000/svg" xmlns:xlink="http://www.w3.org/1999/xlink">
    <!-- Generator: Sketch 42 (36781) - http://www.bohemiancoding.com/sketch -->
    <title>elevator</title>
    <desc>Created with Sketch.</desc>
    <defs></defs>
    <g id="Page-1" stroke="none" stroke-width="1" fill="none" fill-rule="evenodd">
        <g id="Listing-Expand" transform="translate(-288.000000, -1443.000000)">
            <g id="amenities" transform="translate(288.000000, 1406.000000)">
                <g id="elevator" transform="translate(0.000000, 37.000000)">
                    <rect id="1" fill="#FFFFFF" x="0" y="0" width="40" height="40"></rect>
                    <path d="M20.5,27.1961 L17.385,24.1091" id="Stroke-1" stroke="#464646" stroke-linecap="round"></path>
                    <path d="M23.6149,24.11 L20.4999,27.196" id="Stroke-2" stroke="#464646" stroke-linecap="round"></path>
                    <path d="M20.5,14.1092 L23.615,17.1962" id="Stroke-3" stroke="#464646" stroke-linecap="round"></path>
                    <path d="M17.3851,17.1953 L20.5001,14.1093" id="Stroke-4" stroke="#464646" stroke-linecap="round"></path>
                    <path d="M27.5,29.5 C27.5,30.605 26.605,31.5 25.5,31.5 L15.5,31.5 C14.395,31.5 13.5,30.605 13.5,29.5 L13.5,11.5 C13.5,10.395 14.395,9.5 15.5,9.5 L25.5,9.5 C26.605,9.5 27.5,10.395 27.5,11.5 L27.5,29.5 L27.5,29.5 Z" id="Stroke-5" stroke="#464646" stroke-linecap="round"></path>
                    <path d="M13.5,20.5 L27.5,20.5" id="Stroke-7" stroke="#464646" stroke-linecap="round"></path>
                </g>
            </g>
        </g>
    </g>
</svg>