<?xml version="1.0" encoding="UTF-8" standalone="no"?>
<svg width="40px" height="40px" viewBox="0 0 40 40" version="1.1" xmlns="http://www.w3.org/2000/svg" xmlns:xlink="http://www.w3.org/1999/xlink">
    <!-- Generator: Sketch 42 (36781) - http://www.bohemiancoding.com/sketch -->
    <title>essentials</title>
    <desc>Created with Sketch.</desc>
    <defs></defs>
    <g id="Page-1" stroke="none" stroke-width="1" fill="none" fill-rule="evenodd">
        <g id="Listing-Expand" transform="translate(-918.000000, -1643.000000)">
            <g id="amenities" transform="translate(288.000000, 1406.000000)">
                <g id="essentials" transform="translate(630.000000, 237.000000)">
                    <rect id="6" fill="#FFFFFF" x="0" y="0" width="40" height="40"></rect>
                    <path d="M17.1857,15.2886 C17.1857,12.7716 15.5507,10.7316 13.5357,10.7316 C11.5207,10.7316 9.8867,12.7726 9.8867,15.2896 L9.8867,15.7936 C9.8867,15.8036 9.8837,15.8136 9.8837,15.8226 L9.8837,21.9116 C9.8837,22.2066 10.0757,22.4466 10.3127,22.4466 L17.1857,22.4466 L17.1857,15.2886 L17.1857,15.2886 L17.1857,15.2886 Z" id="Stroke-1" stroke="#464646"></path>
                    <path d="M28.7867,12.6717 L31.3407,12.6287" id="Stroke-3" stroke="#464646"></path>
                    <path d="M8.7469,12.6289 L16.2489,12.6289" id="Stroke-5" stroke="#464646"></path>
                    <path d="M32.3763,13.6557 C32.9973,13.6557 33.5003,13.1547 33.5003,12.5357 C33.5003,11.9177 32.9973,11.4157 32.3763,11.4157 C31.7553,11.4157 31.2523,11.9177 31.2523,12.5357 C31.2523,13.1547 31.7553,13.6557 32.3763,13.6557 L32.3763,13.6557 Z" id="Stroke-7" stroke="#464646"></path>
                    <path d="M7.6232,13.6548 C8.2432,13.6548 8.7462,13.1538 8.7462,12.5358 C8.7462,11.9168 8.2432,11.4158 7.6232,11.4158 C7.0032,11.4158 6.5002,11.9168 6.5002,12.5358 C6.5002,13.1538 7.0032,13.6548 7.6232,13.6548 L7.6232,13.6548 Z" id="Stroke-9" stroke="#464646"></path>
                    <path d="M29.4499,15.2896 C29.4499,12.7726 27.8149,10.7316 25.7999,10.7316 L13.5359,10.7316 C15.5519,10.7316 17.1859,12.7726 17.1859,15.2896 C17.1859,15.3466 17.1819,18.1126 17.1799,23.3936 C17.1729,23.4326 17.1679,23.4726 17.1679,23.5146 L17.1679,29.9656 C17.1679,30.2606 17.3599,30.4996 17.5959,30.4996 L29.0179,30.4996 C29.2539,30.4996 29.4459,30.2606 29.4459,29.9656 L29.4499,15.2896 L29.4499,15.2896 Z" id="Stroke-11" stroke="#464646"></path>
                </g>
            </g>
        </g>
    </g>
</svg>