<?xml version="1.0" encoding="UTF-8" standalone="no"?>
<svg width="40px" height="40px" viewBox="0 0 40 40" version="1.1" xmlns="http://www.w3.org/2000/svg" xmlns:xlink="http://www.w3.org/1999/xlink">
    <!-- Generator: Sketch 42 (36781) - http://www.bohemiancoding.com/sketch -->
    <title>events</title>
    <desc>Created with Sketch.</desc>
    <defs></defs>
    <g id="Page-1" stroke="none" stroke-width="1" fill="none" fill-rule="evenodd">
        <g id="Listing-Expand" transform="translate(-288.000000, -1643.000000)">
            <g id="amenities" transform="translate(288.000000, 1406.000000)">
                <g id="events" transform="translate(0.000000, 237.000000)">
                    <rect id="6" fill="#FFFFFF" x="0" y="0" width="40" height="40"></rect>
                    <polyline id="Stroke-1" stroke="#464646" points="23.4305 13.2775 22.0825 19.2725 18.5675 14.1485"></polyline>
                    <polyline id="Stroke-2" stroke="#464646" points="29.3301 10.2935 30.2351 16.2185 25.1061 12.6515"></polyline>
                    <polyline id="Stroke-4" stroke="#464646" points="16.2507 14.1712 12.9737 19.3912 11.3087 13.4282"></polyline>
                    <g id="Group-15" transform="translate(8.000000, 10.000000)" stroke="#464646">
                        <path d="M1.7005,3.0641 C3.0545,3.4811 5.4915,4.0921 8.4005,4.1911 C8.6605,4.2001 8.9265,4.2051 9.1995,4.2051 C12.7355,4.2051 17.3615,3.3951 21.5385,0.1051" id="Stroke-5"></path>
                        <polyline id="Stroke-7" points="13.6403 14.9692 9.5803 19.6652 8.9093 13.4872"></polyline>
                        <polyline id="Stroke-9" points="20.316 15.1292 18.22 20.7632 15.372 15.2202"></polyline>
                        <polyline id="Stroke-11" points="6.8035 12.5592 1.4325 15.7282 2.8025 9.6642"></polyline>
                        <path d="M0.384,7.2852 C0.913,7.9202 3.098,10.3892 6.639,12.4182 C9.244,13.9102 12.972,15.3702 17.585,15.3702 C19.526,15.3702 21.627,15.1072 23.865,14.4822" id="Stroke-13"></path>
                    </g>
                </g>
            </g>
        </g>
    </g>
</svg>