<?xml version="1.0" encoding="UTF-8" standalone="no"?>
<svg width="40px" height="40px" viewBox="0 0 40 40" version="1.1" xmlns="http://www.w3.org/2000/svg" xmlns:xlink="http://www.w3.org/1999/xlink">
    <!-- Generator: Sketch 42 (36781) - http://www.bohemiancoding.com/sketch -->
    <title>family friendly</title>
    <desc>Created with Sketch.</desc>
    <defs></defs>
    <g id="Page-1" stroke="none" stroke-width="1" fill="none" fill-rule="evenodd">
        <g id="Listing-Expand" transform="translate(-288.000000, -1563.000000)">
            <g id="amenities" transform="translate(288.000000, 1406.000000)">
                <g id="family-friendly" transform="translate(0.000000, 157.000000)">
                    <rect id="4" fill="#FFFFFF" x="0" y="0" width="40" height="40"></rect>
                    <path d="M22.3633,30.7315 C21.6253,30.9135 20.8243,30.9945 19.9863,30.9945 C19.1423,30.9945 18.3363,30.9125 17.5943,30.7275" id="Stroke-1" stroke="#464646"></path>
                    <path d="M12.8886,13.0874 C12.5166,12.8834 12.2166,12.5894 12.0286,12.2114 C11.4196,10.9904 12.2166,9.3674 13.8106,8.5844 C15.3506,7.8284 17.0706,8.1354 17.7336,9.2604" id="Stroke-3" stroke="#464646"></path>
                    <path d="M27.0732,13.091 C27.4492,12.887 27.7512,12.591 27.9402,12.211 C28.5502,10.99 27.7522,9.367 26.1592,8.584 C24.6022,7.82 22.8622,8.142 22.2152,9.296" id="Stroke-5" stroke="#464646"></path>
                    <path d="M20.0454,20.2272 C24.0994,20.2272 27.3864,17.7082 27.3864,14.6002 C27.3864,11.4932 24.0994,8.9742 20.0454,8.9742 C15.9914,8.9742 12.7044,11.4932 12.7044,14.6002 C12.7044,17.7082 15.9914,20.2272 20.0454,20.2272 L20.0454,20.2272 Z" id="Stroke-7" stroke="#464646"></path>
                    <path d="M17.1602,13.6529 C17.6052,13.6529 17.9662,13.3259 17.9662,12.9229 C17.9662,12.5189 17.6052,12.1919 17.1602,12.1919 C16.7152,12.1919 16.3542,12.5189 16.3542,12.9229 C16.3542,13.3259 16.7152,13.6529 17.1602,13.6529 L17.1602,13.6529 Z" id="Stroke-9" stroke="#464646"></path>
                    <path d="M22.8377,13.6529 C23.2827,13.6529 23.6447,13.3259 23.6447,12.9229 C23.6447,12.5189 23.2827,12.1919 22.8377,12.1919 C22.3927,12.1919 22.0307,12.5189 22.0307,12.9229 C22.0307,13.3259 22.3927,13.6529 22.8377,13.6529 L22.8377,13.6529 Z" id="Stroke-11" stroke="#464646"></path>
                    <path d="M20.0081,20.0245 C22.2501,20.0245 24.0681,18.6315 24.0681,16.9125 C24.0681,15.1945 22.2501,13.8005 20.0081,13.8005 C17.7661,13.8005 15.9481,15.1945 15.9481,16.9125 C15.9481,18.6315 17.7661,20.0245 20.0081,20.0245 L20.0081,20.0245 Z" id="Stroke-13" stroke="#464646"></path>
                    <path d="M21.6544,15.3942 C21.6544,16.1012 19.9864,16.9312 19.9864,16.9312 C19.9864,16.9312 18.3184,16.1012 18.3184,15.3942 C18.3184,14.6882 19.0644,14.3742 19.9864,14.3742 C20.9074,14.3742 21.6544,14.6882 21.6544,15.3942 L21.6544,15.3942 Z" id="Stroke-15" stroke="#464646"></path>
                    <path d="M17.8662,17.8974 C17.8892,17.9224 18.0992,18.1514 18.3792,18.2334 C18.4652,18.2584 18.6032,18.2794 18.7662,18.2794 C19.0542,18.2794 19.4202,18.2144 19.7122,17.9984 C19.8042,17.9304 19.9022,17.8354 19.9872,17.7064 C20.0722,17.8344 20.1702,17.9304 20.2622,17.9984 C20.5552,18.2144 20.9202,18.2794 21.2082,18.2794 C21.3712,18.2794 21.5092,18.2584 21.5952,18.2334 C21.8752,18.1514 22.0842,17.9234 22.1082,17.8974" id="Stroke-17" stroke="#464646"></path>
                    <path d="M14.7527,19.6498 C14.4917,19.7228 11.1077,21.0558 10.5967,22.5158 C10.2487,23.5078 10.8727,24.5268 11.9677,24.7858 C13.0617,25.0438 14.2217,24.4468 14.5587,23.4508 C14.5947,23.3428 14.6137,19.8628 14.7527,19.6498 L14.7527,19.6498 Z" id="Stroke-19" stroke="#464646"></path>
                    <path d="M25.2833,19.6393 C25.5443,19.7133 28.9503,21.0773 29.4153,22.5283 C29.7353,23.5283 29.1223,24.5393 28.0253,24.7913 C26.9293,25.0423 25.7733,24.4383 25.4453,23.4413 C25.4093,23.3323 25.4203,19.8533 25.2833,19.6393 L25.2833,19.6393 Z" id="Stroke-21" stroke="#464646"></path>
                    <path d="M18.629,27.3084 C19.148,27.7844 19.55,28.1084 19.632,28.1744 C19.76,28.2954 19.927,28.3614 20.105,28.3614 C20.283,28.3614 20.45,28.2954 20.579,28.1744 C20.636,28.1274 20.851,27.9544 21.154,27.6894" id="Stroke-23" stroke="#464646"></path>
                    <path d="M18.841,27.9629 C19.24,29.8609 17.72,31.0109 15.902,31.3879 C14.083,31.7639 12.655,31.2239 12.256,29.3249 C11.857,27.4279 12.638,24.8899 14.457,24.5139 C16.275,24.1369 18.442,26.0649 18.841,27.9629 L18.841,27.9629 Z" id="Stroke-25" stroke="#464646"></path>
                    <path d="M21.092,27.9629 C20.693,29.8609 22.213,31.0109 24.031,31.3879 C25.85,31.7639 27.278,31.2239 27.677,29.3249 C28.076,27.4279 27.295,24.8899 25.476,24.5139 C23.658,24.1369 21.491,26.0649 21.092,27.9629 L21.092,27.9629 Z" id="Stroke-27" stroke="#464646"></path>
                </g>
            </g>
        </g>
    </g>
</svg>