<?xml version="1.0" encoding="UTF-8" standalone="no"?>
<svg width="40px" height="40px" viewBox="0 0 40 40" version="1.1" xmlns="http://www.w3.org/2000/svg" xmlns:xlink="http://www.w3.org/1999/xlink">
    <!-- Generator: Sketch 42 (36781) - http://www.bohemiancoding.com/sketch -->
    <title>fire extinguisher</title>
    <desc>Created with Sketch.</desc>
    <defs>
        <polygon id="path-1" points="10 2.942 30 2.942 30 32 10 32"></polygon>
    </defs>
    <g id="Page-1" stroke="none" stroke-width="1" fill="none" fill-rule="evenodd">
        <g id="Listing-Expand" transform="translate(-288.000000, -1963.000000)">
            <g id="amenities" transform="translate(288.000000, 1406.000000)">
                <g id="fire-extinguisher" transform="translate(0.000000, 557.000000)">
                    <rect id="14" fill="#FFFFFF" x="0" y="0" width="40" height="40"></rect>
                    <path d="M18.8275,9.5356 L17.7175,9.5356 C15.1895,9.5356 13.1665,11.5886 13.1665,14.1756 L13.1665,31.4996 L23.4125,31.4996 L23.4125,14.1756 C23.4125,11.5886 21.3835,9.5356 18.8275,9.5356 L18.8275,9.5356 Z" id="Stroke-1" stroke="#464646" stroke-linejoin="round"></path>
                    <mask id="mask-2" fill="white">
                        <use xlink:href="#path-1"></use>
                    </mask>
                    <g id="Clip-4"></g>
                    <polygon id="Stroke-3" stroke="#464646" stroke-linejoin="round" mask="url(#mask-2)" points="23.413 25.914 17.718 25.914 17.718 15.682 23.413 15.682"></polygon>
                    <polygon id="Stroke-5" stroke="#464646" stroke-linejoin="round" mask="url(#mask-2)" points="19.721 9.536 16.858 9.536 16.858 5.471 19.721 5.471"></polygon>
                    <polygon id="Stroke-6" stroke="#464646" stroke-linejoin="round" mask="url(#mask-2)" points="29.5 10.3609 23.413 7.7809 23.413 6.0199 29.5 3.4419"></polygon>
                    <path d="M23.149,6.9028 L19.721,6.9028" id="Stroke-7" stroke="#464646" stroke-linejoin="round" mask="url(#mask-2)"></path>
                    <path d="M10.5,10.8254 L10.5,10.0474 C10.5,8.2904 11.874,6.9024 13.604,6.9024 L16.755,6.9024" id="Stroke-8" stroke="#464646" stroke-linejoin="round" mask="url(#mask-2)"></path>
                </g>
            </g>
        </g>
    </g>
</svg>