<?xml version="1.0" encoding="UTF-8" standalone="no"?>
<svg width="40px" height="40px" viewBox="0 0 40 40" version="1.1" xmlns="http://www.w3.org/2000/svg" xmlns:xlink="http://www.w3.org/1999/xlink">
    <!-- Generator: Sketch 42 (36781) - http://www.bohemiancoding.com/sketch -->
    <title>fireplace</title>
    <desc>Created with Sketch.</desc>
    <defs></defs>
    <g id="Page-1" stroke="none" stroke-width="1" fill="none" fill-rule="evenodd">
        <g id="Listing-Expand" transform="translate(-603.000000, -1523.000000)">
            <g id="amenities" transform="translate(288.000000, 1406.000000)">
                <g id="fireplace" transform="translate(315.000000, 117.000000)">
                    <rect id="3" fill="#FFFFFF" x="0" y="0" width="40" height="40"></rect>
                    <polygon id="Stroke-1" stroke="#464646" points="8.5 30.5 31.5 30.5 31.5 10.92 8.5 10.92"></polygon>
                    <polygon id="Stroke-3" stroke="#464646" points="11.517 28.427 28.526 28.427 28.526 12.916 11.517 12.916"></polygon>
                    <polyline id="Stroke-4" stroke="#464646" points="22.6249 24.021 26.3399 24.021 27.9909 28.427 12.0089 28.427 13.6599 24.021 17.4179 24.021"></polyline>
                    <path d="M13.8686,12.8107 L13.8686,24.0207" id="Stroke-5" stroke="#464646"></path>
                    <path d="M26.3117,12.8107 L26.3117,24.0207" id="Stroke-6" stroke="#464646"></path>
                    <path d="M20.4288,25.3908 L23.4538,27.0868" id="Stroke-7" stroke="#464646"></path>
                    <path d="M21.7026,24.9946 L24.3626,24.9946" id="Stroke-8" stroke="#464646"></path>
                    <path d="M15.6372,24.9946 L18.2032,24.9946" id="Stroke-9" stroke="#464646"></path>
                    <path d="M19.4991,25.4309 L16.5461,27.0869" id="Stroke-10" stroke="#464646"></path>
                    <path d="M18.4971,18.5232 C18.9871,17.2582 18.8931,15.3482 18.8931,15.3482 C18.8931,15.3482 20.1951,15.8902 21.0931,17.3772 C21.9391,18.7752 21.1401,20.8582 21.1401,20.8582 C21.7631,20.2402 21.9931,19.6222 22.0141,18.8802 C22.7131,19.9892 23.2541,21.2582 23.2541,22.5442 C23.2541,24.1342 21.7971,25.4222 19.9991,25.4232 C18.2021,25.4222 16.7451,24.1342 16.7451,22.5442 C16.7451,20.9952 17.9201,20.0142 18.4971,18.5232 L18.4971,18.5232 Z" id="Stroke-11" stroke="#464646"></path>
                </g>
            </g>
        </g>
    </g>
</svg>