<?xml version="1.0" encoding="UTF-8" standalone="no"?>
<svg width="40px" height="40px" viewBox="0 0 40 40" version="1.1" xmlns="http://www.w3.org/2000/svg" xmlns:xlink="http://www.w3.org/1999/xlink">
    <!-- Generator: Sketch 45.1 (43504) - http://www.bohemiancoding.com/sketch -->
    <title>garden</title>
    <desc>Created with Sketch.</desc>
    <defs></defs>
    <g id="Page-1" stroke="none" stroke-width="1" fill="none" fill-rule="evenodd">
        <g id="garden" stroke="#58595B">
            <g id="Page-1" transform="translate(12.000000, 7.000000)">
                <path d="M7.7002,13.3999 L7.7002,26.6999" id="Stroke-1"></path>
                <path d="M12.9004,7.7998 L13.2994,7.7998 C13.7994,7.5998 13.2004,7.1998 13.5994,6.7998 C14.9004,5.4998 15.0004,3.9998 14.0994,3.1998 C13.2994,2.3998 11.9004,2.3998 10.5994,3.4998 L10.5994,3.3998 C10.5994,1.5998 9.5994,0.4998 8.4004,0.4998 C7.2004,0.4998 6.2994,1.4998 6.2004,3.0998 C5.0004,1.8998 3.5004,1.7998 2.6004,2.6998 C1.7994,3.5998 1.9004,5.0998 3.2004,6.2998 C3.2994,6.3998 3.4004,6.3998 3.4004,6.4998 C1.6004,6.4998 0.5004,7.4998 0.5004,8.7998 C0.5004,9.9998 1.6004,10.9998 3.5004,10.9998 L3.9004,10.9998 C3.7994,11.1998 3.7004,11.2998 3.7004,11.4998 C3.0004,13.1998 3.5004,14.5998 4.7004,15.0998 C5.7994,15.5998 7.1004,14.9008 7.7994,13.2998 C8.5004,14.7998 9.7994,15.4008 10.9004,14.9008 C11.7994,14.4998 12.2994,13.4998 12.0994,12.1998 C12.2994,12.1998 12.5004,12.2998 12.7004,12.2998 C14.5004,12.3998 15.7004,11.4998 15.7994,10.2998 C15.7004,8.9998 14.7004,7.8998 12.9004,7.7998 Z" id="Stroke-3"></path>
                <path d="M7.8999,6.6001 C8.7289,6.6001 9.3999,7.2711 9.3999,8.1001 C9.3999,8.9281 8.7289,9.6001 7.8999,9.6001 C7.0719,9.6001 6.3999,8.9281 6.3999,8.1001 C6.3999,7.2711 7.0719,6.6001 7.8999,6.6001 Z" id="Stroke-5"></path>
            </g>
        </g>
    </g>
</svg>