<?xml version="1.0" encoding="UTF-8" standalone="no"?>
<svg width="40px" height="40px" viewBox="0 0 40 40" version="1.1" xmlns="http://www.w3.org/2000/svg" xmlns:xlink="http://www.w3.org/1999/xlink">
    <!-- Generator: Sketch 42 (36781) - http://www.bohemiancoding.com/sketch -->
    <title>gym</title>
    <desc>Created with Sketch.</desc>
    <defs></defs>
    <g id="Page-1" stroke="none" stroke-width="1" fill="none" fill-rule="evenodd">
        <g id="Listing-Expand" transform="translate(-603.000000, -1603.000000)">
            <g id="amenities" transform="translate(288.000000, 1406.000000)">
                <g id="gym" transform="translate(315.000000, 197.000000)">
                    <rect id="5" fill="#FFFFFF" x="0" y="0" width="40" height="40"></rect>
                    <path d="M32.2687,21.2143 C32.9487,21.2143 33.4997,20.6663 33.4997,19.9913 C33.4997,19.3153 32.9487,18.7683 32.2687,18.7683" id="Stroke-1" stroke="#464646"></path>
                    <path d="M12.2045,21.2143 L27.8685,21.2143" id="Stroke-3" stroke="#464646"></path>
                    <path d="M7.7313,18.7687 C7.0513,18.7687 6.5003,19.3157 6.5003,19.9917 C6.5003,20.6667 7.0513,21.2147 7.7313,21.2147" id="Stroke-5" stroke="#464646"></path>
                    <path d="M27.8091,18.7687 L12.1461,18.7687" id="Stroke-7" stroke="#464646"></path>
                    <path d="M31.3004,15.8957 C30.7954,15.8957 30.3864,16.0437 30.3514,16.5137 L30.3514,15.5667 C30.3514,14.8907 29.7994,14.6877 29.1204,14.6877 C28.4394,14.6877 27.8884,14.8907 27.8884,15.5667 L27.8884,24.6187 C27.8884,25.2957 28.4404,25.4997 29.1204,25.4997 C29.7994,25.4997 30.3514,25.2957 30.3514,24.6187 L30.3514,23.6737 C30.3864,24.1437 30.7954,24.2917 31.3004,24.2917 C31.8274,24.2917 32.2564,24.1337 32.2564,23.6097 L32.2564,16.5777 C32.2564,16.0527 31.8274,15.8957 31.3004,15.8957 L31.3004,15.8957 Z" id="Stroke-9" stroke="#464646"></path>
                    <path d="M10.894,14.6875 C10.214,14.6875 9.663,14.8905 9.663,15.5665 L9.663,16.5095 C9.625,16.0415 9.217,15.8955 8.714,15.8955 C8.185,15.8955 7.758,16.0525 7.758,16.5775 L7.758,23.6095 C7.758,24.1335 8.185,24.2905 8.714,24.2905 C9.217,24.2905 9.625,24.1435 9.663,23.6775 L9.663,24.6185 C9.663,25.2955 10.214,25.4995 10.894,25.4995 C11.574,25.4995 12.125,25.2955 12.125,24.6185 L12.125,15.5655 C12.125,14.8915 11.574,14.6875 10.894,14.6875 L10.894,14.6875 Z" id="Stroke-11" stroke="#464646"></path>
                </g>
            </g>
        </g>
    </g>
</svg>