<?xml version="1.0" encoding="UTF-8" standalone="no"?>
<svg width="40px" height="40px" viewBox="0 0 40 40" version="1.1" xmlns="http://www.w3.org/2000/svg" xmlns:xlink="http://www.w3.org/1999/xlink">
    <!-- Generator: Sketch 42 (36781) - http://www.bohemiancoding.com/sketch -->
    <title>hot tub</title>
    <desc>Created with Sketch.</desc>
    <defs></defs>
    <g id="Page-1" stroke="none" stroke-width="1" fill="none" fill-rule="evenodd">
        <g id="Listing-Expand" transform="translate(-603.000000, -1683.000000)">
            <g id="amenities" transform="translate(288.000000, 1406.000000)">
                <g id="hot-tub" transform="translate(315.000000, 277.000000)">
                    <rect id="7" fill="#FFFFFF" x="0" y="0" width="40" height="40"></rect>
                    <path d="M9.5,14.3388 C9.5,14.0868 9.705,13.8828 9.958,13.8828 L30.041,13.8828 C30.295,13.8828 30.5,14.0868 30.5,14.3388 L30.5,15.6588 C30.5,15.9098 30.295,16.1128 30.041,16.1128 L9.958,16.1128 C9.705,16.1128 9.5,15.9098 9.5,15.6588 L9.5,14.3388 L9.5,14.3388 Z" id="Stroke-1" stroke="#464646"></path>
                    <path d="M29.4944,16.1903 L29.4944,25.0443 C29.4944,25.2963 29.2884,25.5003 29.0344,25.5003 L10.9644,25.5003 C10.7104,25.5003 10.5044,25.2963 10.5044,25.0443 L10.5044,16.1903" id="Stroke-3" stroke="#464646"></path>
                    <path d="M25.6964,25.2161 L25.6964,16.1901" id="Stroke-5" stroke="#464646"></path>
                    <path d="M14.3023,16.1903 L14.3023,25.2163" id="Stroke-7" stroke="#464646"></path>
                    <path d="M18.1004,25.2161 L18.1004,16.1901" id="Stroke-9" stroke="#464646"></path>
                    <path d="M21.8984,16.1903 L21.8984,25.2163" id="Stroke-11" stroke="#464646"></path>
                    <path d="M16.0601,5.5 C16.0321,5.531 15.3721,6.27 15.3721,7.133 C15.3721,7.968 15.9901,8.704 16.0531,8.777 C16.0551,8.779 16.0551,8.781 16.0571,8.783 C16.0621,8.789 16.6331,9.444 16.6331,10.152 C16.6331,10.851 16.0671,11.49 16.0581,11.5" id="Stroke-13" stroke="#464646" stroke-linecap="round"></path>
                    <path d="M20.0573,5.5 C20.0303,5.531 19.3703,6.27 19.3703,7.133 C19.3703,7.968 19.9883,8.704 20.0503,8.777 C20.0523,8.779 20.0533,8.781 20.0543,8.783 C20.0603,8.789 20.6303,9.444 20.6303,10.152 C20.6303,10.851 20.0663,11.49 20.0563,11.5" id="Stroke-15" stroke="#464646" stroke-linecap="round"></path>
                    <path d="M24.056,5.5 C24.028,5.531 23.369,6.27 23.369,7.133 C23.369,7.968 23.986,8.704 24.049,8.777 C24.051,8.779 24.052,8.781 24.053,8.783 C24.058,8.789 24.628,9.444 24.628,10.152 C24.628,10.851 24.064,11.49 24.055,11.5" id="Stroke-17" stroke="#464646" stroke-linecap="round"></path>
                </g>
            </g>
        </g>
    </g>
</svg>