<?xml version="1.0" encoding="UTF-8" standalone="no"?>
<svg width="40px" height="40px" viewBox="0 0 40 40" version="1.1" xmlns="http://www.w3.org/2000/svg" xmlns:xlink="http://www.w3.org/1999/xlink">
    <!-- Generator: Sketch 45.1 (43504) - http://www.bohemiancoding.com/sketch -->
    <title>hot_water</title>
    <desc>Created with Sketch.</desc>
    <defs></defs>
    <g id="Page-1" stroke="none" stroke-width="1" fill="none" fill-rule="evenodd">
        <g id="hot_water" stroke="#58595B">
            <g id="Page-1" transform="translate(11.000000, 9.000000)">
                <path d="M16.7998,12.2002 L1.7998,12.2002 C1.0998,12.2002 0.4998,11.6002 0.4998,10.9002 L0.4998,10.3002 C0.4998,7.5002 2.7998,5.2002 5.5998,5.2002 L12.9998,5.2002 C15.7998,5.2002 18.0998,7.5002 18.0998,10.3002 L18.0998,11.0002 C18.0998,11.7002 17.4998,12.2002 16.7998,12.2002 Z" id="Stroke-1" stroke-linecap="square" stroke-linejoin="round"></path>
                <path d="M7.2002,3.3999 L11.4002,3.3999" id="Stroke-3" stroke-linecap="square" stroke-linejoin="round"></path>
                <path d="M9.2998,0.5 L9.2998,2" id="Stroke-5" stroke-linecap="square" stroke-linejoin="round"></path>
                <path d="M4.3999,16.0996 L3.3999,14.7996 L2.3999,16.0996 C2.1999,16.2996 2.0999,16.5996 2.0999,16.9006 C2.0999,17.5996 2.6999,18.2006 3.3999,18.2006 C4.0999,18.2006 4.6999,17.5996 4.6999,16.9006 C4.6999,16.4996 4.4999,16.2996 4.3999,16.0996 Z" id="Stroke-7" stroke-linecap="round"></path>
                <path d="M10.2998,16.0996 L9.2998,14.7996 L8.2998,16.0996 C8.0998,16.2996 7.9998,16.4996 7.9998,16.7996 C7.9998,17.4996 8.5998,18.0996 9.2998,18.0996 C9.9998,18.0996 10.5998,17.4996 10.5998,16.7996 C10.4998,16.4996 10.4008,16.2996 10.2998,16.0996 Z" id="Stroke-9" stroke-linecap="round"></path>
                <path d="M16.2002,16.0996 L15.2002,14.7996 L14.2002,16.0996 C14.0002,16.2996 13.9002,16.5996 13.9002,16.9006 C13.9002,17.5996 14.5002,18.2006 15.2002,18.2006 C15.9002,18.2006 16.5002,17.5996 16.5002,16.9006 C16.4002,16.4996 16.3002,16.2996 16.2002,16.0996 Z" id="Stroke-11" stroke-linecap="round"></path>
                <path d="M7.2998,20.4004 L6.2998,19.0994 L5.2998,20.4004 C5.0998,20.5994 4.9998,20.9004 4.9998,21.2004 C4.9998,21.9004 5.5998,22.5004 6.2998,22.5004 C6.9998,22.5004 7.5998,21.9004 7.5998,21.2004 C7.5998,20.9004 7.4998,20.7004 7.2998,20.4004 Z" id="Stroke-13" stroke-linecap="round"></path>
                <path d="M13.2002,20.4004 L12.2002,19.0994 L11.2002,20.4004 C11.0002,20.5994 10.9002,20.9004 10.9002,21.2004 C10.9002,21.9004 11.5002,22.5004 12.2002,22.5004 C12.9002,22.5004 13.5002,21.9004 13.5002,21.2004 C13.5002,20.9004 13.4002,20.7004 13.2002,20.4004 Z" id="Stroke-15" stroke-linecap="round"></path>
            </g>
        </g>
    </g>
</svg>