<?xml version="1.0" encoding="UTF-8" standalone="no"?>
<svg width="40px" height="40px" viewBox="0 0 40 40" version="1.1" xmlns="http://www.w3.org/2000/svg" xmlns:xlink="http://www.w3.org/1999/xlink">
    <!-- Generator: Sketch 45.1 (43504) - http://www.bohemiancoding.com/sketch -->
    <title>internet</title>
    <desc>Created with Sketch.</desc>
    <defs></defs>
    <g id="Page-1" stroke="none" stroke-width="1" fill="none" fill-rule="evenodd">
        <g id="internet" stroke="#58595B">
            <g id="Page-1" transform="translate(9.000000, 9.000000)">
                <path d="M11.0002,0.5002 C16.7992,0.5002 21.5002,5.2012 21.5002,11.0002 C21.5002,16.7992 16.7992,21.5002 11.0002,21.5002 C5.2012,21.5002 0.5002,16.7992 0.5002,11.0002 C0.5002,5.2012 5.2012,0.5002 11.0002,0.5002 Z" id="Stroke-1" stroke-linecap="round"></path>
                <path d="M11.0002,0.5002 C13.9272,0.5002 16.3002,5.2012 16.3002,11.0002 C16.3002,16.7992 13.9272,21.5002 11.0002,21.5002 C8.0732,21.5002 5.7002,16.7992 5.7002,11.0002 C5.7002,5.2012 8.0732,0.5002 11.0002,0.5002 Z" id="Stroke-3" stroke-linecap="round"></path>
                <path d="M2.9001,17.7004 C4.8001,16.5994 7.8001,15.8004 11.0001,15.8004 C14.2001,15.8004 17.1001,16.5004 19.1001,17.7004" id="Stroke-5"></path>
                <path d="M19.2004,4.1999 C17.3004,5.3999 14.3004,6.0999 11.0004,6.0999 C7.8004,6.1999 4.9004,5.3999 3.0004,4.2999" id="Stroke-7"></path>
                <path d="M0.5002,11.0002 L21.6002,11.0002" id="Stroke-9"></path>
                <path d="M11.0002,0.5002 L11.0002,21.5002" id="Stroke-11"></path>
            </g>
        </g>
    </g>
</svg>