<?xml version="1.0" encoding="UTF-8" standalone="no"?>
<svg width="40px" height="40px" viewBox="0 0 40 40" version="1.1" xmlns="http://www.w3.org/2000/svg" xmlns:xlink="http://www.w3.org/1999/xlink">
    <!-- Generator: Sketch 42 (36781) - http://www.bohemiancoding.com/sketch -->
    <title>iron</title>
    <desc>Created with Sketch.</desc>
    <defs></defs>
    <g id="Page-1" stroke="none" stroke-width="1" fill="none" fill-rule="evenodd">
        <g id="Listing-Expand" transform="translate(-918.000000, -1563.000000)">
            <g id="amenities" transform="translate(288.000000, 1406.000000)">
                <g id="iron" transform="translate(630.000000, 157.000000)">
                    <rect id="4" fill="#FFFFFF" x="0" y="0" width="40" height="40"></rect>
                    <path d="M7.6671,24.4137 C7.5061,24.6857 7.4601,24.8657 7.5351,25.0157 C7.7141,25.3687 8.5271,25.7847 9.1581,25.8747 C12.6671,26.3757 21.5131,26.6237 25.5591,26.4387 C25.5631,26.4387 28.2611,26.3717 28.2611,25.8097 C28.2611,25.5497 27.9821,25.2747 27.4881,24.9987" id="Stroke-1" stroke="#464646"></path>
                    <path d="M16.4998,15.6942 L16.4998,14.4522 C16.4998,14.4522 16.4638,13.7102 17.4608,13.4632 L20.8478,13.4632" id="Stroke-3" stroke="#464646"></path>
                    <path d="M7.643,24.3359 C7.518,24.0889 7.817,23.7779 8.315,23.0979 C10.573,20.0159 18.48,12.0919 27.816,12.0229 C28.126,12.0199 28.474,12.0379 28.67,12.1079 C28.891,12.1879 28.946,12.2229 29.11,12.5299 C29.945,14.0929 31.784,18.9999 32.369,21.3869 C32.557,22.1549 32.525,22.2669 32.387,22.4619 C32.131,22.8219 31.835,22.8379 31.158,22.9909 C30.461,23.1479 29.707,23.3369 28.724,23.7189 C27.736,24.1029 7.821,24.6899 7.643,24.3359 L7.643,24.3359 Z" id="Stroke-5" stroke="#464646"></path>
                    <path d="M26.1937,25.5011 C27.6907,25.4011 27.7357,24.1031 28.7247,23.7181" id="Stroke-7" stroke="#464646"></path>
                    <path d="M18.9856,16.5686 C21.1506,15.1056 23.8406,13.9366 26.7436,13.8796 C27.0736,13.8716 27.4756,14.0056 27.5736,14.2046 C27.9606,14.9876 28.2836,16.0426 28.4266,16.6826 C28.5386,17.1786 28.0846,17.6146 27.6496,17.7116 C27.2026,17.8126 22.3906,19.2396 19.2076,20.0276 C18.3136,20.2486 17.5166,19.6176 17.3566,18.8896 C17.1716,18.0536 17.7566,17.3996 18.9856,16.5686 L18.9856,16.5686 Z" id="Stroke-9" stroke="#464646"></path>
                    <path d="M23.3403,18.8652 L23.2103,17.9042 C23.1563,17.7132 22.9573,17.6022 22.7653,17.6552 L19.8173,18.4712 C19.6243,18.5252 19.5123,18.7222 19.5663,18.9122 L19.7123,19.8792" id="Stroke-11" stroke="#464646"></path>
                    <path d="M32.0846,20.3507 L14.6916,22.5527 C13.9056,22.7477 13.3156,23.2337 13.3156,23.2337 L12.3536,24.4277" id="Stroke-13" stroke="#464646"></path>
                </g>
            </g>
        </g>
    </g>
</svg>