<?xml version="1.0" encoding="UTF-8" standalone="no"?>
<svg width="40px" height="40px" viewBox="0 0 40 40" version="1.1" xmlns="http://www.w3.org/2000/svg" xmlns:xlink="http://www.w3.org/1999/xlink">
    <!-- Generator: Sketch 42 (36781) - http://www.bohemiancoding.com/sketch -->
    <title>keypad</title>
    <desc>Created with Sketch.</desc>
    <defs>
        <polygon id="path-1" points="8 9.704 32 9.704 32 31 8 31"></polygon>
    </defs>
    <g id="Page-1" stroke="none" stroke-width="1" fill="none" fill-rule="evenodd">
        <g id="Listing-Expand" transform="translate(-918.000000, -1603.000000)">
            <g id="amenities" transform="translate(288.000000, 1406.000000)">
                <g id="keypad" transform="translate(630.000000, 197.000000)">
                    <rect id="5" fill="#FFFFFF" x="0" y="0" width="40" height="40"></rect>
                    <path d="M31.5,28.6637 C31.5,29.8387 30.826,30.4997 29.625,30.4997 L10.375,30.4997 C9.174,30.4997 8.5,29.8397 8.5,28.6637 L8.5,12.0397 C8.5,10.8647 9.174,10.2037 10.375,10.2037 L29.625,10.2037 C30.826,10.2037 31.5,10.8647 31.5,12.0397 L31.5,28.6637 L31.5,28.6637 Z" id="Stroke-1" stroke="#464646"></path>
                    <mask id="mask-2" fill="white">
                        <use xlink:href="#path-1"></use>
                    </mask>
                    <g id="Clip-4"></g>
                    <polygon id="Stroke-3" stroke="#464646" mask="url(#mask-2)" points="10.483 28.158 29.517 28.158 29.517 12.545 10.483 12.545"></polygon>
                    <path d="M15.0966,17.0309 C15.0966,17.2779 14.8936,17.4779 14.6416,17.4779 L13.3166,17.4779 C13.0656,17.4779 12.8616,17.2779 12.8616,17.0309 L12.8616,15.7249 C12.8616,15.4779 13.0656,15.2779 13.3166,15.2779 L14.6416,15.2779 C14.8936,15.2779 15.0966,15.4779 15.0966,15.7249 L15.0966,17.0309 L15.0966,17.0309 Z" id="Stroke-5" stroke="#464646" mask="url(#mask-2)"></path>
                    <path d="M19.1099,17.0309 C19.1099,17.2779 18.9069,17.4779 18.6559,17.4779 L17.3299,17.4779 C17.0789,17.4779 16.8759,17.2779 16.8759,17.0309 L16.8759,15.7249 C16.8759,15.4779 17.0789,15.2779 17.3299,15.2779 L18.6559,15.2779 C18.9069,15.2779 19.1099,15.4779 19.1099,15.7249 L19.1099,17.0309 L19.1099,17.0309 Z" id="Stroke-6" stroke="#464646" mask="url(#mask-2)"></path>
                    <path d="M23.1242,17.0309 C23.1242,17.2779 22.9202,17.4779 22.6702,17.4779 L21.3442,17.4779 C21.0932,17.4779 20.8902,17.2779 20.8902,17.0309 L20.8902,15.7249 C20.8902,15.4779 21.0932,15.2779 21.3442,15.2779 L22.6702,15.2779 C22.9202,15.2779 23.1242,15.4779 23.1242,15.7249 L23.1242,17.0309 L23.1242,17.0309 Z" id="Stroke-7" stroke="#464646" mask="url(#mask-2)"></path>
                    <path d="M27.1379,17.0309 C27.1379,17.2779 26.9349,17.4779 26.6849,17.4779 L25.3589,17.4779 C25.1069,17.4779 24.9039,17.2779 24.9039,17.0309 L24.9039,15.7249 C24.9039,15.4779 25.1069,15.2779 25.3589,15.2779 L26.6849,15.2779 C26.9349,15.2779 27.1379,15.4779 27.1379,15.7249 L27.1379,17.0309 L27.1379,17.0309 Z" id="Stroke-8" stroke="#464646" mask="url(#mask-2)"></path>
                    <path d="M15.0966,21.0054 C15.0966,21.2514 14.8936,21.4524 14.6416,21.4524 L13.3166,21.4524 C13.0656,21.4524 12.8616,21.2514 12.8616,21.0054 L12.8616,19.6984 C12.8616,19.4524 13.0656,19.2514 13.3166,19.2514 L14.6416,19.2514 C14.8936,19.2514 15.0966,19.4524 15.0966,19.6984 L15.0966,21.0054 L15.0966,21.0054 Z" id="Stroke-9" stroke="#464646" mask="url(#mask-2)"></path>
                    <path d="M19.1099,21.0054 C19.1099,21.2514 18.9069,21.4524 18.6559,21.4524 L17.3299,21.4524 C17.0789,21.4524 16.8759,21.2514 16.8759,21.0054 L16.8759,19.6984 C16.8759,19.4524 17.0789,19.2514 17.3299,19.2514 L18.6559,19.2514 C18.9069,19.2514 19.1099,19.4524 19.1099,19.6984 L19.1099,21.0054 L19.1099,21.0054 Z" id="Stroke-10" stroke="#464646" mask="url(#mask-2)"></path>
                    <path d="M23.1242,21.0054 C23.1242,21.2514 22.9202,21.4524 22.6702,21.4524 L21.3442,21.4524 C21.0932,21.4524 20.8902,21.2514 20.8902,21.0054 L20.8902,19.6984 C20.8902,19.4524 21.0932,19.2514 21.3442,19.2514 L22.6702,19.2514 C22.9202,19.2514 23.1242,19.4524 23.1242,19.6984 L23.1242,21.0054 L23.1242,21.0054 Z" id="Stroke-11" stroke="#464646" mask="url(#mask-2)"></path>
                    <path d="M27.1379,21.0054 C27.1379,21.2514 26.9349,21.4524 26.6849,21.4524 L25.3589,21.4524 C25.1069,21.4524 24.9039,21.2514 24.9039,21.0054 L24.9039,19.6984 C24.9039,19.4524 25.1069,19.2514 25.3589,19.2514 L26.6849,19.2514 C26.9349,19.2514 27.1379,19.4524 27.1379,19.6984 L27.1379,21.0054 L27.1379,21.0054 Z" id="Stroke-12" stroke="#464646" mask="url(#mask-2)"></path>
                    <path d="M15.0966,24.9785 C15.0966,25.2255 14.8936,25.4255 14.6416,25.4255 L13.3166,25.4255 C13.0656,25.4255 12.8616,25.2255 12.8616,24.9785 L12.8616,23.6725 C12.8616,23.4255 13.0656,23.2255 13.3166,23.2255 L14.6416,23.2255 C14.8936,23.2255 15.0966,23.4255 15.0966,23.6725 L15.0966,24.9785 L15.0966,24.9785 Z" id="Stroke-13" stroke="#464646" mask="url(#mask-2)"></path>
                    <path d="M19.1099,24.9785 C19.1099,25.2255 18.9069,25.4255 18.6559,25.4255 L17.3299,25.4255 C17.0789,25.4255 16.8759,25.2255 16.8759,24.9785 L16.8759,23.6725 C16.8759,23.4255 17.0789,23.2255 17.3299,23.2255 L18.6559,23.2255 C18.9069,23.2255 19.1099,23.4255 19.1099,23.6725 L19.1099,24.9785 L19.1099,24.9785 Z" id="Stroke-14" stroke="#464646" mask="url(#mask-2)"></path>
                    <path d="M23.1242,24.9785 C23.1242,25.2255 22.9202,25.4255 22.6702,25.4255 L21.3442,25.4255 C21.0932,25.4255 20.8902,25.2255 20.8902,24.9785 L20.8902,23.6725 C20.8902,23.4255 21.0932,23.2255 21.3442,23.2255 L22.6702,23.2255 C22.9202,23.2255 23.1242,23.4255 23.1242,23.6725 L23.1242,24.9785 L23.1242,24.9785 Z" id="Stroke-15" stroke="#464646" mask="url(#mask-2)"></path>
                    <path d="M27.1379,24.9785 C27.1379,25.2255 26.9349,25.4255 26.6849,25.4255 L25.3589,25.4255 C25.1069,25.4255 24.9039,25.2255 24.9039,24.9785 L24.9039,23.6725 C24.9039,23.4255 25.1069,23.2255 25.3589,23.2255 L26.6849,23.2255 C26.9349,23.2255 27.1379,23.4255 27.1379,23.6725 L27.1379,24.9785 L27.1379,24.9785 Z" id="Stroke-16" stroke="#464646" mask="url(#mask-2)"></path>
                </g>
            </g>
        </g>
    </g>
</svg>