<?xml version="1.0" encoding="UTF-8" standalone="no"?>
<svg width="40px" height="40px" viewBox="0 0 40 40" version="1.1" xmlns="http://www.w3.org/2000/svg" xmlns:xlink="http://www.w3.org/1999/xlink">
    <!-- Generator: Sketch 42 (36781) - http://www.bohemiancoding.com/sketch -->
    <title>kitchen</title>
    <desc>Created with Sketch.</desc>
    <defs></defs>
    <g id="Page-1" stroke="none" stroke-width="1" fill="none" fill-rule="evenodd">
        <g id="Listing-Expand" transform="translate(-603.000000, -1723.000000)">
            <g id="amenities" transform="translate(288.000000, 1406.000000)">
                <g id="kitchen" transform="translate(315.000000, 317.000000)">
                    <rect id="8" fill="#FFFFFF" x="0" y="0" width="40" height="40"></rect>
                    <path d="M29.6621,14.7851 C31.2301,14.7851 32.5001,16.2161 32.5001,17.9801 C32.5001,19.7451 31.2301,21.1751 29.6621,21.1751" id="Stroke-1" stroke="#464646"></path>
                    <path d="M29.6621,16.4583 C30.4081,16.4583 31.0141,17.1403 31.0141,17.9803 C31.0141,18.8203 30.4091,19.5023 29.6621,19.5023" id="Stroke-3" stroke="#464646"></path>
                    <path d="M10.3379,21.1749 C8.7709,21.1749 7.4999,19.7439 7.4999,17.9799 C7.4999,16.2149 8.7709,14.7849 10.3379,14.7849" id="Stroke-5" stroke="#464646"></path>
                    <path d="M10.3379,19.5013 C9.5919,19.5013 8.9869,18.8193 8.9869,17.9803 C8.9869,17.1393 9.5909,16.4573 10.3379,16.4573" id="Stroke-7" stroke="#464646"></path>
                    <path d="M29.5349,14.5606 L29.5349,24.7506 C29.5349,25.4226 25.3379,26.4996 19.9319,26.4996 C14.5279,26.4996 10.4349,25.4226 10.4349,24.7506 L10.4349,14.5966" id="Stroke-9" stroke="#464646"></path>
                    <path d="M18.1595,10.3199 C18.1595,9.8229 18.9835,9.4199 20.0005,9.4199 C21.0165,9.4199 21.8405,9.8229 21.8405,10.3199" id="Stroke-11" stroke="#464646"></path>
                    <path d="M29.7371,14.5149 C29.7371,14.5149 24.9311,15.4539 19.9341,15.4539 C14.9371,15.4539 10.2331,14.5149 10.2331,14.5149 C10.2331,12.8619 14.5991,10.3199 19.9851,10.3199 C25.3711,10.3199 29.7371,12.8619 29.7371,14.5149 L29.7371,14.5149 Z" id="Stroke-13" stroke="#464646"></path>
                </g>
            </g>
        </g>
    </g>
</svg>