<?xml version="1.0" encoding="UTF-8" standalone="no"?>
<svg width="40px" height="40px" viewBox="0 0 40 40" version="1.1" xmlns="http://www.w3.org/2000/svg" xmlns:xlink="http://www.w3.org/1999/xlink">
    <!-- Generator: Sketch 42 (36781) - http://www.bohemiancoding.com/sketch -->
    <title>laptop</title>
    <desc>Created with Sketch.</desc>
    <defs></defs>
    <g id="Page-1" stroke="none" stroke-width="1" fill="none" fill-rule="evenodd">
        <g id="Listing-Expand" transform="translate(-288.000000, -1843.000000)">
            <g id="amenities" transform="translate(288.000000, 1406.000000)">
                <g id="laptop" transform="translate(0.000000, 437.000000)">
                    <rect id="11" fill="#FFFFFF" x="0" y="0" width="40" height="40"></rect>
                    <path id="Stroke-1" stroke="#464646" stroke-linecap="round" stroke-linejoin="round"></path>
                    <polygon id="Stroke-3" stroke="#464646" stroke-linecap="round" stroke-linejoin="round" points="28.844 23.18 10.844 23.18 10.844 13.18 28.844 13.18"></polygon>
                    <g id="Group-8" transform="translate(6.000000, 10.000000)" stroke="#464646" stroke-linecap="round" stroke-linejoin="round">
                        <path d="M24.8439,2.86 C24.8439,1.755 23.9489,0.86 22.8439,0.86 L4.8439,0.86 C3.7389,0.86 2.8439,1.755 2.8439,2.86 L2.8439,15.5 L24.8439,15.5 L24.8439,2.86 L24.8439,2.86 Z" id="Stroke-4"></path>
                        <path d="M4.0469,15.5 L0.4999,15.5 L0.4999,15.958 C0.4999,17.362 1.4299,18.5 2.5769,18.5 L25.4229,18.5 C26.5699,18.5 27.4999,17.362 27.4999,15.958 L27.4999,15.5 L24.5779,15.5" id="Stroke-6"></path>
                    </g>
                </g>
            </g>
        </g>
    </g>
</svg>