<?xml version="1.0" encoding="UTF-8" standalone="no"?>
<svg width="40px" height="40px" viewBox="0 0 40 40" version="1.1" xmlns="http://www.w3.org/2000/svg" xmlns:xlink="http://www.w3.org/1999/xlink">
    <!-- Generator: Sketch 42 (36781) - http://www.bohemiancoding.com/sketch -->
    <title>lockbox</title>
    <desc>Created with Sketch.</desc>
    <defs></defs>
    <g id="Page-1" stroke="none" stroke-width="1" fill="none" fill-rule="evenodd">
        <g id="Listing-Expand" transform="translate(-918.000000, -1803.000000)">
            <g id="amenities" transform="translate(288.000000, 1406.000000)">
                <g id="lockbox" transform="translate(630.000000, 397.000000)">
                    <rect id="10" fill="#FFFFFF" x="0" y="0" width="40" height="40"></rect>
                    <path d="M27.4544,21 L27.4544,24.5 L29.6614,24.5 C29.7094,24.5 29.7514,24.514 29.7964,24.522 L29.7964,20.978 C29.7514,20.986 29.7094,21 29.6614,21 L27.4544,21 L27.4544,21 Z" id="Stroke-1" stroke="#464646"></path>
                    <path d="M27.4544,26.5 L27.4544,28.517 L11.8414,28.517 L11.8414,11.483 L27.4544,11.483 L27.4544,13.5 L29.6614,13.5 C29.7094,13.5 29.7514,13.514 29.7964,13.522 L29.7964,10.375 C29.7964,9.174 29.1354,8.5 27.9604,8.5 L11.3364,8.5 C10.1604,8.5 9.5004,9.174 9.5004,10.375 L9.5004,29.625 C9.5004,30.826 10.1614,31.5 11.3364,31.5 L27.9604,31.5 C29.1354,31.5 29.7964,30.826 29.7964,29.625 L29.7964,26.478 C29.7514,26.486 29.7094,26.5 29.6614,26.5 L27.4544,26.5 L27.4544,26.5 Z" id="Stroke-3" stroke="#464646"></path>
                    <path d="M29.661,15.5 L27.454,15.5 L27.454,19 L29.661,19 C29.709,19 29.751,19.014 29.796,19.022 L29.796,15.478 C29.751,15.486 29.709,15.5 29.661,15.5 L29.661,15.5 Z" id="Stroke-5" stroke="#464646"></path>
                    <path d="M26.2704,14.9741 L26.2704,14.0261 C26.2704,13.7351 26.5664,13.5001 26.9314,13.5001 L27.4544,13.5001 L27.4544,11.4831 L11.8414,11.4831 L11.8414,28.5171 L27.4544,28.5171 L27.4544,26.5001 L26.9314,26.5001 C26.5664,26.5001 26.2704,26.2651 26.2704,25.9741 L26.2704,25.0261 C26.2704,24.7351 26.5664,24.5001 26.9314,24.5001 L27.4544,24.5001 L27.4544,21.0001 L26.9314,21.0001 C26.5664,21.0001 26.2704,20.7651 26.2704,20.4741 L26.2704,19.5261 C26.2704,19.2351 26.5664,19.0001 26.9314,19.0001 L27.4544,19.0001 L27.4544,15.5001 L26.9314,15.5001 C26.5664,15.5001 26.2704,15.2651 26.2704,14.9741 L26.2704,14.9741 Z" id="Stroke-7" stroke="#464646"></path>
                    <path d="M29.7963,15.4783 C30.0943,15.4273 30.3223,15.2263 30.3223,14.9743 L30.3223,14.0263 C30.3223,13.7733 30.0943,13.5723 29.7963,13.5213" id="Stroke-9" stroke="#464646"></path>
                    <path d="M29.7963,13.5217 C29.7513,13.5137 29.7093,13.4997 29.6613,13.4997 L27.4543,13.4997" id="Stroke-11" stroke="#464646"></path>
                    <path d="M27.4544,15.5 L29.6614,15.5 C29.7094,15.5 29.7514,15.486 29.7964,15.478" id="Stroke-13" stroke="#464646"></path>
                    <path d="M27.4544,13.5 L26.9314,13.5 C26.5664,13.5 26.2704,13.736 26.2704,14.026 L26.2704,14.974 C26.2704,15.265 26.5664,15.5 26.9314,15.5 L27.4544,15.5" id="Stroke-15" stroke="#464646"></path>
                    <path d="M29.7963,20.9783 C30.0943,20.9273 30.3223,20.7263 30.3223,20.4743 L30.3223,19.5263 C30.3223,19.2733 30.0943,19.0723 29.7963,19.0213" id="Stroke-17" stroke="#464646"></path>
                    <path d="M29.7963,19.0217 C29.7513,19.0137 29.7093,18.9997 29.6613,18.9997 L27.4543,18.9997" id="Stroke-19" stroke="#464646"></path>
                    <path d="M27.4544,21 L29.6614,21 C29.7094,21 29.7514,20.986 29.7964,20.978" id="Stroke-21" stroke="#464646"></path>
                    <path d="M27.4544,19 L26.9314,19 C26.5664,19 26.2704,19.236 26.2704,19.526 L26.2704,20.474 C26.2704,20.765 26.5664,21 26.9314,21 L27.4544,21" id="Stroke-23" stroke="#464646"></path>
                    <path d="M29.7963,26.4783 C30.0943,26.4273 30.3223,26.2263 30.3223,25.9743 L30.3223,25.0263 C30.3223,24.7733 30.0943,24.5723 29.7963,24.5213" id="Stroke-25" stroke="#464646"></path>
                    <path d="M29.7963,24.5217 C29.7513,24.5137 29.7093,24.4997 29.6613,24.4997 L27.4543,24.4997" id="Stroke-27" stroke="#464646"></path>
                    <path d="M27.4544,26.5 L29.6614,26.5 C29.7094,26.5 29.7514,26.486 29.7964,26.478" id="Stroke-29" stroke="#464646"></path>
                    <path d="M27.4544,24.5 L26.9314,24.5 C26.5664,24.5 26.2704,24.736 26.2704,25.026 L26.2704,25.974 C26.2704,26.265 26.5664,26.5 26.9314,26.5 L27.4544,26.5" id="Stroke-31" stroke="#464646"></path>
                    <path d="M19.9111,24.6286 C22.4711,24.6286 24.5471,22.5566 24.5471,19.9996 C24.5471,17.4436 22.4711,15.3716 19.9111,15.3716 C17.3511,15.3716 15.2751,17.4436 15.2751,19.9996 C15.2751,22.5566 17.3511,24.6286 19.9111,24.6286 L19.9111,24.6286 Z" id="Stroke-33" stroke="#464646"></path>
                    <path d="M19.8066,17.66 C19.1886,17.66 18.6316,17.903 18.2136,18.292 L15.4936,18.385 L17.4636,20 C17.4636,21.292 18.5116,22.34 19.8066,22.34 C21.1016,22.34 22.1496,21.291 22.1496,20 C22.1506,18.706 21.1026,17.66 19.8066,17.66 L19.8066,17.66 Z" id="Stroke-35" stroke="#464646"></path>
                </g>
            </g>
        </g>
    </g>
</svg>