<?xml version="1.0" encoding="UTF-8" standalone="no"?>
<svg width="40px" height="40px" viewBox="0 0 40 40" version="1.1" xmlns="http://www.w3.org/2000/svg" xmlns:xlink="http://www.w3.org/1999/xlink">
    <!-- Generator: Sketch 42 (36781) - http://www.bohemiancoding.com/sketch -->
    <title>locker</title>
    <desc>Created with Sketch.</desc>
    <defs></defs>
    <g id="Page-1" stroke="none" stroke-width="1" fill="none" fill-rule="evenodd">
        <g id="Listing-Expand" transform="translate(-603.000000, -1963.000000)">
            <g id="amenities" transform="translate(288.000000, 1406.000000)">
                <g id="locker" transform="translate(315.000000, 557.000000)">
                    <rect id="14" fill="#FFFFFF" x="0" y="0" width="40" height="40"></rect>
                    <path d="M27.4947,16.4654 C27.4687,12.2874 24.1257,8.5004 20.0067,8.5004 C15.8957,8.5004 12.5597,12.2704 12.5187,16.4364 C12.5077,16.4524 12.4997,16.4684 12.4997,16.4854 L12.4997,25.9074 C12.4997,26.7864 13.2327,27.5004 14.1367,27.5004 L25.8627,27.5004 C26.7677,27.5004 27.4997,26.7864 27.4997,25.9074 L27.4997,16.4854 C27.4997,16.4784 27.4957,16.4724 27.4947,16.4654 L27.4947,16.4654 Z M14.4767,16.0214 C14.7207,13.1004 17.1027,10.4674 20.0057,10.4674 C22.9097,10.4674 25.2917,13.1014 25.5347,16.0234 C22.6647,15.7614 17.3537,15.7604 14.4767,16.0214 L14.4767,16.0214 Z" id="Stroke-1" stroke="#464646"></path>
                    <path d="M21.7338,20.3028 C21.7338,19.3848 20.9858,18.6408 20.0618,18.6408 C19.1398,18.6408 18.3918,19.3848 18.3918,20.3028 C18.3918,21.0028 18.8268,21.6008 19.4428,21.8458 L19.4428,23.3788 C19.4428,23.7038 19.7088,23.9678 20.0348,23.9678 C20.3618,23.9678 20.6268,23.7038 20.6268,23.3788 L20.6268,21.8658 C21.2718,21.6358 21.7338,21.0238 21.7338,20.3028 L21.7338,20.3028 Z" id="Stroke-3" stroke="#464646"></path>
                </g>
            </g>
        </g>
    </g>
</svg>