<?xml version="1.0" encoding="UTF-8" standalone="no"?>
<svg width="40px" height="40px" viewBox="0 0 40 40" version="1.1" xmlns="http://www.w3.org/2000/svg" xmlns:xlink="http://www.w3.org/1999/xlink">
    <!-- Generator: Sketch 45.1 (43504) - http://www.bohemiancoding.com/sketch -->
    <title>long_term</title>
    <desc>Created with Sketch.</desc>
    <defs></defs>
    <g id="Page-1" stroke="none" stroke-width="1" fill="none" fill-rule="evenodd">
        <g id="long_term" stroke="#58595B">
            <g id="Page-1" transform="translate(9.000000, 10.000000)">
                <path d="M22.5996,7.2998 L22.5996,18.7998 C22.5996,19.4998 22.0996,19.9998 21.4006,19.9998 L1.7006,19.9998 C0.9996,19.9998 0.4996,19.4998 0.4996,18.7998 L0.4996,7.2998" id="Stroke-1"></path>
                <path d="M17.2998,9.8999 L20.4008,9.8999" id="Stroke-3"></path>
                <path d="M20.4004,13.4004 L17.2994,13.4004" id="Stroke-5"></path>
                <path d="M20.4004,16.9004 L17.2994,16.9004" id="Stroke-7"></path>
                <path d="M2.7002,9.8999 L5.8002,9.8999" id="Stroke-9"></path>
                <path d="M5.7998,13.4004 L2.6998,13.4004" id="Stroke-11"></path>
                <path d="M5.7998,16.9004 L2.6998,16.9004" id="Stroke-13"></path>
                <path d="M7.6001,9.8999 L10.7001,9.8999" id="Stroke-15"></path>
                <path d="M10.7002,13.4004 L7.6002,13.4004" id="Stroke-17"></path>
                <path d="M10.7002,16.9004 L7.6002,16.9004" id="Stroke-19"></path>
                <path d="M12.5,9.8999 L15.6,9.8999" id="Stroke-21"></path>
                <path d="M15.5996,13.4004 L12.4996,13.4004" id="Stroke-23"></path>
                <path d="M15.5996,16.9004 L12.4996,16.9004" id="Stroke-25"></path>
                <path d="M21.4004,2 C22.0994,2 22.5994,2.5 22.5994,3.2 L22.5994,7.4 L0.5004,7.4 L0.5004,3.2 C0.5004,2.5 1.0004,2 1.7004,2 L21.4004,2 Z" id="Stroke-27"></path>
                <path d="M16.2002,4.1001 L16.2002,0.0001" id="Stroke-29"></path>
                <path d="M7.2002,4.1001 L7.2002,0.0001" id="Stroke-31"></path>
            </g>
        </g>
    </g>
</svg>