<?xml version="1.0" encoding="UTF-8" standalone="no"?>
<svg width="40px" height="40px" viewBox="0 0 40 40" version="1.1" xmlns="http://www.w3.org/2000/svg" xmlns:xlink="http://www.w3.org/1999/xlink">
    <!-- Generator: Sketch 45.1 (43504) - http://www.bohemiancoding.com/sketch -->
    <title>luggage</title>
    <desc>Created with Sketch.</desc>
    <defs></defs>
    <g id="Page-1" stroke="none" stroke-width="1" fill="none" fill-rule="evenodd">
        <g id="luggage" stroke="#58595B">
            <g id="Page-1" transform="translate(12.000000, 6.000000)">
                <path d="M5,27.5996 L5,27.9006 C5,28.2006 4.7,28.4996 4.4,28.4996 C4.1,28.4996 3.8,28.2006 3.8,27.9006 L3.8,27.5996" id="Stroke-1"></path>
                <path d="M12.7998,27.5996 L12.7998,27.9006 C12.7998,28.2006 12.4998,28.4996 12.1998,28.4996 C11.9008,28.4996 11.5998,28.2006 11.5998,27.9006 L11.5998,27.5996" id="Stroke-3"></path>
                <path d="M16,25.9004 C16,26.7994 15.3,27.5994 14.3,27.5994 L2.2,27.5994 C1.3,27.5994 0.5,26.9004 0.5,25.9004 L0.5,7.1004 C0.5,6.2004 1.2,5.4004 2.2,5.4004 L14.4,5.4004 C15.3,5.4004 16.1,6.1004 16.1,7.1004 L16.1,25.9004 L16,25.9004 Z" id="Stroke-5"></path>
                <path d="M13.9004,24.2002 C13.9004,24.9002 13.4004,25.5002 12.7004,25.5002 L3.7994,25.5002 C3.1004,25.5002 2.6004,24.9002 2.6004,24.2002 L2.6004,16.4002 C2.6004,15.7002 3.1004,15.0992 3.7994,15.0992 L12.7004,15.0992 C13.4004,15.0992 13.9004,15.7002 13.9004,16.4002 L13.9004,24.2002 Z" id="Stroke-7"></path>
                <path d="M13.9004,12 C13.9004,12.7 13.4004,13.3 12.7004,13.3 L3.7994,13.3 C3.1004,13.3 2.6004,12.7 2.6004,12 L2.6004,8.7 C2.6004,8 3.1004,7.4 3.7994,7.4 L12.7004,7.4 C13.4004,7.4 13.9004,8 13.9004,8.7 L13.9004,12 Z" id="Stroke-9"></path>
                <path d="M5.8999,5.3999 L5.8999,0.5999" id="Stroke-11"></path>
                <path d="M10.5,5.3999 L10.5,0.5999" id="Stroke-13"></path>
                <path d="M5.5,0.5 L11,0.5" id="Stroke-15"></path>
            </g>
        </g>
    </g>
</svg>