<?xml version="1.0" encoding="UTF-8" standalone="no"?>
<svg width="40px" height="40px" viewBox="0 0 40 40" version="1.1" xmlns="http://www.w3.org/2000/svg" xmlns:xlink="http://www.w3.org/1999/xlink">
    <!-- Generator: Sketch 45.1 (43504) - http://www.bohemiancoding.com/sketch -->
    <title>microwave</title>
    <desc>Created with Sketch.</desc>
    <defs>
        <polygon id="path-1" points="0 19.4 29.1 19.4 29.1 -3.55271368e-15 0 -3.55271368e-15"></polygon>
    </defs>
    <g id="Page-1" stroke="none" stroke-width="1" fill="none" fill-rule="evenodd">
        <g id="microwave">
            <g id="Page-1" transform="translate(5.000000, 10.000000)">
                <path d="M28.5,17.7998 C28.5,18.4008 28,18.9008 27.4,18.9008 L1.6,18.9008 C1,18.9008 0.5,18.4008 0.5,17.7998 L0.5,1.5998 C0.5,0.9998 1,0.4998 1.6,0.4998 L27.5,0.4998 C28.1,0.4998 28.6,0.9998 28.6,1.5998 L28.6,17.7998 L28.5,17.7998 Z" id="Stroke-1" stroke="#58595B"></path>
                <path d="M2.7998,10 L21.4008,10" id="Stroke-3" stroke="#58595B"></path>
                <path d="M25,3.8999 C25.718,3.8999 26.3,4.4819 26.3,5.1999 C26.3,5.9179 25.718,6.4999 25,6.4999 C24.282,6.4999 23.7,5.9179 23.7,5.1999 C23.7,4.4819 24.282,3.8999 25,3.8999 Z" id="Stroke-5" stroke="#58595B"></path>
                <path d="M25,8.2002 C25.718,8.2002 26.3,8.7822 26.3,9.5002 C26.3,10.2182 25.718,10.8002 25,10.8002 C24.282,10.8002 23.7,10.2182 23.7,9.5002 C23.7,8.7822 24.282,8.2002 25,8.2002 Z" id="Stroke-7" stroke="#58595B"></path>
                <path d="M5.8999,5 L19.0999,5" id="Stroke-9" stroke="#58595B"></path>
                <mask id="mask-2" fill="white">
                    <use xlink:href="#path-1"></use>
                </mask>
                <g id="Clip-12"></g>
                <polygon id="Stroke-11" stroke="#58595B" mask="url(#mask-2)" points="2.9 16.7 21.6 16.7 21.6 3 2.9 3"></polygon>
            </g>
        </g>
    </g>
</svg>