<?xml version="1.0" encoding="UTF-8" standalone="no"?>
<svg width="40px" height="40px" viewBox="0 0 40 40" version="1.1" xmlns="http://www.w3.org/2000/svg" xmlns:xlink="http://www.w3.org/1999/xlink">
    <!-- Generator: Sketch 45.1 (43504) - http://www.bohemiancoding.com/sketch -->
    <title>other_pets</title>
    <desc>Created with Sketch.</desc>
    <defs></defs>
    <g id="Page-1" stroke="none" stroke-width="1" fill="none" fill-rule="evenodd">
        <g id="other_pets" stroke="#58595B">
            <g id="Page-1" transform="translate(10.000000, 8.000000)">
                <path d="M12.0141,2.5099 C11.8141,1.5099 11.8141,0.6099 12.1141,0.5099 C12.6141,0.3099 15.2141,3.2099 15.7141,5.1099" id="Stroke-1"></path>
                <path d="M19.2143,9.11 C17.9143,7.01 17.5143,5.31 15.5143,5.31 C15.0143,5.31 14.4143,5.41 14.0143,5.61 C13.4143,3.91 10.7143,0.91 10.3143,1.11 C9.6143,1.61 10.3143,6.31 12.0143,7.51 C11.8143,8.01 11.7143,8.51 11.7143,9.01 C11.7143,11.11 13.4143,12.81 15.4143,12.81 C17.4143,12.81 20.3143,10.91 19.2143,9.11 Z" id="Stroke-3"></path>
                <path d="M15.6137,7.2096 C16.0007,7.2096 16.3137,7.5226 16.3137,7.9096 C16.3137,8.2966 16.0007,8.6096 15.6137,8.6096 C15.2277,8.6096 14.9147,8.2966 14.9147,7.9096 C14.9147,7.5226 15.2277,7.2096 15.6137,7.2096 Z" id="Stroke-5"></path>
                <path d="M19.2143,9.11 L18.4143,9.41 C18.4143,9.41 18.4143,10.31 19.3143,10.51 L19.4143,10.41 C19.4143,10.11 19.5143,9.61 19.2143,9.11 Z" id="Stroke-7"></path>
                <path d="M19.2143,9.11 L18.4143,9.31 C18.4143,9.31 18.5143,10.21 19.4143,10.31 C19.4143,10.31 19.5143,9.71 19.2143,9.11 Z" id="Stroke-9"></path>
                <path d="M12.3139,11.11 L12.2139,11.31 C12.2139,11.31 0.2139,12.01 1.9139,21.91 C1.9139,21.91 2.6139,24.21 4.9139,24.41 C4.9139,24.41 7.3139,24.509 7.8139,24.71 C8.6139,25.11 10.7139,24.81 10.7139,24.81 C11.3139,24.71 11.6139,24.41 11.6139,24.009 C11.6139,23.41 10.6139,23.21 9.4139,23.009 C10.9139,22.41 12.9149,21.41 13.7139,20.91 C13.7139,20.91 13.3139,23.81 14.9149,24.61 C14.9149,24.61 16.6139,25.21 17.1139,24.509 C17.1139,24.509 17.6139,23.41 16.3139,23.31 C16.0139,23.31 15.1139,23.91 15.3139,22.41 C15.3139,22.41 17.6139,16.91 17.3139,13.31 L17.3139,12.41" id="Stroke-11"></path>
                <path d="M1.8139,22.0094 C1.7139,22.0094 1.5139,21.9094 1.4139,21.8104 C0.6139,21.4094 0.3139,20.6104 0.6139,20.1104 C0.8139,19.8104 1.2139,19.6104 1.7139,19.6104" id="Stroke-13"></path>
                <path d="M9.3139,23.11 C9.3139,23.11 12.7139,18.41 6.5139,16.91" id="Stroke-15"></path>
            </g>
        </g>
    </g>
</svg>