<?xml version="1.0" encoding="UTF-8" standalone="no"?>
<svg width="40px" height="40px" viewBox="0 0 40 40" version="1.1" xmlns="http://www.w3.org/2000/svg" xmlns:xlink="http://www.w3.org/1999/xlink">
    <!-- Generator: Sketch 45.1 (43504) - http://www.bohemiancoding.com/sketch -->
    <title>patio</title>
    <desc>Created with Sketch.</desc>
    <defs></defs>
    <g id="Page-1" stroke="none" stroke-width="1" fill="none" fill-rule="evenodd">
        <g id="patio">
            <g transform="translate(8.000000, 12.000000)">
                <path d="M3.1,0.5 L3.1,12.3" id="Shape" stroke="#58595B"></path>
                <path d="M7.6,0.5 L7.6,12.3" id="Shape" stroke="#58595B"></path>
                <path d="M12,0.5 L12,12.3" id="Shape" stroke="#58595B"></path>
                <path d="M16.4,0.5 L16.4,12.3" id="Shape" stroke="#58595B"></path>
                <path d="M20.9,0.5 L20.9,12.3" id="Shape" stroke="#58595B"></path>
                <circle id="Oval" stroke="#58595B" fill="#FFFFFF" fill-rule="nonzero" cx="3.1" cy="6.1" r="1"></circle>
                <circle id="Oval" stroke="#58595B" fill="#FFFFFF" fill-rule="nonzero" cx="7.6" cy="6.1" r="1"></circle>
                <circle id="Oval" stroke="#58595B" fill="#FFFFFF" fill-rule="nonzero" cx="12" cy="6.1" r="1"></circle>
                <circle id="Oval" stroke="#58595B" fill="#FFFFFF" fill-rule="nonzero" cx="16.4" cy="6.1" r="1"></circle>
                <circle id="Oval" stroke="#58595B" fill="#FFFFFF" fill-rule="nonzero" cx="20.9" cy="6.1" r="1"></circle>
                <circle id="Oval" fill="#58595B" fill-rule="nonzero" cx="12" cy="2.9" r="1"></circle>
                <circle id="Oval" fill="#58595B" fill-rule="nonzero" cx="12" cy="9.7" r="1"></circle>
                <circle id="Oval" fill="#58595B" fill-rule="nonzero" cx="16.4" cy="2.9" r="1"></circle>
                <circle id="Oval" fill="#58595B" fill-rule="nonzero" cx="16.4" cy="9.7" r="1"></circle>
                <circle id="Oval" fill="#58595B" fill-rule="nonzero" cx="20.9" cy="3" r="1"></circle>
                <circle id="Oval" fill="#58595B" fill-rule="nonzero" cx="20.9" cy="9.8" r="1"></circle>
                <circle id="Oval" fill="#58595B" fill-rule="nonzero" cx="7.6" cy="3" r="1"></circle>
                <circle id="Oval" fill="#58595B" fill-rule="nonzero" cx="7.6" cy="9.8" r="1"></circle>
                <circle id="Oval" fill="#58595B" fill-rule="nonzero" cx="3.1" cy="3" r="1"></circle>
                <circle id="Oval" fill="#58595B" fill-rule="nonzero" cx="3.1" cy="9.8" r="1"></circle>
                <path d="M23,13.4 C23,14.6 22,15.6 20.8,15.6 L3,15.6 C1.8,15.6 0.8,14.6 0.8,13.4 L0.8,12.3 L23,12.3 L23,13.4 Z" id="Shape" stroke="#58595B"></path>
                <path d="M0,0.5 L24,0.5" id="Shape" stroke="#58595B"></path>
            </g>
        </g>
    </g>
</svg>