<?xml version="1.0" encoding="UTF-8" standalone="no"?>
<svg width="40px" height="40px" viewBox="0 0 40 40" version="1.1" xmlns="http://www.w3.org/2000/svg" xmlns:xlink="http://www.w3.org/1999/xlink">
    <!-- Generator: Sketch 42 (36781) - http://www.bohemiancoding.com/sketch -->
    <title>pets live</title>
    <desc>Created with Sketch.</desc>
    <defs></defs>
    <g id="Page-1" stroke="none" stroke-width="1" fill="none" fill-rule="evenodd">
        <g id="Listing-Expand" transform="translate(-288.000000, -1803.000000)">
            <g id="amenities" transform="translate(288.000000, 1406.000000)">
                <g id="pets-live" transform="translate(0.000000, 397.000000)">
                    <rect id="10" fill="#FFFFFF" x="0" y="0" width="40" height="40"></rect>
                    <path d="M22.9813,13.0328 C23.5523,13.0878 24.0993,13.1578 24.6163,13.2408" id="Stroke-1" stroke="#464646"></path>
                    <path d="M27.7046,13.8133 C28.8166,14.1933 29.4696,14.6583 29.4696,15.1613 C29.4696,16.4423 25.2296,17.4793 19.9986,17.4793 C14.7686,17.4793 10.5286,16.4423 10.5286,15.1613 C10.5286,14.1283 13.2936,13.2523 17.1116,12.9523" id="Stroke-3" stroke="#464646"></path>
                    <path d="M31.5,22.1945 C31.5,24.0195 26.351,25.5005 19.999,25.5005 C13.647,25.5005 8.5,24.0195 8.5,22.1945" id="Stroke-5" stroke="#464646"></path>
                    <path d="M29.959,18.6296 C27.97,19.6166 24.254,20.2816 19.999,20.2816 C15.744,20.2816 12.029,19.6166 10.041,18.6296" id="Stroke-7" stroke="#464646"></path>
                    <path d="M29.47,15.6176 L31.5,22.3946" id="Stroke-9" stroke="#464646"></path>
                    <path d="M8.5,22.395 L10.529,15.618" id="Stroke-11" stroke="#464646"></path>
                    <path d="M23.5115,14.6091 L25.4245,12.2831 C25.6425,12.0171 26.0265,11.9851 26.2825,12.2111 L27.5445,13.3271 C27.8015,13.5531 27.8315,13.9521 27.6135,14.2171 L25.3205,16.9761" id="Stroke-13" stroke="#464646"></path>
                    <path d="M16.4953,17.1577 C16.4793,17.0737 16.4753,16.9847 16.4853,16.8937 L16.8783,13.5307 C16.9313,13.0737 17.3333,12.7467 17.7753,12.8017 L19.4633,13.0137 C19.9053,13.0697 20.2193,13.4857 20.1663,13.9437 L19.7733,17.3067 C19.7723,17.3187 19.7703,17.3297 19.7683,17.3417" id="Stroke-15" stroke="#464646"></path>
                    <path d="M19.868,13.1779 C19.963,13.0369 20.101,12.9239 20.27,12.8639 L21.879,12.2939 C22.301,12.1459 22.759,12.3789 22.902,12.8159 L23.893,16.2699 C24.036,16.7069 23.789,17.1169 23.367,17.2669 L23.064,17.3739" id="Stroke-17" stroke="#464646"></path>
                    <path d="M20.9109,17.3201 C20.8749,17.2621 20.8439,17.1991 20.8219,17.1311 L20.0709,14.8471" id="Stroke-19" stroke="#464646"></path>
                    <path d="M13.7892,16.6857 L13.2652,15.1297 C13.1312,14.7297 13.3352,14.2927 13.7202,14.1527 L15.1942,13.6197 C15.5802,13.4797 16.0012,13.6917 16.1362,14.0907 L17.1902,17.2197" id="Stroke-21" stroke="#464646"></path>
                </g>
            </g>
        </g>
    </g>
</svg>