<?xml version="1.0" encoding="UTF-8" standalone="no"?>
<svg width="40px" height="40px" viewBox="0 0 40 40" version="1.1" xmlns="http://www.w3.org/2000/svg" xmlns:xlink="http://www.w3.org/1999/xlink">
    <!-- Generator: Sketch 42 (36781) - http://www.bohemiancoding.com/sketch -->
    <title>pets allowed</title>
    <desc>Created with Sketch.</desc>
    <defs></defs>
    <g id="Page-1" stroke="none" stroke-width="1" fill="none" fill-rule="evenodd">
        <g id="Listing-Expand" transform="translate(-288.000000, -1763.000000)">
            <g id="amenities" transform="translate(288.000000, 1406.000000)">
                <g id="pets-allowed" transform="translate(0.000000, 357.000000)">
                    <rect id="9" fill="#FFFFFF" x="0" y="0" width="40" height="40"></rect>
                    <path d="M13.497,24.8499 C13.497,21.3329 14.933,15.9789 20.023,15.9789 C24.722,15.9789 26.549,21.3329 26.549,24.8499 C26.549,26.5789 26.026,28.3219 24.696,28.3219 C21.633,28.3219 21.899,26.2929 20.067,26.2929 C18.405,26.2929 18.196,28.4999 15.694,28.4999 C14.199,28.4999 13.497,26.7459 13.497,24.8499 L13.497,24.8499 Z" id="Stroke-1" stroke="#464646"></path>
                    <path d="M14.0054,17.8273 C14.9664,17.0853 14.8874,15.4263 13.8294,14.1203 C12.7704,12.8153 11.1334,12.3583 10.1724,13.1003 C9.2114,13.8413 9.2904,15.5013 10.3484,16.8063 C11.4064,18.1123 13.0444,18.5693 14.0054,17.8273 L14.0054,17.8273 Z" id="Stroke-3" stroke="#464646"></path>
                    <path d="M29.8276,12.9043 C28.8666,12.1623 27.2296,12.6193 26.1706,13.9253 C25.1126,15.2303 25.0336,16.8903 25.9946,17.6313 C26.9556,18.3733 28.5926,17.9163 29.6516,16.6113 C30.7096,15.3053 30.7886,13.6463 29.8276,12.9043 L29.8276,12.9043 Z" id="Stroke-5" stroke="#464646"></path>
                    <path d="M20.7306,11.3851 C20.4236,13.1371 21.1616,14.6911 22.3806,14.8571 C23.5986,15.0241 24.8346,13.7381 25.1426,11.9861 C25.4496,10.2351 24.7116,8.6801 23.4926,8.5141 C22.2746,8.3491 21.0376,9.6341 20.7306,11.3851 L20.7306,11.3851 Z" id="Stroke-7" stroke="#464646"></path>
                    <path d="M19.265,11.3851 C19.572,13.1371 18.834,14.6911 17.615,14.8571 C16.397,15.0241 15.161,13.7381 14.853,11.9861 C14.546,10.2351 15.285,8.6801 16.503,8.5141 C17.721,8.3491 18.957,9.6341 19.265,11.3851 L19.265,11.3851 Z" id="Stroke-9" stroke="#464646"></path>
                </g>
            </g>
        </g>
    </g>
</svg>