<?xml version="1.0" encoding="UTF-8" standalone="no"?>
<svg width="40px" height="40px" viewBox="0 0 40 40" version="1.1" xmlns="http://www.w3.org/2000/svg" xmlns:xlink="http://www.w3.org/1999/xlink">
    <!-- Generator: Sketch 42 (36781) - http://www.bohemiancoding.com/sketch -->
    <title>pool</title>
    <desc>Created with Sketch.</desc>
    <defs></defs>
    <g id="Page-1" stroke="none" stroke-width="1" fill="none" fill-rule="evenodd">
        <g id="Listing-Expand" transform="translate(-603.000000, -1643.000000)">
            <g id="amenities" transform="translate(288.000000, 1406.000000)">
                <g id="pool" transform="translate(315.000000, 237.000000)">
                    <rect id="6" fill="#FFFFFF" x="0" y="0" width="40" height="40"></rect>
                    <path d="M20.0003,9.5 C14.2013,9.5 9.5003,14.201 9.5003,20 C9.5003,25.799 14.2013,30.5 20.0003,30.5 C25.7993,30.5 30.5003,25.799 30.5003,20 C30.5003,14.201 25.7993,9.5 20.0003,9.5 L20.0003,9.5 Z M20.0003,24.478 C17.5273,24.478 15.5213,22.473 15.5213,20 C15.5213,17.526 17.5273,15.521 20.0003,15.521 C22.4733,15.521 24.4783,17.526 24.4783,20 C24.4783,22.473 22.4733,24.478 20.0003,24.478 L20.0003,24.478 Z" id="Stroke-1" stroke="#464646"></path>
                    <path d="M23.1668,16.8331 L27.4238,12.5761" id="Stroke-3" stroke="#464646"></path>
                    <path d="M16.7389,16.9323 L12.5109,12.7043" id="Stroke-5" stroke="#464646"></path>
                    <path d="M23.1668,23.3862 L27.4238,27.6432" id="Stroke-7" stroke="#464646"></path>
                    <path d="M16.7389,23.287 L12.5109,27.515" id="Stroke-9" stroke="#464646"></path>
                </g>
            </g>
        </g>
    </g>
</svg>