<?xml version="1.0" encoding="UTF-8" standalone="no"?>
<svg width="40px" height="40px" viewBox="0 0 40 40" version="1.1" xmlns="http://www.w3.org/2000/svg" xmlns:xlink="http://www.w3.org/1999/xlink">
    <!-- Generator: Sketch 42 (36781) - http://www.bohemiancoding.com/sketch -->
    <title>private livingroom</title>
    <desc>Created with Sketch.</desc>
    <defs></defs>
    <g id="Page-1" stroke="none" stroke-width="1" fill="none" fill-rule="evenodd">
        <g id="Listing-Expand" transform="translate(-603.000000, -1923.000000)">
            <g id="amenities" transform="translate(288.000000, 1406.000000)">
                <g id="private-livingroom" transform="translate(315.000000, 517.000000)">
                    <rect id="13" fill="#FFFFFF" x="0" y="0" width="40" height="40"></rect>
                    <path d="M29.3368,20.7778 L28.2328,18.8238 C28.2328,18.8238 27.0578,17.5928 27.6538,16.2788 C28.2508,14.9638 29.5418,14.9128 29.5418,14.9128 L32.8388,17.2558" id="Stroke-1" stroke="#464646"></path>
                    <path d="M10.6938,25.0627 L29.3398,25.0627" id="Stroke-3" stroke="#464646"></path>
                    <path d="M10.4412,14.9125 L10.4412,11.7755 C10.4412,11.1525 10.9382,10.6465 11.5502,10.6465 L18.7782,10.6465 L20.0012,10.9695 L20.0012,21.7395 L11.5502,21.7395 C11.2082,21.7395 10.9032,21.5825 10.7002,21.3355" id="Stroke-5" stroke="#464646"></path>
                    <path d="M19.999,10.969 L21.211,10.647 L28.451,10.647 C29.064,10.647 29.559,11.153 29.559,11.775 L29.559,14.912" id="Stroke-7" stroke="#464646"></path>
                    <path d="M29.3279,21.3075 C29.1239,21.5735 28.8069,21.7445 28.4509,21.7445 L19.9989,21.7445" id="Stroke-9" stroke="#464646"></path>
                    <path d="M11.7675,18.8242 C11.7675,18.8242 12.9435,17.5932 12.3465,16.2782 C11.7505,14.9642 10.4585,14.9122 10.4585,14.9122 L7.7005,16.8742" id="Stroke-11" stroke="#464646"></path>
                    <polyline id="Stroke-13" stroke="#464646" points="20.0667 18.8242 11.7677 18.8242 10.6987 20.6862"></polyline>
                    <path d="M10.6734,18.7742 C10.6734,17.6162 9.7394,16.6782 8.5864,16.6782 C7.4344,16.6782 6.5004,17.6162 6.5004,18.7742 C6.5004,19.6762 7.0674,20.4422 7.8624,20.7382 L7.8624,25.9072 C7.8624,26.6972 10.6734,26.6972 10.6734,25.9072 L10.6734,18.9262 C10.6734,18.9082 10.6694,18.8922 10.6694,18.8742 C10.6704,18.8412 10.6734,18.8082 10.6734,18.7742 L10.6734,18.7742 Z" id="Stroke-15" stroke="#464646"></path>
                    <path d="M19.9333,18.8242 L28.2323,18.8242" id="Stroke-17" stroke="#464646"></path>
                    <path d="M29.3266,18.7742 C29.3266,17.6162 30.2626,16.6782 31.4136,16.6782 C32.5656,16.6782 33.4996,17.6162 33.4996,18.7742 C33.4996,19.6762 32.9326,20.4422 32.1376,20.7382 L32.1376,25.9072 C32.1376,26.6972 29.3256,26.6972 29.3256,25.9072 L29.3256,18.9262 C29.3256,18.9082 29.3306,18.8922 29.3306,18.8742 C29.3306,18.8412 29.3266,18.8082 29.3266,18.7742 L29.3266,18.7742 Z" id="Stroke-19" stroke="#464646"></path>
                </g>
            </g>
        </g>
    </g>
</svg>