<?xml version="1.0" encoding="UTF-8" standalone="no"?>
<svg width="40px" height="40px" viewBox="0 0 40 40" version="1.1" xmlns="http://www.w3.org/2000/svg" xmlns:xlink="http://www.w3.org/1999/xlink">
    <!-- Generator: Sketch 42 (36781) - http://www.bohemiancoding.com/sketch -->
    <title>smartlock</title>
    <desc>Created with Sketch.</desc>
    <defs></defs>
    <g id="Page-1" stroke="none" stroke-width="1" fill="none" fill-rule="evenodd">
        <g id="Listing-Expand" transform="translate(-918.000000, -1883.000000)">
            <g id="amenities" transform="translate(288.000000, 1406.000000)">
                <g id="smartlock" transform="translate(630.000000, 477.000000)">
                    <rect id="12" fill="#FFFFFF" x="0" y="0" width="40" height="40"></rect>
                    <path d="M20.6219,15.7515 C22.4809,15.7515 24.2439,15.8055 25.5819,15.9005 C25.1059,13.3655 22.9909,11.3925 20.6319,11.3925 C18.2719,11.3925 16.1569,13.3655 15.6809,15.8985 C17.0169,15.8045 18.7729,15.7515 20.6219,15.7515 L20.6219,15.7515 Z M26.7079,17.0005 L26.1139,16.9465 C24.7599,16.8225 22.7579,16.7515 20.6219,16.7515 C18.4979,16.7515 16.5029,16.8215 15.1469,16.9445 L14.5549,16.9985 L14.6039,16.4045 C14.8819,13.0895 17.5849,10.3925 20.6319,10.3925 C23.6789,10.3925 26.3829,13.0905 26.6579,16.4075 L26.7079,17.0005 Z M13.6259,17.0445 L13.6259,26.3325 C13.6259,26.9355 14.1359,27.4255 14.7629,27.4255 L26.4879,27.4255 C27.1149,27.4255 27.6259,26.9355 27.6259,26.3325 L27.6249,16.9625 C27.5959,12.8455 24.3949,9.4255 20.6319,9.4255 C16.8839,9.4255 13.6849,12.8335 13.6439,16.8665 L13.6259,17.0445 Z M26.4879,28.4255 L14.7629,28.4255 C13.5849,28.4255 12.6259,27.4865 12.6259,26.3325 L12.6459,16.7205 C12.7629,12.2095 16.3899,8.4255 20.6319,8.4255 C24.9019,8.4255 28.5389,12.2445 28.6189,16.7885 L28.6259,16.9105 L28.6259,26.3325 C28.6259,27.4865 27.6669,28.4255 26.4879,28.4255 L26.4879,28.4255 Z" id="Fill-1" fill="#464646"></path>
                    <text id="00" font-family="Roboto-Medium, Roboto" font-size="8" font-weight="400" fill="#464646">
                        <tspan x="16.0781" y="24.5117">00</tspan>
                    </text>
                </g>
            </g>
        </g>
    </g>
</svg>