<?xml version="1.0" encoding="UTF-8" standalone="no"?>
<svg width="40px" height="41px" viewBox="0 0 40 41" version="1.1" xmlns="http://www.w3.org/2000/svg" xmlns:xlink="http://www.w3.org/1999/xlink">
    <!-- Generator: Sketch 42 (36781) - http://www.bohemiancoding.com/sketch -->
    <title>smoking</title>
    <desc>Created with Sketch.</desc>
    <defs></defs>
    <g id="Page-1" stroke="none" stroke-width="1" fill="none" fill-rule="evenodd">
        <g id="Listing-Expand" transform="translate(-288.000000, -1603.000000)">
            <g id="amenities" transform="translate(288.000000, 1406.000000)">
                <g id="smoking" transform="translate(0.000000, 197.000000)">
                    <rect id="5" fill="#FFFFFF" x="0" y="0" width="40" height="41"></rect>
                    <path d="M21.9674,20.429685 C20.5164,20.923735 19.2494,21.55821 18.1944,21.55821 C16.6184,21.55821 14.8044,20.411235 12.1404,19.85466 C9.2004,19.23966 6.7684,19.047985 6.7684,19.047985 C6.7684,19.047985 8.7134,23.937235 13.6364,25.843735 C14.8194,26.302935 16.9184,25.790435 18.1954,25.790435 C19.5984,25.790435 21.4374,26.280385 22.5804,25.858085 C23.7504,25.42451 24.7524,24.81566 25.5994,24.138135" id="Stroke-1" stroke="#464646"></path>
                    <path d="M28.0694,21.5048075 C29.0374,20.1477075 29.4644,19.0478825 29.4644,19.0478825 C29.4644,19.0478825 28.0554,19.2487825 26.1404,19.5583325" id="Stroke-3" stroke="#464646"></path>
                    <path d="M29.0143,17.9490825 C29.0143,17.9490825 26.4983,16.8215825 23.6043,16.4638575 C21.7703,16.2373325 19.7853,16.7201075 18.1913,16.7201075 C16.5753,16.7201075 14.5343,16.2424575 12.6533,16.4730825 C9.7463,16.8287575 7.2183,17.9490825 7.2183,17.9490825 C7.2183,17.9490825 10.2643,12.0338075 12.9063,12.0338075 C15.5473,12.0338075 18.1913,13.0967325 18.1913,13.0967325 C18.1913,13.0967325 20.8323,12.0338075 23.4743,12.0338075 C26.1163,12.0338075 29.0143,17.9490825 29.0143,17.9490825 L29.0143,17.9490825 Z" id="Stroke-5" stroke="#464646"></path>
                    <path d="M32.7851,26.32118 L27.1501,20.578105" id="Stroke-7" stroke="#464646"></path>
                    <path d="M24.6439,23.13056 L30.1449,28.73731" id="Stroke-9" stroke="#464646"></path>
                    <path d="M32.7851,26.32077 C32.7851,26.32077 31.8811,25.991745 30.9071,26.854795 C29.9341,27.71682 29.9711,28.591145 30.2281,28.85252 C30.4841,29.11287 31.1831,29.642795 32.4381,28.552195 C33.5901,27.551795 33.1031,26.73897 32.7851,26.32077 L32.7851,26.32077 Z" id="Stroke-11" stroke="#464646"></path>
                    <path d="M18.1913,16.72062 L24.6443,23.13097 C24.6443,23.13097 24.4723,22.02192 25.2343,21.245995 C25.9973,20.469045 27.1493,20.577695 27.1493,20.577695 L22.6703,16.40492" id="Stroke-13" stroke="#464646"></path>
                </g>
            </g>
        </g>
    </g>
</svg>