<?xml version="1.0" encoding="UTF-8" standalone="no"?>
<svg width="40px" height="40px" viewBox="0 0 40 40" version="1.1" xmlns="http://www.w3.org/2000/svg" xmlns:xlink="http://www.w3.org/1999/xlink">
    <!-- Generator: Sketch 45.1 (43504) - http://www.bohemiancoding.com/sketch -->
    <title>Smoke detector</title>
    <desc>Created with Sketch.</desc>
    <defs></defs>
    <g id="Page-1" stroke="none" stroke-width="1" fill="none" fill-rule="evenodd">
        <g id="Smoke-detector" stroke="#464646">
            <g id="smoke-detector" transform="translate(9.000000, 11.000000)">
                <g transform="translate(11.000000, 9.000000) rotate(180.000000) translate(-11.000000, -9.000000) translate(-0.000000, 0.000000)">
                    <path d="M2.5,13.5 C1.3,14 0.5,15.1 0.5,16.5 L0.5,17.6 L21.5,17.6 L21.5,16.5 C21.5,15.1 20.7,14 19.5,13.5" id="Stroke-3_2_"></path>
                    <path d="M19.5,13.5 C19.1,13.4 18.7,13.3 18.3,13.3 L3.7,13.3 C3.3,13.3 2.9,13.4 2.5,13.5" id="Stroke-8"></path>
                    <path d="M19.5,13.5 L19.5,9.5 C19.5,6 17.4,2.9 14.4,1.6 L14.4,4.7 C14.4,6.6 12.9,8.2 11,8.2 C9.1,8.2 7.6,6.6 7.6,4.7 L7.6,1.6 C4.6,2.9 2.5,6 2.5,9.5 L2.5,13.5" id="Stroke-10"></path>
                    <path d="M11,8.1 C12.9,8.1 14.4,6.5 14.4,4.6 L14.4,1.5 C13.3,1 12.2,0.8 11,0.8 C9.8,0.8 8.6,1.1 7.6,1.5 L7.6,4.6 C7.6,6.5 9.1,8.1 11,8.1 L11,8.1 Z" id="Stroke-12"></path>
                    <path d="M12,4.6 C12,5.2 11.6,5.6 11,5.6 C10.5,5.6 10,5.2 10,4.6 C10,4 10.4,3.6 11,3.6 C11.5,3.6 12,4.1 12,4.6 L12,4.6 Z" id="Stroke-14"></path>
                </g>
            </g>
        </g>
    </g>
</svg>