<?xml version="1.0" encoding="UTF-8" standalone="no"?>
<svg width="40px" height="40px" viewBox="0 0 40 40" version="1.1" xmlns="http://www.w3.org/2000/svg" xmlns:xlink="http://www.w3.org/1999/xlink">
    <!-- Generator: Sketch 45.1 (43504) - http://www.bohemiancoding.com/sketch -->
    <title>stove</title>
    <desc>Created with Sketch.</desc>
    <defs></defs>
    <g id="Page-1" stroke="none" stroke-width="1" fill="none" fill-rule="evenodd">
        <g id="stove" stroke="#58595B">
            <g id="Page-1" transform="translate(8.000000, 9.000000)">
                <path d="M18.0996,8.7672 L20.9996,4.8672 C20.9996,4.8672 25.0996,2.5672 24.4006,0.8672 C24.2996,0.5672 23.4996,0.2672 22.7996,0.7672 C22.2006,1.1672 19.9996,2.6672 19.0996,3.4672 C18.2006,4.1672 14.9996,7.1672 14.9996,7.1672" id="Stroke-1"></path>
                <path d="M10.2002,6.4674 C15.5572,6.4674 19.9002,9.2434 19.9002,12.6674 C19.9002,16.0914 15.5572,18.8674 10.2002,18.8674 C4.8432,18.8674 0.5002,16.0914 0.5002,12.6674 C0.5002,9.2434 4.8432,6.4674 10.2002,6.4674 Z" id="Stroke-3"></path>
                <path d="M1.5,14.7672 C1.5,11.6672 5.5,9.2672 10.4,9.2672 C15.3,9.2672 19.3,11.7672 19.3,14.7672" id="Stroke-5"></path>
                <path d="M0.7002,12.8678 L0.7002,14.5668 C0.7002,17.9678 5.0002,21.2668 10.4002,21.2668 C15.8002,21.2668 20.0002,17.9678 20.0002,14.4678 L20.0002,12.7668" id="Stroke-7"></path>
                <path d="M23.7998,1.1676 C23.6998,1.2676 23.5998,1.3676 23.4998,1.4676 C23.1998,1.6676 22.9008,1.5676 22.7998,1.4676" id="Stroke-9"></path>
            </g>
        </g>
    </g>
</svg>