<?xml version="1.0" encoding="UTF-8" standalone="no"?>
<svg width="40px" height="40px" viewBox="0 0 40 40" version="1.1" xmlns="http://www.w3.org/2000/svg" xmlns:xlink="http://www.w3.org/1999/xlink">
    <!-- Generator: Sketch 42 (36781) - http://www.bohemiancoding.com/sketch -->
    <title>tv</title>
    <desc>Created with Sketch.</desc>
    <defs></defs>
    <g id="Page-1" stroke="none" stroke-width="1" fill="none" fill-rule="evenodd">
        <g id="Listing-Expand" transform="translate(-603.000000, -1763.000000)">
            <g id="amenities" transform="translate(288.000000, 1406.000000)">
                <g id="tv" transform="translate(315.000000, 357.000000)">
                    <rect id="9" fill="#FFFFFF" x="0" y="0" width="40" height="40"></rect>
                    <path d="M32.5,26.7785 C32.5,27.1775 32.175,27.4995 31.775,27.4995 L8.225,27.4995 C7.825,27.4995 7.5,27.1775 7.5,26.7785 L7.5,11.9905 C7.5,11.5915 7.825,11.2685 8.225,11.2685 L31.775,11.2685 C32.175,11.2685 32.5,11.5915 32.5,11.9905 L32.5,26.7785 L32.5,26.7785 Z" id="Stroke-1" stroke="#464646"></path>
                    <path d="M9.2241,14.484 C9.2241,13.949 9.6601,13.515 10.1971,13.515 L25.1381,13.515 C25.6751,13.515 26.1111,13.949 26.1111,14.484 L26.1111,24.201 C26.1111,24.736 25.6751,25.17 25.1381,25.17 L10.1971,25.17 C9.6601,25.17 9.2241,24.736 9.2241,24.201 L9.2241,14.484 L9.2241,14.484 Z" id="Stroke-3" stroke="#464646"></path>
                    <path d="M29.4479,15.8934 C30.1619,15.8934 30.7409,15.3254 30.7409,14.6244 C30.7409,13.9224 30.1619,13.3544 29.4479,13.3544 C28.7339,13.3544 28.1549,13.9224 28.1549,14.6244 C28.1549,15.3254 28.7339,15.8934 29.4479,15.8934 L29.4479,15.8934 Z" id="Stroke-5" stroke="#464646"></path>
                    <path d="M29.4479,20.1106 C30.1619,20.1106 30.7409,19.5426 30.7409,18.8416 C30.7409,18.1396 30.1619,17.5716 29.4479,17.5716 C28.7339,17.5716 28.1549,18.1396 28.1549,18.8416 C28.1549,19.5426 28.7339,20.1106 29.4479,20.1106 L29.4479,20.1106 Z" id="Stroke-7" stroke="#464646"></path>
                    <path d="M15.1831,4.7923 L19.8031,11.0223 C19.8461,11.0793 19.9111,11.1083 19.9771,11.1083 C19.9831,11.1083 19.9891,11.1073 19.9951,11.1073 C20.0001,11.1073 20.0061,11.1083 20.0121,11.1083 C20.0781,11.1083 20.1431,11.0793 20.1861,11.0223 L24.7761,4.7923" id="Stroke-9" stroke="#464646"></path>
                </g>
            </g>
        </g>
    </g>
</svg>