<?xml version="1.0" encoding="UTF-8" standalone="no"?>
<svg width="40px" height="40px" viewBox="0 0 40 40" version="1.1" xmlns="http://www.w3.org/2000/svg" xmlns:xlink="http://www.w3.org/1999/xlink">
    <!-- Generator: Sketch 42 (36781) - http://www.bohemiancoding.com/sketch -->
    <title>washer</title>
    <desc>Created with Sketch.</desc>
    <defs></defs>
    <g id="Page-1" stroke="none" stroke-width="1" fill="none" fill-rule="evenodd">
        <g id="Listing-Expand" transform="translate(-918.000000, -1443.000000)">
            <g id="amenities" transform="translate(288.000000, 1406.000000)">
                <g id="washer" transform="translate(630.000000, 37.000000)">
                    <rect id="1" fill="#FFFFFF" x="0" y="0" width="40" height="40"></rect>
                    <path d="M30.0375,32.4145 C30.0375,33.0135 29.5505,33.4995 28.9505,33.4995 L10.5855,33.4995 C9.9865,33.4995 9.4995,33.0135 9.4995,32.4145 L9.4995,8.5855 C9.4995,7.9865 9.9865,7.4995 10.5855,7.4995 L28.9505,7.4995 C29.5505,7.4995 30.0375,7.9865 30.0375,8.5855 L30.0375,32.4145 L30.0375,32.4145 Z" id="Stroke-1" stroke="#464646"></path>
                    <path d="M26.4665,22.0172 L27.3775,22.0172 C27.5225,22.0172 27.6385,22.1342 27.6385,22.2782 L27.6385,25.3852 C27.6385,25.5292 27.5225,25.6462 27.3775,25.6462 L26.4715,25.6462" id="Stroke-3" stroke="#464646"></path>
                    <path d="M19.7688,30.7729 C23.6348,30.7729 26.7688,27.6649 26.7688,23.8319 C26.7688,19.9979 23.6348,16.8899 19.7688,16.8899 C15.9028,16.8899 12.7688,19.9979 12.7688,23.8319 C12.7688,27.6649 15.9028,30.7729 19.7688,30.7729 L19.7688,30.7729 Z" id="Stroke-5" stroke="#464646"></path>
                    <path d="M19.7688,28.9254 C22.6038,28.9254 24.9018,26.6444 24.9018,23.8314 C24.9018,21.0184 22.6038,18.7374 19.7688,18.7374 C16.9338,18.7374 14.6358,21.0184 14.6358,23.8314 C14.6358,26.6444 16.9338,28.9254 19.7688,28.9254 L19.7688,28.9254 Z" id="Stroke-7" stroke="#464646"></path>
                    <path d="M17.0849,23.7456 C17.0849,22.1506 18.3839,20.8586 19.9859,20.8586" id="Stroke-9" stroke="#464646"></path>
                    <path d="M9.3655,14.486 L30.0375,14.486" id="Stroke-11" stroke="#464646"></path>
                    <polygon id="Stroke-13" stroke="#464646" points="11.1852 12.285 16.6672 12.285 16.6672 9.719 11.1792 9.719"></polygon>
                    <path d="M26.746,11.875 C26.746,11.6 26.971,11.376 27.246,11.376 C27.521,11.376 27.745,11.6 27.745,11.875 C27.745,12.152 27.521,12.374 27.246,12.374 C26.971,12.374 26.746,12.152 26.746,11.875 L26.746,11.875 Z" id="Stroke-15" stroke="#464646"></path>
                    <path d="M23.7275,11.875 C23.7275,11.6 23.9515,11.376 24.2275,11.376 C24.5025,11.376 24.7265,11.6 24.7265,11.875 C24.7265,12.152 24.5025,12.374 24.2275,12.374 C23.9515,12.374 23.7275,12.152 23.7275,11.875 L23.7275,11.875 Z" id="Stroke-17" stroke="#464646"></path>
                </g>
            </g>
        </g>
    </g>
</svg>