<?xml version="1.0" encoding="UTF-8" standalone="no"?>
<svg width="40px" height="40px" viewBox="0 0 40 40" version="1.1" xmlns="http://www.w3.org/2000/svg" xmlns:xlink="http://www.w3.org/1999/xlink">
    <!-- Generator: Sketch 42 (36781) - http://www.bohemiancoding.com/sketch -->
    <title>wheelchair</title>
    <desc>Created with Sketch.</desc>
    <defs></defs>
    <g id="Page-1" stroke="none" stroke-width="1" fill="none" fill-rule="evenodd">
        <g id="Listing-Expand" transform="translate(-288.000000, -1523.000000)">
            <g id="amenities" transform="translate(288.000000, 1406.000000)">
                <g id="wheelchair" transform="translate(0.000000, 117.000000)">
                    <rect id="3" fill="#FFFFFF" x="0" y="0" width="40" height="40"></rect>
                    <path d="M20.8996,13.9391 C21.6016,14.1351 22.1156,14.7771 22.1166,15.5401 L22.1196,21.8311" id="Stroke-1" stroke="#464646"></path>
                    <path d="M24.9515,20.831 L16.7445,20.831 L15.7445,20.831 L15.7445,21.831 L15.7445,22.8 C15.7445,24.063 16.8355,25.015 18.2815,25.015 L24.2315,25.015 L26.0595,29.497 C26.3275,30.162 27.1105,30.63 27.9615,30.63 C28.2825,30.63 28.5845,30.564 28.8565,30.433 C29.7495,30.006 30.2415,28.823 29.8895,27.952 L27.8225,22.832 C27.5665,22.197 27.1765,21.669 26.7435,21.368 C26.3215,21.021 25.6895,20.831 24.9515,20.831 M24.9515,21.831 C25.5015,21.831 25.9205,21.967 26.1375,22.166 C26.4085,22.337 26.6975,22.716 26.8955,23.206 L28.9625,28.327 C29.1015,28.671 28.8625,29.322 28.4255,29.531 C28.2825,29.599 28.1225,29.63 27.9615,29.63 C27.5365,29.63 27.1055,29.416 26.9855,29.12 L24.9035,24.015 L18.2815,24.015 C17.4675,24.015 16.7445,23.555 16.7445,22.8 L16.7445,21.831 L24.9515,21.831" id="Fill-3" fill="#464646"></path>
                    <path d="M19.4301,5.385 C17.1411,5.385 15.2781,7.243 15.2781,9.527 C15.2781,11.812 17.1411,13.67 19.4301,13.67 C21.7191,13.67 23.5821,11.812 23.5821,9.527 C23.5821,7.243 21.7191,5.385 19.4301,5.385 M19.4301,6.385 C21.1711,6.385 22.5821,7.792 22.5821,9.527 C22.5821,11.263 21.1711,12.67 19.4301,12.67 C17.6891,12.67 16.2781,11.263 16.2781,9.527 C16.2781,7.792 17.6891,6.385 19.4301,6.385" id="Fill-5" fill="#464646"></path>
                    <path d="M21.9273,7.6376 C21.9273,7.6376 20.3583,8.6566 19.8253,9.8066 C19.4553,10.6046 16.7803,11.2276 16.7803,11.2276" id="Stroke-7" stroke="#464646"></path>
                    <path d="M21.2462,9.2681 C21.2462,9.3681 21.3232,9.4491 21.4192,9.4491 C21.5142,9.4491 21.5912,9.3681 21.5912,9.2681" id="Stroke-9" stroke="#464646"></path>
                    <path d="M13.244,23.7434 C12.556,26.1514 13.218,28.8484 15.186,30.6674 C17.979,33.2484 22.341,33.0824 24.928,30.2994 C25.399,29.7934 25.777,29.2374 26.066,28.6464 L26.07,28.6494" id="Stroke-11" stroke="#464646"></path>
                    <path d="M16.2781,21.3506 L16.2781,16.4936" id="Stroke-13" stroke="#464646"></path>
                    <path d="M19.8619,12.6398 C19.7329,12.6398 19.6039,12.6548 19.4779,12.6848 L11.2679,14.6428 C10.8389,14.7458 10.4749,15.0088 10.2439,15.3848 C10.0139,15.7608 9.9429,16.2028 10.0459,16.6308 L11.5599,22.9408 C11.7389,23.6858 12.3979,24.2058 13.1639,24.2058 C13.2929,24.2058 13.4229,24.1898 13.5479,24.1598 C13.9779,24.0578 14.3409,23.7938 14.5719,23.4188 C14.8029,23.0428 14.8729,22.6008 14.7699,22.1718 L13.6419,17.4668 L20.2449,15.8918 C20.6739,15.7898 21.0379,15.5268 21.2689,15.1508 C21.4989,14.7748 21.5689,14.3328 21.4669,13.9048 C21.2879,13.1598 20.6279,12.6398 19.8619,12.6398 M19.8619,13.6398 C20.1559,13.6398 20.4229,13.8398 20.4939,14.1378 C20.5779,14.4858 20.3619,14.8358 20.0129,14.9198 L12.4359,16.7268 L13.7979,22.4058 C13.8809,22.7538 13.6659,23.1038 13.3159,23.1878 C13.2659,23.1998 13.2149,23.2058 13.1639,23.2058 C12.8699,23.2058 12.6039,23.0048 12.5319,22.7078 L11.0189,16.3978 C10.9349,16.0498 11.1509,15.6988 11.4999,15.6158 L19.7099,13.6578 C19.7609,13.6458 19.8119,13.6398 19.8619,13.6398" id="Fill-15" fill="#464646"></path>
                </g>
            </g>
        </g>
    </g>
</svg>