<?xml version="1.0" encoding="UTF-8" standalone="no"?>
<svg width="40px" height="40px" viewBox="0 0 40 40" version="1.1" xmlns="http://www.w3.org/2000/svg" xmlns:xlink="http://www.w3.org/1999/xlink">
    <!-- Generator: Sketch 42 (36781) - http://www.bohemiancoding.com/sketch -->
    <title>wifi</title>
    <desc>Created with Sketch.</desc>
    <defs></defs>
    <g id="Page-1" stroke="none" stroke-width="1" fill="none" fill-rule="evenodd">
        <g id="Listing-Expand" transform="translate(-603.000000, -1563.000000)">
            <g id="amenities" transform="translate(288.000000, 1406.000000)">
                <g id="wifi" transform="translate(315.000000, 157.000000)">
                    <rect id="4" fill="#FFFFFF" x="0" y="0" width="40" height="40"></rect>
                    <path d="M21.992,25.0004 C21.992,25.8284 21.322,26.5004 20.491,26.5004 C19.66,26.5004 18.992,25.8284 18.992,25.0004 C18.992,24.1724 19.66,23.5004 20.491,23.5004 C21.322,23.5004 21.992,24.1724 21.992,25.0004 L21.992,25.0004 Z" id="Stroke-1" stroke="#464646"></path>
                    <path d="M15.7635,21.285 C18.4745,18.356 22.5495,18.314 25.2895,21.272" id="Stroke-3" stroke="#464646"></path>
                    <path d="M9.3304,14.1595 C21.5084,3.4395 31.6534,14.1595 31.6534,14.1595" id="Stroke-5" stroke="#464646"></path>
                    <path d="M12.3385,17.6067 C16.7115,12.8827 24.3225,12.8297 28.7085,17.5677" id="Stroke-7" stroke="#464646"></path>
                </g>
            </g>
        </g>
    </g>
</svg>