<?xml version="1.0" standalone="no"?>
<!DOCTYPE svg PUBLIC "-//W3C//DTD SVG 20010904//EN"
 "http://www.w3.org/TR/2001/REC-SVG-20010904/DTD/svg10.dtd">
<svg version="1.0" xmlns="http://www.w3.org/2000/svg"
 width="4158.000000pt" height="334.000000pt" viewBox="0 0 4158.000000 334.000000"
 preserveAspectRatio="xMidYMid meet">

<g transform="translate(0.000000,334.000000) scale(0.100000,-0.100000)"
fill="#FFFFFF" stroke="none">
<path d="M27963 3330 c-550 -46 -1040 -379 -1283 -875 -140 -286 -187 -509
-177 -847 7 -285 58 -494 177 -733 80 -159 172 -287 300 -415 171 -171 368
-294 598 -374 183 -63 298 -81 532 -81 174 0 222 4 317 23 462 93 840 367
1077 778 100 173 181 428 207 646 18 159 7 435 -25 584 -121 574 -507 1024
-1033 1207 -132 46 -261 74 -408 86 -131 12 -146 12 -282 1z m419 -290 c523
-107 908 -509 1030 -1074 29 -135 32 -433 5 -573 -38 -205 -111 -384 -225
-554 -183 -273 -443 -454 -769 -536 -100 -26 -123 -28 -313 -28 -190 0 -213 2
-313 28 -519 130 -882 526 -994 1082 -27 140 -25 445 6 585 131 609 570 1023
1154 1090 105 12 307 2 419 -20z"/>
<path d="M0 1675 l0 -1625 140 0 140 0 0 830 0 830 580 0 581 0 -3 133 -3 132
-577 3 -578 2 0 525 0 525 740 0 740 0 0 135 0 135 -880 0 -880 0 0 -1625z"/>
<path d="M2630 1675 l0 -1625 140 0 140 0 0 830 0 830 270 0 270 0 622 -830
623 -830 168 0 168 0 -19 28 c-11 15 -290 387 -621 827 l-600 800 93 12 c254
32 427 123 562 296 110 141 164 302 164 493 0 138 -23 234 -86 364 -40 82 -60
108 -144 191 -83 84 -109 103 -191 142 -189 91 -250 97 -976 97 l-583 0 0
-1625z m1326 1329 c174 -49 312 -189 359 -365 19 -69 19 -199 0 -268 -46 -176
-174 -308 -355 -367 -49 -16 -106 -18 -552 -22 l-498 -3 0 526 0 526 488 -3
c447 -4 493 -6 558 -24z"/>
<path d="M6957 3268 c-8 -18 -321 -747 -695 -1620 -375 -873 -682 -1589 -682
-1592 0 -3 62 -6 138 -6 l139 0 103 238 c56 130 152 351 213 489 l109 253 782
0 781 0 211 -488 212 -487 142 -3 c78 -1 140 1 138 6 -1 5 -315 736 -697 1625
l-695 1617 -93 0 -93 0 -13 -32z m433 -1178 c178 -415 325 -763 328 -772 4
-17 -32 -18 -657 -18 -363 0 -661 3 -661 6 0 3 144 341 321 752 177 411 325
758 330 771 5 13 11 22 13 20 2 -2 149 -344 326 -759z"/>
<path d="M9350 1675 l0 -1625 140 0 140 0 2 1347 3 1346 1078 -1344 1079
-1344 94 -3 94 -3 0 1626 0 1625 -140 0 -140 0 -2 -1345 -3 -1345 -1079 1345
-1079 1345 -93 0 -94 0 0 -1625z"/>
<path d="M13270 1675 l0 -1625 140 0 140 0 2 816 3 816 825 -816 825 -815 183
-1 c101 0 182 4 180 8 -2 4 -388 387 -858 851 -470 463 -856 846 -858 851 -2
4 352 349 785 765 433 417 790 762 791 766 2 5 -79 9 -180 8 l-183 0 -755
-723 -755 -723 -3 723 -2 724 -140 0 -140 0 0 -1625z"/>
<path d="M23630 1665 l0 -1626 138 3 137 3 3 782 2 782 563 4 c596 4 601 5
747 55 199 69 355 210 450 407 57 119 79 198 87 321 26 395 -224 753 -597 853
-136 37 -226 41 -887 41 l-643 0 0 -1625z m1425 1331 c195 -58 341 -197 397
-379 28 -92 30 -234 4 -322 -42 -144 -153 -281 -276 -342 -135 -67 -129 -67
-727 -71 l-543 -3 0 571 0 571 543 -4 c483 -3 548 -5 602 -21z"/>
<path d="M30670 1665 l0 -1625 140 0 140 0 0 830 0 830 273 0 272 0 625 -830
625 -830 168 0 c132 0 167 3 161 13 -4 6 -284 378 -621 826 -338 447 -612 815
-611 817 2 1 44 8 93 14 130 16 198 35 304 87 80 38 108 59 186 137 103 102
157 188 202 321 24 73 27 94 27 235 1 178 -14 242 -87 385 -55 107 -200 254
-302 307 -196 102 -253 108 -992 108 l-603 0 0 -1625z m1342 1328 c314 -95
460 -454 305 -747 -41 -78 -138 -175 -208 -209 -123 -60 -131 -61 -666 -65
l-493 -3 0 526 0 526 498 -3 c467 -4 501 -5 564 -25z"/>
<path d="M33380 3155 l0 -135 460 0 460 0 2 -1487 3 -1488 138 -3 137 -3 0
1491 0 1490 465 0 465 0 0 135 0 135 -1065 0 -1065 0 0 -135z"/>
<path d="M36390 1665 l0 -1625 903 2 902 3 3 133 3 132 -766 0 -765 0 0 695 0
695 578 2 577 3 3 133 3 132 -581 0 -580 0 0 525 0 525 740 0 740 0 0 135 0
135 -880 0 -880 0 0 -1625z"/>
<path d="M39165 3278 c-3 -7 -4 -737 -3 -1623 l3 -1610 140 0 140 0 3 828 2
827 272 -2 272 -3 624 -828 624 -827 164 0 c90 0 164 3 164 8 0 4 -278 376
-619 827 l-618 820 51 7 c139 21 187 31 257 54 232 76 419 277 491 530 32 113
32 305 0 418 -68 238 -240 434 -453 516 -166 64 -152 63 -862 67 -527 3 -648
2 -652 -9z m1255 -268 c103 -17 180 -47 245 -95 177 -133 253 -364 188 -570
-40 -127 -136 -247 -240 -303 -122 -64 -128 -65 -670 -69 l-493 -4 0 525 0
526 453 0 c259 0 480 -5 517 -10z"/>
<path d="M17913 3133 l-253 -146 0 -1474 0 -1473 1620 0 1620 0 0 832 c0 695
-2 829 -13 813 -8 -11 -215 -383 -462 -828 l-448 -807 -896 1615 c-493 888
-900 1614 -906 1614 -5 0 -124 -66 -262 -146z"/>
<path d="M19060 2755 c0 -289 3 -525 6 -525 3 0 202 113 442 251 240 138 446
256 457 261 17 8 97 -34 474 -251 249 -144 454 -261 457 -261 2 0 4 237 4 526
0 457 -2 525 -15 521 -8 -4 -214 -121 -459 -262 l-444 -256 -453 261 c-249
143 -457 260 -461 260 -4 0 -8 -236 -8 -525z"/>
</g>
</svg>
